<svg width="130" height="130" viewBox="0 0 130 130" fill="none" xmlns="http://www.w3.org/2000/svg">
<rect width="130" height="130" rx="9" fill="#ECF5F1"/>
<path d="M27.4169 43.2275C24.9169 36.7275 25.9169 31.7275 28.9169 26.7275C30.8516 22.7275 49.416 23.2275 57.916 28.2275C66.416 33.2275 72.916 29.7275 79.416 27.2275C85.916 24.7275 97.916 22.2275 103.416 25.7275C108.916 29.2275 108.416 37.7275 107.416 40.2275C106.416 42.7275 105.416 45.2275 105.416 49.7275C105.416 54.2275 104.416 54.2275 101.416 55.7275C99.016 56.9275 95.7494 55.5608 94.416 54.7275C94.916 55.2275 94.616 56.5275 89.416 57.7275C84.216 58.9275 82.2493 57.2275 81.916 56.2275C82.0827 57.0608 80.916 58.8275 74.916 59.2275C67.416 59.7275 66.916 57.2275 66.916 58.2275C66.916 59.2275 61.916 59.2275 56.916 59.2275C51.916 59.2275 52.916 55.7275 51.916 57.2275C50.916 58.7275 44.416 57.2275 42.416 56.7275C40.416 56.2275 38.416 54.7275 36.916 55.7275C35.416 56.7275 29.416 54.7275 28.9169 53.2275C28.4178 51.7275 29.9169 49.7275 27.4169 43.2275Z" fill="white"/>
<path d="M106.63 88.0669C109.13 94.5669 108.13 99.5669 105.13 104.567C103.195 108.567 84.6309 108.067 76.1309 103.067C67.6309 98.0669 61.1309 101.567 54.6309 104.067C48.1309 106.567 36.1309 109.067 30.6309 105.567C25.1309 102.067 25.6309 93.5669 26.6309 91.0669C27.6309 88.5669 30 83.5 32.5 78.0669L34.5 75L40 75L43 76L46 75L54.6309 76.5L61 76L67 77.5L69.5 76L76.5 76C79.5 77.5 77 76.5 83.5 75.5C90 74.5 90 76.5 90.5 75.5C90.9 74.7 96.5 74.8333 99 75C101.5 75.5 101.001 78.5 101.5 80C101.999 81.5 104.13 81.5669 106.63 88.0669Z" fill="white"/>
<path fill-rule="evenodd" clip-rule="evenodd" d="M34.8149 23.2337C32.9908 23.5415 31.6491 23.9569 30.5395 24.5576C29.5228 25.1081 28.2728 26.2744 27.5487 27.348C26.797 28.4625 26.0697 30.058 25.6671 31.4754C25.3349 32.6457 25.2906 33.1742 25.2997 35.8753C25.3089 38.6479 25.3531 39.1089 25.7564 40.6353C26.002 41.565 26.5543 43.0999 26.984 44.0463L27.7652 45.7671L27.8914 48.4959C28.0239 51.3621 28.3625 53.4684 28.8007 54.1507C29.4616 55.1803 31.4711 56.1144 34.0702 56.6003C35.3923 56.8474 38.1327 56.8636 38.8587 56.6284C39.2813 56.4915 39.4365 56.5087 39.6007 56.7105C39.8961 57.0739 41.5047 57.8697 42.5858 58.1876C45.2054 58.9576 49.1785 59.2124 51.0032 58.7274L51.971 58.47L52.6217 59.0385C52.9797 59.3511 53.5564 59.6975 53.9033 59.808C54.2502 59.9185 55.4299 60.1295 56.5248 60.2765C57.9306 60.4654 59.5018 60.5279 61.8724 60.4891C65.2217 60.4344 65.2314 60.433 66.1067 59.9381L66.9841 59.442L67.8614 59.9323C68.6415 60.3682 68.9518 60.4327 70.6605 60.5137C74.5539 60.6982 79.6632 60.2134 80.6681 59.5639C80.9084 59.4086 81.2996 59.0973 81.5372 58.8722C81.9645 58.4673 81.9804 58.4656 82.951 58.7236C84.7901 59.2124 88.7526 58.9605 91.3823 58.1876C92.4634 57.8697 94.072 57.0739 94.3675 56.7105C94.5316 56.5087 94.6868 56.4915 95.1094 56.6284C95.8354 56.8636 98.5758 56.8474 99.8979 56.6003C102.497 56.1144 104.507 55.1803 105.167 54.1507C105.606 53.4684 105.944 51.3621 106.077 48.4959L106.203 45.7671L106.984 44.0463C107.414 43.0999 107.966 41.565 108.212 40.6353C108.615 39.1089 108.659 38.6479 108.668 35.8753C108.677 33.1742 108.633 32.6457 108.301 31.4754C107.898 30.058 107.171 28.4625 106.419 27.348C105.275 25.6503 103.543 24.3729 101.576 23.7757C100.148 23.3418 97.6424 23.001 95.8705 23C89.5419 22.9961 80.4266 25.1846 72.1042 28.7064C69.5337 29.7941 66.9175 30.089 64.4804 29.5658C63.8266 29.4254 62.6373 29.033 61.8373 28.6937C55.9912 26.2145 49.6252 24.3565 44.0061 23.49C41.2018 23.0575 36.6169 22.9296 34.8149 23.2337ZM41.3323 25.0483C47.0609 25.5877 53.4603 27.2729 60.2995 30.0433C61.8161 30.6576 63.6366 31.281 64.345 31.4286C65.9864 31.7706 67.9817 31.7706 69.6231 31.4286C70.3315 31.281 72.152 30.6574 73.6686 30.0428C80.5979 27.2347 86.8895 25.5882 92.8029 25.0357C96.7854 24.6634 100.696 25.1245 102.62 26.1932C103.654 26.7676 104.96 28.2118 105.581 29.4679C105.843 29.9969 106.233 31.0028 106.449 31.7029C106.798 32.8381 106.839 33.2902 106.829 35.8753C106.819 38.2714 106.757 38.9967 106.468 40.0538C106.275 40.7573 106.031 41.5631 105.924 41.8443L105.731 42.356L105.34 41.5293C104.566 39.89 103.373 39.0426 101.64 38.9005C100.879 38.8383 100.303 38.9108 99.4428 39.1773C97.9838 39.6296 96.3788 40.7104 95.5845 41.7756C95.2495 42.2248 94.9338 42.597 94.8832 42.6023C94.8324 42.6075 94.6557 42.2286 94.4904 41.7599C94.0748 40.5802 92.8944 39.5145 91.5897 39.1408C90.3038 38.7726 89.3783 38.7864 87.8056 39.1968C85.9535 39.6803 84.6352 40.4544 83.2598 41.866L82.0723 43.0849L81.7252 42.3558C80.965 40.7588 79.4948 39.5771 77.6769 39.1018C75.7172 38.5893 73.2327 39.0828 71.0624 40.4158C69.724 41.2377 68.4558 42.7068 67.7046 44.3053C67.3544 45.0512 67.03 45.6612 66.9841 45.6612C66.9381 45.6612 66.6137 45.0512 66.2635 44.3053C65.5123 42.7068 64.2441 41.2377 62.9057 40.4158C60.7354 39.0828 58.2509 38.5893 56.2912 39.1018C54.4733 39.5771 53.0031 40.7588 52.2429 42.3558L51.8958 43.0849L50.7083 41.866C49.333 40.4544 48.0146 39.6803 46.1625 39.1968C44.5898 38.7864 43.6643 38.7726 42.3784 39.1408C41.0738 39.5145 39.8933 40.5802 39.4777 41.7599C39.3124 42.2286 39.1357 42.6075 39.0849 42.6023C39.0343 42.597 38.7186 42.2248 38.3836 41.7756C37.5893 40.7104 35.9843 39.6296 34.5253 39.1773C33.6655 38.9108 33.0894 38.8383 32.3279 38.9005C30.601 39.0421 29.4016 39.8905 28.6356 41.5128C28.2972 42.2293 28.2337 42.2854 28.0854 41.9983C27.9933 41.82 27.7402 40.9832 27.5229 40.139C27.1842 38.8234 27.1279 38.202 27.1277 35.7901C27.1277 33.3141 27.1748 32.823 27.5194 31.7029C27.7348 31.0028 28.1252 29.9969 28.3869 29.4679C29.0946 28.0373 30.3958 26.6738 31.6138 26.0866C32.5841 25.6188 34.4307 25.1278 35.734 24.991C37.0057 24.8574 39.5861 24.8839 41.3323 25.0483ZM34.9467 41.3078C36.1073 41.8873 37.2693 43.0418 37.869 44.211L38.3172 45.0849L38.355 49.4339C38.3757 51.8258 38.4148 54.0099 38.4421 54.2875C38.4885 54.7627 38.4474 54.8 37.7394 54.9281C36.0651 55.2312 31.7245 54.3694 30.6728 53.5253C30.3894 53.2978 30.179 52.8829 30.0457 52.289C29.9352 51.7973 29.8092 49.8986 29.7656 48.0695C29.7029 45.439 29.742 44.4764 29.9521 43.4647C30.0983 42.7612 30.3551 41.9937 30.5229 41.7592C30.6907 41.5247 31.0858 41.1944 31.4009 41.0252C32.2315 40.5792 33.7261 40.6983 34.9467 41.3078ZM45.8142 40.9909C48.3891 41.6753 50.2922 43.4151 50.9274 45.665C51.1495 46.452 51.1956 47.5193 51.1889 51.7356L51.1809 56.8514L50.6851 56.9598C50.4123 57.0193 49.3996 57.077 48.4346 57.0877C46.6533 57.1075 44.3014 56.7971 42.9 56.3573C41.9482 56.0587 40.8744 55.5088 40.6117 55.1858C40.2745 54.7712 40.0393 51.5589 40.16 49.0162C40.3465 45.0892 40.9105 42.3135 41.6702 41.5853C42.1814 41.0951 43.1685 40.7527 44.0963 40.7435C44.5136 40.7394 45.2867 40.8507 45.8142 40.9909ZM59.3151 40.9101C60.4867 41.1367 62.044 41.9003 62.9152 42.6749C63.768 43.4335 64.5322 44.5883 64.9682 45.7775C65.7319 47.8606 66.2772 53.387 65.9959 56.1929C65.7508 58.6377 65.9097 58.5461 61.8074 58.6107C58.2068 58.6675 55.0495 58.3685 54.1311 57.8837C53.8503 57.7356 53.4879 57.3662 53.3254 57.063C53.0612 56.5696 53.0313 55.9821 53.0412 51.4805C53.0499 47.594 53.1135 46.1278 53.3211 45.0365C53.6259 43.4345 54.1928 42.3183 55.0345 41.6632C56.1192 40.8188 57.5464 40.5676 59.3151 40.9101ZM77.5644 40.9737C78.651 41.3075 79.593 42.129 80.0867 43.1734C80.7426 44.5613 80.9385 46.5605 80.9338 51.8216C80.9301 55.9432 80.8945 56.5781 80.6397 57.0608C80.4801 57.363 80.1811 57.7036 79.9754 57.8178C79.1433 58.2795 77.3089 58.4949 73.4047 58.5896C69.8196 58.6766 69.3149 58.6552 68.7753 58.394C68.2478 58.1385 68.153 57.9983 68.0399 57.3062C67.8494 56.1402 67.9114 51.8141 68.1453 49.9455C68.463 47.4097 68.8106 46.0325 69.4493 44.7805C69.8066 44.0802 70.3768 43.3121 70.8931 42.8357C72.7473 41.1251 75.5295 40.3486 77.5644 40.9737ZM91.0849 40.914C91.4266 41.0109 91.9216 41.2751 92.1846 41.5009C93.2125 42.3836 93.7759 45.5909 93.7724 50.5425C93.7697 54.5803 93.6537 55.1058 92.6358 55.6937C91.0717 56.5969 87.948 57.1716 85.1156 57.0773C84.0125 57.0407 83.0282 56.959 82.9281 56.8959C82.8019 56.8162 82.7575 55.1457 82.7827 51.4446C82.8175 46.3917 82.839 46.0553 83.1906 45.1143C83.6467 43.8935 85.0656 42.3481 86.3315 41.6934C87.9991 40.8309 89.7685 40.5408 91.0849 40.914ZM102.87 41.1813C103.986 42.0139 104.336 43.9039 104.193 48.3253C104.138 50.0138 104.017 51.7789 103.922 52.2479C103.813 52.7923 103.599 53.2369 103.331 53.4774C102.378 54.3313 98.2481 55.189 96.251 54.9475L95.3628 54.8403L95.4953 54.0557C95.5682 53.6243 95.6313 51.4293 95.6358 49.1781C95.6437 45.2009 95.6552 45.0633 96.0419 44.3227C96.2608 43.9035 96.5992 43.3399 96.7939 43.0702C97.2725 42.4075 98.5735 41.4519 99.5346 41.0573C100.575 40.6304 102.213 40.6913 102.87 41.1813ZM35.4289 73.7383C34.0122 74.0001 33.0896 74.5498 32.4746 75.4982C32.1663 75.9735 32.0022 76.5566 31.8628 77.6711C31.677 79.1571 31.6449 79.2342 30.5543 80.8147C29.0919 82.9341 28.3852 84.1564 27.3829 86.3004C25.7362 89.8223 24.9948 92.9168 25 96.2493C25.0039 98.8071 25.3302 100.348 26.3095 102.431C27.2174 104.362 28.4765 105.756 30.042 106.562C30.6307 106.865 31.8326 107.309 32.7129 107.548C34.1713 107.944 34.6179 107.984 37.7394 107.994C41.4726 108.006 43.3314 107.797 47.5121 106.896C51.5671 106.021 55.3637 104.857 59.7153 103.156C63.1189 101.825 64.4055 101.538 66.9841 101.538C69.5663 101.538 70.8497 101.825 74.2728 103.164C80.0549 105.426 85.8963 107.005 91.3825 107.787C92.308 107.919 94.3638 108.008 96.3123 107.999C99.3579 107.987 99.7993 107.946 101.285 107.542C102.181 107.298 103.384 106.847 103.958 106.539C104.532 106.231 105.433 105.535 105.96 104.993C106.652 104.281 107.122 103.57 107.655 102.431C108.489 100.646 108.727 99.7699 108.937 97.6996C109.206 95.0517 108.596 91.2435 107.418 88.2151C106.625 86.1755 105.352 83.7404 104.063 81.796C103.425 80.8341 102.757 79.8554 102.577 79.6208C102.357 79.3336 102.202 78.7451 102.102 77.8176C102.021 77.0602 101.822 76.1558 101.66 75.8077C101.268 74.9647 100.344 74.2109 99.3203 73.8988C98.129 73.5354 95.379 73.4011 93.8892 73.6334C93.1781 73.7445 92.1866 74.0521 91.5976 74.3448C90.5656 74.8574 90.5558 74.8588 90.01 74.5552C89.5559 74.3027 88.9595 74.2397 86.5718 74.1923C84.3694 74.1487 83.3604 74.2017 82.3246 74.4159C81.0153 74.6866 79.8803 75.1474 79.3454 75.6253C79.1288 75.8188 78.9498 75.7832 78.1759 75.3923C77.2839 74.9417 77.1913 74.931 74.2538 74.9349C70.2115 74.9405 68.2703 75.2828 67.2847 76.164C67.0305 76.3914 66.9523 76.3798 66.5481 76.0552C66.2994 75.8555 65.7128 75.5813 65.2447 75.4457C63.8151 75.0314 60.8729 74.794 58.6284 74.9115C56.8906 75.0026 56.4 75.0909 55.709 75.4373C55.0066 75.7895 54.839 75.8185 54.6227 75.6253C54.1904 75.2391 53.0758 74.7329 52.111 74.485C51.48 74.3226 50.1445 74.2486 47.8497 74.2486C44.9197 74.2486 44.4379 74.2873 43.9432 74.5626C43.3816 74.8752 43.3759 74.8745 42.5714 74.4277C40.9924 73.5507 38.0037 73.2621 35.4289 73.7383ZM40.0789 75.539C40.6764 75.6375 41.3901 75.8519 41.665 76.0153L42.1647 76.3124L42.1122 78.7768C42.0769 80.4284 42.1481 81.8426 42.3281 83.0651C42.4758 84.0682 42.5458 85.1043 42.4838 85.3675C42.2811 86.2277 41.7867 87.0514 41.0849 87.6985C40.7059 88.048 40.1927 88.4163 39.9449 88.5171C38.427 89.1333 37.3244 89.048 36.5475 88.2542C35.8752 87.5674 34.8533 85.3883 34.3344 83.5356C33.601 80.9165 33.4177 77.9287 33.9091 76.6025C33.9855 76.3965 34.2236 76.1103 34.4384 75.9667C35.2447 75.4276 38.0941 75.2115 40.0789 75.539ZM98.9193 75.6918C99.2501 75.7902 99.6472 76.0133 99.8016 76.1872C100.185 76.6201 100.434 78.2807 100.315 79.6208C99.994 83.2602 98.7298 86.9194 97.3081 88.3256C96.7984 88.8298 96.6412 88.887 95.7742 88.8859C93.8222 88.883 91.9512 87.3485 91.4843 85.3675C91.4223 85.1043 91.4923 84.0682 91.64 83.0651C91.82 81.8426 91.8912 80.4284 91.8559 78.7768L91.8034 76.3124L92.3131 76.0086C92.5936 75.8415 93.2319 75.6302 93.7321 75.5391C94.812 75.3425 98.0667 75.4383 98.9193 75.6918ZM51.5021 76.2929C52.1323 76.4292 52.8749 76.6774 53.1523 76.8443L53.6568 77.1479L53.6697 81.5821L53.6827 86.0164L53.2402 86.9976C52.7036 88.187 51.2686 89.7882 50.3564 90.2154C49.0905 90.8081 47.8099 90.5543 46.7838 89.5072C45.9895 88.6965 45.4441 87.7507 44.9108 86.2596C44.296 84.5403 43.9225 81.8734 43.9225 79.2022V77.0364L44.411 76.5379L44.8995 76.0393L47.6279 76.0422C49.3655 76.0441 50.7725 76.1352 51.5021 76.2929ZM89.5571 76.5379L90.0456 77.0364V79.2022C90.0456 81.8734 89.6721 84.5403 89.0573 86.2596C87.5055 90.5993 84.9174 91.734 82.3255 89.2109C81.7058 88.6077 81.1527 87.8546 80.8146 87.1536L80.2812 86.0479L80.2962 81.5978L80.3113 77.1479L80.8206 76.8414C81.7261 76.2967 83.3083 76.0671 86.2566 76.0528L89.0686 76.0393L89.5571 76.5379ZM62.9381 76.9027C63.8306 77.0023 64.8241 77.2134 65.1458 77.3717C66.078 77.8304 66.1787 78.3987 65.982 82.0819C65.8905 83.7957 65.7088 85.8213 65.5786 86.5831C65.2885 88.2785 64.6622 89.725 63.842 90.593C62.9745 91.5111 62.1565 91.9006 61.1 91.8986C58.9185 91.8945 57.0158 90.0575 56.0669 87.0397C55.6657 85.7631 55.4533 83.5932 55.4533 80.7681C55.4533 78.118 55.6028 77.4286 56.2409 77.1389C57.0726 76.7613 60.5668 76.638 62.9381 76.9027ZM77.5733 77.0833C78.3816 77.4592 78.5148 77.9804 78.5148 80.7681C78.5148 83.5932 78.3024 85.7631 77.9012 87.0397C76.9652 90.0166 75.0182 91.9003 72.8771 91.9003C71.8109 91.9003 70.9949 91.5125 70.1261 90.593C69.3061 89.725 68.6796 88.2785 68.3896 86.5835C68.1052 84.9208 67.7855 79.3389 67.9299 78.5566C68.1321 77.4615 68.6988 77.1622 71.0783 76.8934C72.8858 76.6893 76.9837 76.809 77.5733 77.0833ZM32.2246 82.3305C32.2246 82.9569 33.0908 85.6915 33.716 87.0388C34.4061 88.5262 35.1147 89.5174 35.9223 90.1256C37.5692 91.3655 40.6735 90.7211 42.589 88.7417L43.4763 87.8247L44.0754 88.8685C44.8376 90.1962 46.0098 91.4021 47.0423 91.9211C47.6595 92.2312 48.1254 92.3267 49.0195 92.3267C49.9566 92.3267 50.3749 92.2335 51.1224 91.859C52.0071 91.4156 53.6827 89.8239 54.301 88.8395L54.5631 88.4223L55.1336 89.5152C55.9128 91.0083 57.2253 92.408 58.4919 93.097C59.3463 93.5618 59.775 93.6805 60.8206 93.7424C61.9403 93.8085 62.2222 93.7618 63.0537 93.3735C63.577 93.1289 64.2431 92.7257 64.5338 92.4776C65.2518 91.8648 66.4393 90.2335 66.6614 89.5553C66.7611 89.2503 66.9063 89.001 66.9841 89.001C67.0618 89.001 67.207 89.2503 67.3067 89.5553C67.5288 90.2335 68.7163 91.8648 69.4343 92.4776C69.725 92.7257 70.3911 93.1289 70.9144 93.3735C71.7459 93.7618 72.0278 93.8085 73.1475 93.7424C74.1931 93.6805 74.6218 93.5618 75.4762 93.097C76.7428 92.408 78.0553 91.0083 78.8345 89.5152L79.405 88.4223L79.6671 88.8395C80.2854 89.8239 81.961 91.4156 82.8457 91.859C83.5932 92.2335 84.0115 92.3267 84.9487 92.3267C85.8387 92.3267 86.3091 92.2308 86.9156 91.926C87.9468 91.4077 89.0397 90.2828 89.8447 88.9111L90.4863 87.8179L91.3105 88.6795C92.8384 90.277 95.1599 91.0965 96.8735 90.6428C98.2714 90.2728 99.2221 89.2587 100.252 87.0388C100.877 85.6915 101.743 82.9569 101.743 82.3305C101.743 82.1535 101.816 82.0085 101.904 82.0085C102.148 82.0085 103.306 83.8243 104.318 85.7942C106.216 89.486 107.091 92.7977 107.091 96.2914C107.091 98.6356 106.751 100.285 105.923 101.959C104.911 104.004 103.196 105.238 100.574 105.804C96.8153 106.616 90.9157 106.148 84.446 104.523C81.1555 103.697 78.2195 102.747 74.8741 101.427C71.1256 99.9471 69.9149 99.679 66.9841 99.679C64.0532 99.679 62.8425 99.9471 59.094 101.427C55.7486 102.747 52.8126 103.697 49.5221 104.523C43.0524 106.148 37.1528 106.616 33.3944 105.804C32.7051 105.655 31.6748 105.311 31.1048 105.04C29.177 104.122 27.8767 102.316 27.1999 99.6149C26.971 98.7012 26.877 97.7448 26.877 96.3262C26.877 93.0615 27.5413 90.2697 29.1359 86.8328C30.0769 84.8043 31.7679 82.0085 32.0538 82.0085C32.1478 82.0085 32.2246 82.1535 32.2246 82.3305Z" fill="#027A3C" stroke="#027A3C" stroke-width="0.5"/>
</svg>
