<svg width="130" height="130" viewBox="0 0 130 130" fill="none" xmlns="http://www.w3.org/2000/svg">
<rect width="130" height="130" rx="9" fill="#ECF5F1"/>
<path d="M37.5003 67C34.0003 57.5 35.0003 49 43.0003 44C52.5005 38 59.5 45 64 45C68.5 45 74.5 42 78 42C104 44 90 72.5 84.5 83.5C79 94.5 81.5 105.5 74.5 107C67.5 108.5 69.5 78.5 64 79C58.5 79.5 60.5 104.5 55 107C49.5 109.5 47.5 91 46 86.5C44.5 82 41.0003 76.5 37.5003 67Z" fill="white"/>
<path fill-rule="evenodd" clip-rule="evenodd" d="M88.9477 23.0754C88.6485 23.1484 88.1745 23.351 87.8942 23.5259C87.6138 23.7006 85.9185 25.4239 84.1265 27.3554C81.8342 29.8261 80.8125 31.0515 80.6794 31.4887C80.4952 32.0942 80.5398 33.424 80.7669 34.1003C80.856 34.3653 80.5295 34.8106 79.226 36.2021C78.3163 37.1732 76.9423 38.6865 76.1726 39.565L74.7731 41.1624L73.2026 41.5372C72.339 41.7434 70.7316 42.2876 69.6306 42.7468C68.5296 43.2059 67.2847 43.6595 66.864 43.755C65.7427 44.0094 63.1571 43.974 62.046 43.689C61.5146 43.5528 60.2549 43.0942 59.2463 42.67C56.549 41.5354 54.4635 41.0704 51.5855 40.9622C49.811 40.8954 48.7906 40.9416 47.6251 41.1417C44.3472 41.7047 41.5823 43.0813 39.4625 45.2056C38.1426 46.5283 37.4195 47.6219 36.5564 49.6001C34.2257 54.9421 34.5105 61.5707 37.4252 69.8311C38.5487 73.0149 39.7606 75.6915 42.1291 80.2193C43.2553 82.3724 44.4324 84.8315 44.7449 85.684C45.4533 87.617 46.3008 90.9336 47.4154 96.1352C48.3707 100.594 49.0255 102.796 49.9143 104.537C50.2476 105.191 50.8998 106.086 51.4052 106.583C52.0732 107.241 52.5366 107.536 53.2134 107.734C53.7139 107.88 54.3443 108 54.6144 108C55.4914 108 56.5683 107.645 57.169 107.157C58.3403 106.206 59.3103 103.704 59.9381 100.013C60.0799 99.1808 60.4669 96.1073 60.7987 93.1833C61.4998 87.0014 61.8956 84.568 62.5125 82.6449C63.0626 80.9299 63.7383 80.088 64.5649 80.088C64.982 80.088 65.2415 80.2191 65.5583 80.5897C66.3808 81.5523 67.1187 84.1053 67.6342 87.7723C67.7746 88.7711 68.1193 91.6326 68.4 94.1314C68.6807 96.6302 69.0289 99.3542 69.1735 100.185C69.9111 104.417 70.9908 106.799 72.53 107.591C73.1983 107.935 74.7009 108.064 75.5169 107.848C76.5825 107.565 77.78 106.682 78.5036 105.646C79.2424 104.588 79.9908 102.838 80.5886 100.77C80.8159 99.9837 81.3623 97.6381 81.803 95.5573C82.8175 90.7662 83.4385 88.3173 84.1934 86.1312C84.804 84.363 85.1038 83.7348 87.8003 78.5746C90.9975 72.456 93.0007 66.7413 93.7779 61.5221C94.1597 58.9587 94.033 54.5165 93.5218 52.5369C92.6539 49.1762 91.3622 46.8856 89.1811 44.8396C87.9466 43.6816 87.3625 43.2778 85.9369 42.5972C84.9806 42.1405 83.5835 41.6078 82.8322 41.4131C82.0662 41.2147 80.6226 41.0156 79.5453 40.9598C78.4889 40.905 77.6261 40.8147 77.6284 40.759C77.6331 40.6328 79.6908 38.3485 81.1804 36.8157L82.3 35.6637L82.9273 35.8489C84.8066 36.4034 85.5479 35.9353 89.4244 31.7463C91.3393 29.6769 92.6647 28.0979 92.8699 27.641C93.5339 26.1625 92.8537 24.2847 91.362 23.4784C90.5508 23.0401 89.6851 22.8957 88.9477 23.0754ZM90.3369 25.0062C91.3906 25.4399 91.5929 26.5024 90.8146 27.5153C89.9156 28.6849 85.0492 33.8093 84.6597 33.9961C84.1138 34.258 83.4027 34.231 82.9686 33.9317C82.467 33.5856 82.1772 32.6733 82.3924 32.1162C82.6178 31.5323 88.4903 25.2426 89.0496 24.986C89.6203 24.7242 89.6527 24.7247 90.3369 25.0062ZM55.2108 43.2531C57.1611 43.7261 59.1355 44.5026 60.3182 45.2621C60.8682 45.6152 61.8944 46.447 62.5987 47.1107C64.0157 48.4459 64.7356 48.8861 65.9351 49.1508C66.5942 49.2963 66.8129 49.2811 67.145 49.0667C67.6054 48.7698 67.6825 48.1263 67.3026 47.7523C67.1664 47.6182 66.7631 47.4557 66.4062 47.3915C65.5998 47.2462 64.3723 46.5583 64.1325 46.1175C63.9625 45.8046 64.0116 45.7862 65.0259 45.7839C66.5162 45.7805 67.9501 45.4138 70.2921 44.4372C71.3956 43.977 72.415 43.6005 72.5574 43.6005C72.7184 43.6005 72.2522 44.3461 71.3222 45.5762C69.5348 47.9398 67.6793 50.6167 66.1779 52.9968L65.0768 54.7426L63.5388 54.6456C62.5507 54.5832 61.4212 54.37 60.379 54.0489C57.9375 53.2968 56.8985 53.1288 54.7444 53.1377C52.5489 53.1466 50.8418 53.5058 49.1753 54.3093C47.928 54.9108 46.6551 56.0395 45.8611 57.2483C45.5167 57.7724 44.9823 58.9452 44.6732 59.8546C44.1992 61.2498 44.0983 61.8266 44.0271 63.5496C43.9366 65.7361 44.1301 67.503 44.6925 69.6288C45.1971 71.5354 45.7547 73.0856 47.1852 76.5569C47.8901 78.2678 48.6496 80.1905 48.8729 80.8298C49.472 82.5451 50.0365 85.6376 50.7281 90.9935C51.4302 96.4318 51.7225 98.0894 52.2025 99.3526C52.5998 100.398 53.5087 101.275 54.1954 101.274C54.9539 101.273 55.7571 100.671 56.1411 99.8159C56.6511 98.6804 56.9216 96.8047 57.2161 92.3625C57.5465 87.3821 57.8887 84.7227 58.5133 82.2839C59.3187 79.1394 60.5988 76.8549 62.2955 75.5341C63.3355 74.7246 64.3103 74.4368 65.1613 74.6878C66.181 74.9886 67.3854 75.8912 68.1724 76.944C70.4194 79.9497 71.3572 83.9697 71.9066 92.951C72.0806 95.7955 72.3356 97.951 72.6173 98.9587C72.774 99.5198 73.1189 100.187 73.4432 100.556C73.9343 101.116 74.0907 101.19 74.7738 101.19C75.7242 101.19 76.2414 100.767 76.7698 99.5576C77.3159 98.3075 77.5534 97.0218 78.312 91.2116C79.0498 85.5596 79.4803 83.0932 80.0407 81.3067C80.2346 80.6879 80.9921 78.742 81.7236 76.9821C82.4552 75.2223 83.2972 73.078 83.5946 72.2168C84.8653 68.5379 85.3699 64.9109 84.9778 62.271C84.5984 59.716 83.4174 57.0881 82.0697 55.8001C81.218 54.9863 79.6025 54.0697 78.346 53.6874C77.7568 53.5081 76.6163 53.2808 75.8114 53.1822C73.9816 52.9584 71.54 53.1967 69.4544 53.8027C68.642 54.0388 67.834 54.2722 67.659 54.3214C67.4472 54.3811 67.9212 53.5564 69.0748 51.8578C70.909 49.157 75.1524 43.5116 75.6602 43.0968C76.1217 42.7194 79.0696 42.6668 81.0303 43.0009C84.0947 43.5228 86.0436 44.4142 87.9765 46.1773C89.8356 47.8734 91.1713 50.3936 91.8224 53.4333C92.0561 54.5244 92.1492 55.6584 92.1541 57.4726C92.1628 60.7261 91.7505 63.3666 90.6579 67.0567C89.603 70.619 87.6287 75.1579 85.1356 79.7517C82.5153 84.5798 81.901 86.3984 80.0907 94.6856C79.4707 97.5232 78.7 100.649 78.3778 101.632C77.7346 103.593 76.8831 105.028 76.0157 105.613C75.7061 105.822 75.0789 106.031 74.6183 106.079C73.254 106.221 72.6198 105.698 71.9831 103.907C71.292 101.962 70.7891 98.9488 70.1126 92.6988C69.3709 85.8469 68.7229 82.5403 67.7539 80.6633C67.1863 79.5642 66.3562 78.6907 65.6184 78.4168C64.2311 77.9017 62.6725 78.4928 61.7791 79.8727C61.1576 80.8325 60.8462 81.5962 60.3884 83.2827C59.9134 85.0329 59.6318 86.9146 58.9292 93.0351C58.0545 100.655 57.5081 103.446 56.5763 105.054C56.0641 105.939 55.5551 106.188 54.4893 106.077C53.1516 105.938 52.4051 105.316 51.5437 103.623C51.1452 102.84 50.6289 101.537 50.3965 100.727C50.1641 99.9169 49.5467 97.2687 49.0245 94.8417C47.9529 89.86 47.3138 87.3833 46.5379 85.2031C46.2442 84.378 45.056 81.8871 43.8973 79.6676C41.4678 75.0137 40.2563 72.343 39.1422 69.1851C37.7865 65.3427 37.1183 62.2706 36.8873 58.8176C36.7552 56.8434 37.0198 54.0936 37.5123 52.3234C37.9608 50.7105 39.1767 48.2665 40.0304 47.2617C41.1102 45.9909 42.4335 44.969 43.9019 44.2723C46.4288 43.0732 48.1643 42.7472 51.5002 42.8449C53.0306 42.8896 54.2777 43.0268 55.2108 43.2531ZM56.5372 55.0525C57.3824 55.1544 58.8991 55.4926 59.9076 55.8038C60.9162 56.1152 62.2403 56.4202 62.8502 56.4818L63.9592 56.5936L63.1806 57.9577C61.7055 60.5425 59.2099 65.718 58.1041 68.486C55.5879 74.7845 54.1312 80.4015 53.5345 86.107C53.4195 87.2045 53.3668 89.4588 53.4093 91.4465C53.4861 95.0475 53.5817 95.4946 54.1942 95.1154C54.4404 94.9629 54.5075 94.5393 54.6064 92.5129C54.9887 84.676 55.8377 79.9349 58.0196 73.4488C59.4652 69.1518 62.5511 62.4655 65.0438 58.2291L65.9838 56.6317L67.6634 56.1929C68.5873 55.9514 69.9579 55.586 70.7092 55.3809C71.7308 55.102 72.5702 55.0044 74.0388 54.9937C76.2113 54.9779 77.5963 55.2482 79.1519 55.992C80.9562 56.8545 82.1578 58.5042 82.8629 61.0876C83.2721 62.5864 83.2715 66.045 82.8618 67.9815C82.4585 69.8878 81.1478 73.6835 79.7685 76.9399C77.9062 81.3364 77.4788 83.1423 76.5076 90.7199C75.855 95.811 75.3808 98.4593 75.0518 98.8496C74.718 99.2457 74.4313 98.8427 74.2293 97.6937C74.1284 97.1199 73.9279 94.9478 73.7838 92.867C73.4589 88.1752 73.2508 86.2246 72.8292 83.9183C72.2167 80.5675 71.1301 77.8135 69.6615 75.8895C68.7504 74.6961 67.4307 73.6519 66.3659 73.2818C65.2992 72.9112 63.6562 72.9556 62.4869 73.3864C61.1107 73.8933 59.3359 75.6664 58.3874 77.4817C56.5886 80.9245 55.8682 84.3872 55.3442 92.1103C55.1997 94.2373 55.0007 96.583 54.9018 97.3228C54.7239 98.6515 54.3942 99.3199 54.0759 98.997C53.7773 98.6944 53.392 96.8189 52.9546 93.5395C51.9989 86.3756 51.6168 83.9603 51.1513 82.1395C50.8843 81.0946 49.9783 78.5598 49.1381 76.5066C47.523 72.5601 46.7859 70.4356 46.2675 68.2337C46.0296 67.2232 45.9523 66.2402 45.9564 64.2823C45.9615 61.8779 45.9984 61.5734 46.4327 60.3494C46.6918 59.6197 47.0971 58.6977 47.3334 58.3006C48.3808 56.5406 50.4323 55.3997 53.2076 55.034C54.6093 54.8494 54.8646 54.8508 56.5372 55.0525Z" fill="#027A3C" stroke="#027A3C" stroke-width="0.5"/>
</svg>
