<svg width="130" height="130" viewBox="0 0 130 130" fill="none" xmlns="http://www.w3.org/2000/svg">
<rect width="130" height="130" rx="9" fill="#ECF5F1"/>
<path d="M24.4334 68.0671C21.9043 61.6213 22.916 56.663 25.9508 51.7047C27.908 47.7381 46.6881 48.2339 55.2869 53.1922C63.8856 58.1505 70.4612 54.6797 77.0367 52.2006C83.6122 49.7214 95.7517 47.2423 101.316 50.7131C106.879 54.1839 106.374 62.613 105.362 65.0921C104.35 67.5713 103.339 70.0504 103.339 74.5129C103.339 78.9754 102.327 78.9754 99.2923 80.4629C96.8644 81.6529 93.5598 80.2976 92.211 79.4712C92.7168 79.967 92.4133 81.2562 87.1529 82.4462C81.8925 83.6362 79.903 81.9504 79.5658 80.9587C79.7344 81.7851 78.5541 83.537 72.4844 83.9337C64.8973 84.4295 64.3915 81.9504 64.3915 82.942C64.3915 83.9337 59.3334 83.9337 54.2753 83.9337H54.2753C49.2172 83.9337 50.2288 80.4629 49.2172 81.9504C48.2055 83.4378 41.63 81.9504 39.6068 81.4545C37.5835 80.9587 35.5603 79.4712 34.0429 80.4629C32.5254 81.4545 26.4557 79.4712 25.9508 77.9837C25.4459 76.4962 26.9624 74.5129 24.4334 68.0671Z" fill="white"/>
<path fill-rule="evenodd" clip-rule="evenodd" d="M63.8929 37.1661C63.6199 37.4668 63.5689 37.7889 63.5689 39.2123C63.5689 40.689 63.6104 40.9317 63.899 41.1417C64.0806 41.274 64.3529 41.3821 64.5042 41.3821C64.6555 41.3821 64.9278 41.274 65.1094 41.1417C65.398 40.9317 65.4395 40.689 65.4395 39.2123C65.4395 37.7889 65.3885 37.4668 65.1155 37.1661C64.9373 36.9697 64.6623 36.8091 64.5042 36.8091C64.3461 36.8091 64.0711 36.9697 63.8929 37.1661ZM63.8929 42.586C63.6199 42.8866 63.5689 43.2087 63.5689 44.6321C63.5689 46.1088 63.6104 46.3515 63.899 46.5616C64.0806 46.6938 64.3529 46.8019 64.5042 46.8019C64.6555 46.8019 64.9278 46.6938 65.1094 46.5616C65.398 46.3515 65.4395 46.1088 65.4395 44.6321C65.4395 43.2087 65.3885 42.8866 65.1155 42.586C64.9373 42.3895 64.6623 42.2289 64.5042 42.2289C64.3461 42.2289 64.0711 42.3895 63.8929 42.586ZM63.8929 48.0058C63.6199 48.3064 63.5689 48.6285 63.5689 50.0519C63.5689 51.5286 63.6104 51.7713 63.899 51.9814C64.0806 52.1136 64.3529 52.2217 64.5042 52.2217C64.6555 52.2217 64.9278 52.1136 65.1094 51.9814C65.398 51.7713 65.4395 51.5286 65.4395 50.0519C65.4395 48.6285 65.3885 48.3064 65.1155 48.0058C64.9373 47.8093 64.6623 47.6487 64.5042 47.6487C64.3461 47.6487 64.0711 47.8093 63.8929 48.0058ZM32.1949 48.5974C30.1781 48.9661 29.0152 49.3009 27.8089 49.8597C26.8005 50.3268 26.14 50.7766 25.4911 51.4387C23.9088 53.053 22.7837 55.2697 22.2399 57.8447C21.9146 59.3852 21.9213 62.8217 22.2529 64.5631C22.595 66.3596 23.2044 68.1927 24.0377 69.9313C24.6897 71.292 24.7128 71.4002 24.7128 73.0909C24.7128 75.1135 24.9554 77.3313 25.3141 78.5862C25.6074 79.6127 26.1854 80.1671 27.6886 80.8639C29.6726 81.7835 34.0945 82.3387 35.725 81.873C36.2081 81.7349 36.3819 81.7857 37.1197 82.2803C38.7063 83.3436 41.3524 83.9948 44.7785 84.1649C46.428 84.2467 47.1616 84.2098 48.0533 83.9996L49.2025 83.7286L49.9732 84.3146C50.3971 84.6369 51.0278 84.9743 51.3747 85.0644C53.0543 85.5003 55.1311 85.6721 58.7225 85.6721H62.5486L63.5264 85.1938L64.5042 84.7157L65.482 85.1938L66.4598 85.6721H70.2859C73.8773 85.6721 75.9541 85.5003 77.6337 85.0644C77.9806 84.9743 78.6113 84.6369 79.0352 84.3146L79.8059 83.7286L80.9551 83.9996C81.8468 84.2098 82.5804 84.2467 84.2299 84.1649C87.6545 83.9948 90.3021 83.3436 91.8867 82.2817C92.6602 81.7632 92.7791 81.7322 93.3676 81.8957C93.7487 82.0014 94.8333 82.0351 96.0483 81.9788C99.0569 81.8394 101.478 81.1091 102.911 79.9083C103.264 79.6121 103.529 79.1653 103.694 78.5862C104.05 77.3417 104.296 75.1182 104.296 73.1432C104.296 71.4724 104.309 71.4148 105.142 69.5549C105.608 68.5152 106.191 66.9146 106.439 65.9982C106.793 64.6849 106.906 63.8072 106.973 61.8578C107.038 59.9475 106.992 59.0647 106.772 57.9833C105.986 54.1208 104.105 51.2897 101.434 49.9498C100.759 49.6112 99.5387 49.1646 98.7226 48.9573C97.4022 48.6218 96.8261 48.5813 93.4975 48.5894C90.4336 48.597 89.3563 48.667 87.5458 48.9761C81.5377 50.0021 76.81 51.3362 70.796 53.7033C69.2528 54.3109 67.4546 54.8984 66.7999 55.0092L65.6095 55.2107L65.4937 54.4623C65.3677 53.6473 64.9569 53.0685 64.5042 53.0685C64.0417 53.0685 63.6201 53.6756 63.5302 54.4713L63.4465 55.2102L62.4026 55.0527C61.8285 54.9662 60.8995 54.7219 60.3382 54.51C59.7768 54.298 58.0934 53.6561 56.5969 53.0833C51.7677 51.2351 46.1099 49.7106 41.1225 48.9139C39.4934 48.6538 33.1222 48.4278 32.1949 48.5974ZM41.4386 50.8544C46.1427 51.6062 51.1639 52.9517 55.4787 54.6166C59.5786 56.1985 61.3058 56.7831 62.2191 56.8983C62.6809 56.9564 63.3839 57.161 63.7815 57.3529L64.5042 57.7016L65.2269 57.3529C65.6243 57.161 66.3275 56.9564 66.7893 56.8983C67.693 56.7843 69.3159 56.2357 73.6018 54.5952C78.0331 52.899 82.8304 51.616 87.6572 50.8363C89.4233 50.5509 90.6995 50.4667 93.4125 50.4564C96.2207 50.4459 97.1548 50.5033 98.2171 50.7514C98.9422 50.9208 100.067 51.3244 100.717 51.648C101.569 52.0725 102.097 52.4825 102.611 53.1183C103.598 54.338 104.555 56.4381 104.9 58.1423C105.126 59.2551 105.17 60.0862 105.098 61.8685C105.01 64.0364 104.693 65.778 104.124 67.2109L103.922 67.719L103.54 66.867C103.061 65.8009 101.838 64.7032 100.809 64.4161C100.353 64.2887 99.5613 64.2359 98.8614 64.2857C97.9742 64.3489 97.3575 64.5235 96.3678 64.9916C95.3749 65.4613 94.7744 65.8999 93.9162 66.7822L92.7794 67.9508L92.5873 67.3118C92.0465 65.5145 90.437 64.4129 88.1646 64.285C86.6332 64.1988 85.1954 64.5199 83.5497 65.3158C82.8033 65.6765 82.0245 66.2659 81.1516 67.1304L79.8589 68.4105L79.3903 67.5189C78.8017 66.3994 77.6857 65.3651 76.4374 64.7821C75.582 64.3827 75.2693 64.3319 73.6868 64.3353C72.2775 64.3382 71.6616 64.4207 70.7637 64.7269C70.1379 64.9401 69.1814 65.403 68.6381 65.7555C67.4911 66.4995 66.1027 67.921 65.5338 68.9335C65.1866 69.5515 65.0972 69.6154 64.8205 69.4433C64.5831 69.2955 64.4268 69.2946 64.1937 69.4396C63.9223 69.6085 63.8157 69.5205 63.3482 68.7421C63.054 68.2523 62.3187 67.3906 61.7142 66.8272C59.8114 65.0545 57.3906 64.1493 54.9017 64.2801C53.9051 64.3324 53.2754 64.4708 52.571 64.7923C51.33 65.3586 50.2101 66.3928 49.6181 67.5189L49.1495 68.4105L47.8568 67.1304C46.9839 66.2659 46.2051 65.6765 45.4587 65.3158C43.813 64.5199 42.3752 64.1988 40.8438 64.285C38.5714 64.4129 36.9619 65.5145 36.4212 67.3118L36.229 67.9508L35.0922 66.7822C34.234 65.8999 33.6335 65.4613 32.6406 64.9916C31.6509 64.5235 31.0342 64.3489 30.147 64.2857C29.4471 64.2359 28.6559 64.2887 28.1991 64.4161C27.17 64.7032 25.947 65.8009 25.4685 66.867L25.0862 67.719L24.8845 67.2109C24.3002 65.7387 23.9911 64.0454 23.9081 61.8605C23.8408 60.0877 23.8872 59.2322 24.11 58.1371C24.455 56.4414 25.3057 54.5329 26.2742 53.2826C27.3329 51.9158 28.9358 51.0944 31.4828 50.6132C33.3327 50.2638 38.5309 50.3898 41.4386 50.8544ZM63.8929 58.8454C63.6199 59.146 63.5689 59.4682 63.5689 60.8915C63.5689 62.3683 63.6104 62.611 63.899 62.821C64.0806 62.9533 64.3529 63.0613 64.5042 63.0613C64.6555 63.0613 64.9278 62.9533 65.1094 62.821C65.398 62.611 65.4395 62.3683 65.4395 60.8915C65.4395 59.4682 65.3885 59.146 65.1155 58.8454C64.9373 58.6489 64.6623 58.4884 64.5042 58.4884C64.3461 58.4884 64.0711 58.6489 63.8929 58.8454ZM63.8929 64.2652C63.6199 64.5658 63.5689 64.888 63.5689 66.3113C63.5689 67.7881 63.6104 68.0308 63.899 68.2408C64.0806 68.3731 64.3529 68.4811 64.5042 68.4811C64.6555 68.4811 64.9278 68.3731 65.1094 68.2408C65.398 68.0308 65.4395 67.7881 65.4395 66.3113C65.4395 64.888 65.3885 64.5658 65.1155 64.2652C64.9373 64.0687 64.6623 63.9082 64.5042 63.9082C64.3461 63.9082 64.0711 64.0687 63.8929 64.2652ZM31.814 66.6118C33.0724 67.2048 34.3239 68.4032 34.9157 69.582C35.3323 70.4118 35.3415 70.5158 35.3779 74.7478C35.3983 77.1232 35.4366 79.2953 35.4629 79.5748L35.5109 80.0829L33.7874 80.131C32.5532 80.1654 31.6287 80.0844 30.5301 79.8456C28.747 79.4579 27.311 78.7908 27.1083 78.2561C26.8124 77.475 26.5835 74.94 26.5862 72.4767C26.5893 69.8102 26.8624 67.9261 27.354 67.1789C27.8237 66.465 28.61 66.1113 29.7292 66.1108C30.5077 66.1103 31.0019 66.2292 31.814 66.6118ZM42.889 66.2897C44.9734 66.7681 46.9645 68.2943 47.8549 70.0957L48.3887 71.1758L48.4116 76.6107L48.4346 82.0454L48.0095 82.1651C47.7756 82.2309 46.513 82.2759 45.2037 82.2652C43.4522 82.2508 42.4018 82.1509 41.2295 81.8872C39.3184 81.4572 37.9104 80.8468 37.6312 80.3271C37.5188 80.1178 37.346 79.063 37.2474 77.9831C37.116 76.5441 37.1228 75.2955 37.2724 73.309C37.4933 70.3784 37.7965 68.6817 38.3029 67.5413C38.7527 66.5283 39.5363 66.1472 41.2075 66.1286C41.7219 66.123 42.4786 66.1953 42.889 66.2897ZM57.2839 66.3711C57.8413 66.5149 58.7074 66.8769 59.2084 67.1756C60.3627 67.8641 61.6368 69.2406 62.181 70.3869C62.9661 72.0409 63.4996 75.5238 63.5363 79.2361C63.5667 82.2969 63.4314 83.1317 62.8427 83.5159C62.4509 83.7714 61.9127 83.809 58.6448 83.809C54.7708 83.809 52.4838 83.5821 51.4455 83.0948C51.1373 82.9502 50.7566 82.5943 50.5991 82.3042C50.3507 81.8462 50.3126 81.1516 50.309 77.0343C50.3051 72.2352 50.4992 69.9201 51.0071 68.7094C51.4722 67.6007 52.5698 66.6379 53.7901 66.2682C54.5179 66.0476 56.2238 66.0979 57.2839 66.3711ZM75.9825 66.5734C76.8734 67.0349 77.5017 67.7107 77.9142 68.6505C78.5293 70.0522 78.6992 71.8438 78.7012 76.9496C78.7031 81.3642 78.6762 81.8211 78.386 82.2986C78.2113 82.5857 77.9117 82.9181 77.7199 83.0374C77.0735 83.4396 74.8102 83.7332 71.5532 83.8375C67.956 83.9528 66.5616 83.8446 66.0209 83.4086C65.4735 82.9671 65.2813 80.6178 65.5211 77.297C65.751 74.1132 66.1998 71.7076 66.7997 70.4446C67.6877 68.5751 69.6526 66.9238 71.6463 66.3716C72.9521 66.01 75.0872 66.1093 75.9825 66.5734ZM89.8139 66.5168C90.8687 67.0645 91.4343 69.081 91.7421 73.3911C91.8739 75.2384 91.8776 76.6017 91.7545 77.9843C91.6583 79.0659 91.4881 80.1208 91.3763 80.3288C91.1071 80.8297 89.6037 81.4753 87.7159 81.9007C86.6094 82.1502 85.5261 82.2512 83.8047 82.2652C82.4954 82.2759 81.2266 82.2293 80.9855 82.1617L80.547 82.0388L80.5808 76.6122L80.6148 71.1856L81.1511 70.1008C82.0233 68.336 83.9986 66.7974 86.049 66.2858C87.0256 66.042 89.1506 66.1725 89.8139 66.5168ZM100.843 66.4412C101.142 66.6228 101.507 66.9548 101.654 67.1789C102.139 67.9159 102.419 69.811 102.422 72.3766C102.424 74.8108 102.187 77.5087 101.904 78.2473C101.697 78.7916 100.274 79.4552 98.4783 79.8456C97.3797 80.0844 96.4552 80.1654 95.221 80.131L93.4975 80.0829L93.5455 79.5748C93.5718 79.2953 93.6101 77.1232 93.6305 74.7478C93.6666 70.5407 93.6785 70.407 94.0854 69.582C94.66 68.4178 95.9233 67.2107 97.1944 66.6118C98.0065 66.2292 98.5007 66.1103 99.2792 66.1108C99.9905 66.1111 100.464 66.2112 100.843 66.4412ZM63.8929 85.9444C63.6199 86.2451 63.5689 86.5672 63.5689 87.9906C63.5689 89.4673 63.6104 89.71 63.899 89.92C64.0806 90.0523 64.3529 90.1604 64.5042 90.1604C64.6555 90.1604 64.9278 90.0523 65.1094 89.92C65.398 89.71 65.4395 89.4673 65.4395 87.9906C65.4395 86.5672 65.3885 86.2451 65.1155 85.9444C64.9373 85.748 64.6623 85.5874 64.5042 85.5874C64.3461 85.5874 64.0711 85.748 63.8929 85.9444ZM63.8929 91.3643C63.6199 91.6649 63.5689 91.987 63.5689 93.4104C63.5689 94.8871 63.6104 95.1298 63.899 95.3398C64.0806 95.4721 64.3529 95.5802 64.5042 95.5802C64.6555 95.5802 64.9278 95.4721 65.1094 95.3398C65.398 95.1298 65.4395 94.8871 65.4395 93.4104C65.4395 91.987 65.3885 91.6649 65.1155 91.3643C64.9373 91.1678 64.6623 91.0072 64.5042 91.0072C64.3461 91.0072 64.0711 91.1678 63.8929 91.3643ZM63.8929 96.7841C63.6199 97.0847 63.5689 97.4068 63.5689 98.8302C63.5689 100.307 63.6104 100.55 63.899 100.76C64.0806 100.892 64.3529 101 64.5042 101C64.6555 101 64.9278 100.892 65.1094 100.76C65.398 100.55 65.4395 100.307 65.4395 98.8302C65.4395 97.4068 65.3885 97.0847 65.1155 96.7841C64.9373 96.5876 64.6623 96.427 64.5042 96.427C64.3461 96.427 64.0711 96.5876 63.8929 96.7841Z" fill="#027A3C" stroke="#027A3C" stroke-width="0.5"/>
<path d="M84.2422 28C84.2422 28 85.5184 29.8766 86.5418 30.9C87.5653 31.9235 89.4835 33.2413 89.4835 33.2413C89.4835 33.2413 87.5653 34.5166 86.5418 35.5401C85.5184 36.5635 84.2422 38.4826 84.2422 38.4826C84.2422 38.4826 82.9252 36.5635 81.9018 35.5401C80.8783 34.5166 79.0009 33.2413 79.0009 33.2413C79.0009 33.2413 80.8783 31.9235 81.9018 30.9C82.9252 29.8766 84.2422 28 84.2422 28Z" fill="white" stroke="#027A3C" stroke-width="2" stroke-linejoin="round"/>
<path d="M96.1211 37.1211C96.1211 37.1211 97.1243 38.5963 97.9288 39.4008C98.7334 40.2053 100.241 41.2413 100.241 41.2413C100.241 41.2413 98.7334 42.2439 97.9288 43.0484C97.1243 43.8529 96.1211 45.3615 96.1211 45.3615C96.1211 45.3615 95.0858 43.8529 94.2813 43.0484C93.4768 42.2439 92.0009 41.2413 92.0009 41.2413C92.0009 41.2413 93.4768 40.2053 94.2813 39.4008C95.0858 38.5963 96.1211 37.1211 96.1211 37.1211Z" fill="white" stroke="#027A3C" stroke-width="2" stroke-linejoin="round"/>
</svg>
