<svg width="130" height="130" viewBox="0 0 130 130" fill="none" xmlns="http://www.w3.org/2000/svg">
<rect width="130" height="130" rx="9" fill="#ECF5F1"/>
<path fill-rule="evenodd" clip-rule="evenodd" d="M33 62.5C40 63.5 43.5 68 44.5 71.5C44.63 71.9548 44.803 72.7061 45.0243 73.6669C46.5056 80.099 50.1489 95.9181 57.5 95C60.6949 95.2904 61.6965 93.3876 62.5629 91.7415C63.188 90.5539 63.7427 89.5 65 89.5C66.2426 89.5 66.7132 90.4437 67.2645 91.5492C68.0442 93.1127 68.9853 95 72.5 95C78.5 95 82 85 85 71.5C87.5138 60.1881 100.208 61.1631 104.551 64.7179C105.481 65.6771 106 66.9359 106 68.5629V100.001C106 103.867 102.866 107 99 107H31.0081C27.1418 107 24.0076 103.869 24.0077 100.002C24.0081 90.7139 24.0074 74.7641 24 68.5629C23.9947 64.143 27.5253 62.4782 32.6584 62.1492L33 62.5Z" fill="white"/>
<path d="M47.6595 58.3148C46.27 53.103 46.8958 48.1859 51.3035 45.4184C57.2841 41.6239 62.2211 46.6438 65.0539 46.6438C67.8868 46.6438 71.0612 44.1601 73.2646 44.1601C83.2555 44.9321 83.9996 52.0156 82.2755 59L84.5 52.5L86 24H91.5L89 54.5C87.9118 58.1667 84.4883 66.1 79.5 68.5C79.13 68.678 78.8059 68.8243 78.5239 68.9408C78.2379 69.539 77.9665 70.0906 77.7203 70.5853C74.2579 77.5419 76.0706 84.9052 71.6639 85.8538C67.2572 86.8024 68.5163 67.8299 65.0539 68.1461C61.5915 68.4623 62.8506 84.2727 59.3882 85.8538C55.9258 87.4348 54.6668 75.7351 53.7225 72.8892C53.3842 71.8697 52.8844 70.769 52.2809 69.5C48.1875 66.8333 40.1006 58.9 40.5006 48.5C39.7001 38.5 38.5 28 38 24H44L45.5 52.5C45.8711 53.91 46.6056 56.0866 47.6595 58.3148Z" fill="white"/>
<path fill-rule="evenodd" clip-rule="evenodd" d="M37.6495 23.3195C37.3874 23.6118 37.4021 24.0905 37.8799 30.7965C38.9678 46.0685 39.6221 52.6501 40.3132 55.2737C41.1314 58.3789 42.3762 60.9284 44.3982 63.6397C45.8193 65.5453 48.1206 67.8363 49.6306 68.8486C50.8729 69.6813 50.9442 69.7656 51.5896 71.1677C52.4289 72.9908 52.8925 74.6014 53.7772 78.7679C54.8463 83.8026 55.5621 85.6221 56.8698 86.6286C58.0342 87.525 59.7192 87.5222 60.65 86.6222C61.2764 86.0166 61.9013 84.5548 62.232 82.9222C62.381 82.1869 62.6894 79.9438 62.9173 77.9376C63.1453 75.9315 63.4532 73.6058 63.6017 72.7694C64.221 69.2791 65.0707 68.375 65.8234 70.4053C66.2562 71.5729 66.5698 73.4512 67.0812 77.9376C67.3099 79.9438 67.619 82.1869 67.768 82.9222C68.0987 84.5548 68.7236 86.0166 69.35 86.6222C70.2753 87.5169 71.9638 87.5154 73.1384 86.619C73.8709 86.0599 74.6171 84.8124 75.1053 83.3301C75.3348 82.6331 75.8379 80.5801 76.2232 78.7679C77.1112 74.5918 77.5731 72.9864 78.4104 71.1677C79.0566 69.7639 79.1256 69.6823 80.3709 68.8511C82.7376 67.2712 85.7058 63.9019 87.4878 60.7724C89.1013 57.9391 89.9417 55.1027 90.4418 50.8031C90.8691 47.1303 91.48 39.8777 92.1268 30.8C92.6066 24.0652 92.6202 23.6201 92.3538 23.323C92.0082 22.9378 91.4012 22.9145 91.0461 23.2727C90.9014 23.4188 90.7831 23.5777 90.7831 23.6258C90.7831 23.674 90.5547 26.9193 90.2756 30.8374C89.4177 42.8793 88.7253 50.6074 88.2593 53.3377C87.5404 57.5513 85.3294 61.6526 81.8551 65.2182C80.3165 66.7971 78.7291 67.9402 77.2093 68.5634C76.2461 68.9584 76.1585 68.9675 75.7716 68.7117C75.2303 68.3538 75.3125 67.7984 75.9662 67.3975C78.143 66.0619 79.2199 65.2689 80.1494 64.3169C81.9765 62.4456 83.5971 59.6758 84.5019 56.8785C85.3884 54.1374 85.5129 52.6918 86.0078 39.3975C86.6147 23.0892 86.6003 23.7984 86.334 23.3874C86.0073 22.8835 85.1764 22.8677 84.9152 23.3604C84.7985 23.5802 84.6397 26.2741 84.4938 30.4994C84.3649 34.2317 84.1851 39.1102 84.0939 41.3407C84.0028 43.5711 83.8769 46.7075 83.8141 48.3107C83.7515 49.9138 83.6447 51.2255 83.5769 51.2255C83.5092 51.2255 83.4078 50.9783 83.3513 50.6763C83.1983 49.8546 82.306 48.0453 81.5648 47.0534C80.7459 45.9576 79.1082 44.7647 77.6762 44.2206C77.0738 43.9918 75.9397 43.711 75.1557 43.5966C74.0264 43.4319 73.4063 43.432 72.1695 43.5973C71.311 43.712 69.9683 44.0385 69.1856 44.3227C68.4029 44.6071 67.3481 44.9918 66.8416 45.1778C66.1184 45.4436 65.6514 45.4987 64.6652 45.4347C63.7082 45.3725 63.0114 45.1893 61.7353 44.6645C60.0326 43.9641 57.7337 43.4528 56.2868 43.4528C55.1988 43.4528 53.2252 43.8511 52.112 44.2951C50.8213 44.8102 49.2064 46.0217 48.4352 47.0534C47.6941 48.0453 46.8017 49.8546 46.6487 50.6763C46.5922 50.9783 46.491 51.2255 46.4231 51.2255C46.3555 51.2255 46.251 50.0278 46.1911 48.5642C45.9376 42.3712 45.7287 36.8734 45.504 30.4925C45.3585 26.3615 45.1928 23.5642 45.0811 23.3535C44.8233 22.8673 43.9897 22.8873 43.6679 23.3874C43.4537 23.7203 43.4527 24.5978 43.6595 30.442C44.1017 42.9361 44.4126 50.2928 44.5783 52.1826C45.1295 58.4626 48.3596 64.1238 52.8188 66.6251C53.9925 67.2834 54.6198 67.8305 54.6198 68.1955C54.6198 68.3371 54.4368 68.5738 54.2131 68.7217C53.8309 68.9746 53.7365 68.9608 52.628 68.4909C51.9797 68.2159 50.9762 67.6484 50.3978 67.2298C48.3458 65.7446 45.3952 62.3121 43.9992 59.7866C43.2406 58.4142 42.4588 56.4178 42.0487 54.8074C41.4425 52.4252 40.7161 44.9408 39.7206 30.8178C39.4435 26.889 39.217 23.6437 39.217 23.6064C39.217 23.5689 39.0986 23.4188 38.9539 23.2727C38.6 22.9156 37.9921 22.9374 37.6495 23.3195ZM59.38 45.751C60.9976 46.1711 62.3685 46.9184 63.3993 47.9422C64.8122 49.3457 66.2866 49.9028 66.9135 49.2703C67.0581 49.1242 67.1765 48.845 67.1765 48.6499C67.1765 48.1669 66.7049 47.6771 66.2396 47.6771C65.5014 47.6771 65.6757 47.3659 66.5158 47.184C66.9824 47.083 67.8947 46.7726 68.5433 46.494C70.4282 45.6846 71.6112 45.4294 73.5385 45.4168C74.9054 45.408 75.5617 45.4886 76.4885 45.779C77.8649 46.2104 79.4969 47.2481 80.142 48.1017C80.8865 49.087 81.5854 50.7941 81.8497 52.274C82.2654 54.6009 81.8954 57.2877 80.8465 59.559C79.839 61.7403 78.0464 63.7804 75.8147 65.2853C74.3579 66.2675 73.8916 66.7511 73.6969 67.4809C73.4627 68.3586 73.7296 69.2693 74.4143 69.9297C74.9643 70.4601 76.1227 70.9051 76.4393 70.7076C76.5459 70.6412 76.5632 70.7221 76.486 70.9252C75.9025 72.4588 75.1672 74.9902 74.7972 76.7402C73.3848 83.4183 72.8411 84.9161 71.692 85.2949C71.3739 85.3999 70.9624 85.4318 70.7776 85.3661C70.5926 85.3002 70.3123 84.9862 70.1546 84.6684C69.7088 83.7696 69.3799 81.915 68.8475 77.2985C68.3121 72.655 68.062 71.2362 67.5244 69.7958C67.1214 68.7158 66.1937 67.6845 65.4835 67.5271C63.7917 67.1521 62.5595 68.6458 61.8829 71.8914C61.7512 72.5237 61.4224 74.9569 61.1525 77.2985C60.4557 83.3409 60.0577 85.0447 59.2748 85.337C58.8656 85.4898 58.0834 85.3265 57.7049 85.0097C57.578 84.9033 57.2833 84.4094 57.0503 83.9121C56.6346 83.0255 56.101 80.9507 55.2055 76.7402C54.8331 74.9897 54.0948 72.4517 53.514 70.9252C53.4368 70.7221 53.4541 70.6412 53.5607 70.7076C53.8773 70.9051 55.0357 70.4601 55.5857 69.9297C56.2704 69.2693 56.5373 68.3586 56.3031 67.4809C56.1057 66.7407 55.6374 66.2618 54.1175 65.2463C53.519 64.8463 52.4576 63.9381 51.7586 63.2277C49.5752 61.009 48.4163 58.5726 48.0637 55.4593C47.9137 54.1349 47.9276 53.5764 48.1409 52.3522C48.6206 49.6002 50.0334 47.3855 51.9275 46.4167C52.7206 46.0112 54.1254 45.5604 55.0384 45.4186C55.885 45.287 58.3078 45.4725 59.38 45.751ZM31.3324 61.5399C29.6009 61.7322 27.4105 62.3146 26.4602 62.8354C25.3283 63.4557 24.2112 64.6586 23.5956 65.9206L23.0607 67.0171L23.0157 84.2441C22.9756 99.6063 22.9998 101.573 23.2382 102.412C23.945 104.9 25.8943 106.909 28.3497 107.68C29.3365 107.99 30.5001 108 65 108C99.4999 108 100.663 107.99 101.65 107.68C104.106 106.909 106.055 104.9 106.762 102.412C107 101.573 107.024 99.6063 106.984 84.2441L106.939 67.0171L106.404 65.9206C105.789 64.6586 104.672 63.4557 103.54 62.8354C102.523 62.2779 100.432 61.7453 98.445 61.5373C96.5119 61.3351 94.4873 61.5397 92.6711 62.1211C88.2769 63.5278 84.8782 67.5853 83.5902 72.9629C83.3262 74.0646 82.7931 76.3347 82.4052 78.0075C80.3235 86.988 77.675 92.3106 74.5531 93.7881C73.7997 94.1447 73.3828 94.227 72.3666 94.2193C70.3373 94.2041 69.5206 93.621 68.0794 91.1584C67.5807 90.3061 66.9451 89.4156 66.6674 89.1798C66.08 88.681 65.248 88.4838 64.4046 88.6433C63.6379 88.7886 62.6934 89.7384 61.9882 91.0739C61.2705 92.433 60.4327 93.398 59.5827 93.8444C59.06 94.119 58.5795 94.2112 57.6334 94.2188C56.6165 94.2268 56.2008 94.145 55.4469 93.7881C52.325 92.3106 49.6765 86.988 47.5948 78.0075C46.1837 71.9208 45.9462 71.0435 45.3645 69.773C44.5937 68.0894 43.7218 66.7783 42.4869 65.4458C40.2243 63.0047 37.422 61.717 33.8594 61.4816C33.1688 61.4358 32.0317 61.4622 31.3324 61.5399ZM36.1196 63.6598C36.6721 63.7918 37.6892 64.1845 38.3798 64.5327C40.0182 65.3586 42.0179 67.3508 43.0394 69.1745C43.9828 70.8593 44.4479 72.2412 45.0767 75.2276C46.6877 82.8802 48.5367 88.2744 50.6434 91.4681C51.746 93.1394 53.3854 94.7807 54.5411 95.3702C55.6858 95.954 57.1171 96.2264 58.307 96.087C59.5757 95.9385 61.0587 95.2122 61.9027 94.3265C62.271 93.9399 62.9876 92.9233 63.4952 92.0675C64.3759 90.5822 64.4443 90.5114 65 90.5114C65.5557 90.5114 65.6242 90.5822 66.5048 92.0675C67.0124 92.9233 67.729 93.9399 68.0973 94.3265C68.9413 95.2122 70.4243 95.9385 71.693 96.087C72.8829 96.2264 74.3142 95.954 75.4589 95.3702C76.6146 94.7807 78.254 93.1394 79.3566 91.4681C81.4695 88.2649 83.3147 82.8825 84.9241 75.2276C85.5516 72.2424 86.0167 70.8602 86.9606 69.1745C87.9827 67.3496 89.9821 65.3583 91.6202 64.5335C93.4156 63.6296 94.5457 63.382 96.894 63.3781C100.159 63.3727 102.592 64.0467 103.797 65.2907C104.18 65.6866 104.647 66.3527 104.834 66.7709C105.168 67.5188 105.174 67.8102 105.178 84.5488C105.181 101.306 105.176 101.581 104.837 102.494C104.383 103.72 103.23 104.991 102.034 105.584L101.08 106.057H65H28.9205L27.9657 105.584C26.7703 104.991 25.6171 103.72 25.1625 102.494C24.824 101.581 24.8186 101.303 24.8203 84.5488L24.822 67.5313L25.2188 66.6864C25.6804 65.7038 26.6611 64.6959 27.4974 64.3445C29.857 63.3531 33.5934 63.0562 36.1196 63.6598Z" fill="#027A3C" stroke="#027A3C" stroke-width="0.5"/>
</svg>
