<svg width="130" height="130" viewBox="0 0 130 130" fill="none" xmlns="http://www.w3.org/2000/svg">
<rect width="130" height="130" rx="9" fill="#ECF5F1"/>
<rect x="97.0703" y="74" width="4.44941" height="13.8662" rx="2" transform="rotate(13.6614 97.0703 74)" fill="white"/>
<rect x="86.707" y="45.0635" width="4.44941" height="13.8662" rx="2" transform="rotate(9.16178 86.707 45.0635)" fill="white"/>
<rect x="61.5273" y="32" width="4.44941" height="13.8662" rx="2" transform="rotate(32.8819 61.5273 32)" fill="white"/>
<rect x="65" y="34.4148" width="4.44941" height="13.8662" rx="2" transform="rotate(-18.5401 65 34.4148)" fill="white"/>
<rect x="37.8555" y="43.8439" width="5.21254" height="14.7544" rx="2" transform="rotate(-9.31657 37.8555 43.8439)" fill="white"/>
<rect x="27.332" y="75.5269" width="4.91152" height="13.6744" rx="2" transform="rotate(-18.1125 27.332 75.5269)" fill="white"/>
<rect x="26.9648" y="64" width="4.91152" height="6.34531" rx="2" transform="rotate(18.0349 26.9648 64)" fill="white"/>
<rect x="94.3438" y="35.6624" width="5.35519" height="6.2079" rx="2" transform="rotate(96.5331 94.3438 35.6624)" fill="white"/>
<path d="M49.0003 101.5C47.0003 104.5 56.0003 107 64.5003 107H68C80 105.5 80 103 80 101.5C80 100 72 96 70 95.5C68 95 68.5 94.5 68 92C71.2 91.6 75.3333 86.5 77 84C78 83.8333 80.3 83 81.5 81C82.7 79 81.3333 76.8333 80.5 76L81.5 72C82.3333 72.1667 84 71.6 84 68C84 63.5 78 51 64.5003 51C51.0006 51 45.4994 63.5 44.4994 67.5C43.6994 70.7 45.8327 71.8333 46.9994 72C47.4994 73.3333 48.2994 76.1 47.4995 76.5C44.9995 81 49.4995 83 51.9995 83.5C53.5995 88.3 58.3328 91.1667 60.4995 92L59.9995 94.5C56.9998 95.8333 50.6003 99.1 49.0003 101.5Z" fill="white"/>
<path fill-rule="evenodd" clip-rule="evenodd" d="M64.0142 23.3817C63.3962 24.0524 62.4464 25.9721 62.4464 26.5509C62.4464 27.3312 62.8434 28.0795 63.7101 28.9324L64.4565 29.6673L64.0563 29.983C63.8362 30.1567 63.534 30.6674 63.3848 31.118C63.1147 31.9338 63.1103 31.9372 62.346 31.9489C61.8294 31.9567 61.3748 32.096 60.9553 32.375C60.5181 32.6659 59.4318 34.1165 57.3123 37.2397C55.6514 39.6874 54.2176 41.9617 54.1261 42.2941C53.7604 43.6222 54.7688 45.325 56.1705 45.746C56.9806 45.9896 57.8261 45.8475 58.5796 45.3411C58.9389 45.0997 60.1924 43.4301 61.9835 40.8074C63.5428 38.524 64.8697 36.6701 64.9319 36.6877C64.9943 36.7052 65.7734 38.8484 66.6634 41.4503C67.5535 44.0522 68.4109 46.3766 68.5689 46.6154C68.9306 47.1625 70.1562 47.7671 70.9033 47.7671C71.2167 47.7671 71.8026 47.6071 72.2053 47.4115C73.1452 46.9552 73.7786 45.926 73.7786 44.8554C73.7786 44.3346 73.2411 42.5161 72.0779 39.1025C70.6748 34.9846 70.2836 34.0141 69.8416 33.5555C69.5471 33.2498 69.026 32.9155 68.6839 32.8127C68.1895 32.6641 68.0406 32.5212 67.9601 32.1173C67.9045 31.8378 67.8588 31.3989 67.8588 31.1421C67.8588 30.8854 67.7447 30.5803 67.6051 30.4641C67.4656 30.3479 67.3514 30.205 67.3516 30.1465C67.3518 30.0878 67.7132 29.8359 68.155 29.5863C69.2079 28.9919 69.8166 28.3239 70.0309 27.528C70.1697 27.0124 70.1368 26.6209 69.8673 25.5892C69.6816 24.8781 69.4582 24.1625 69.3709 23.999C69.013 23.3281 67.9476 23.4857 67.777 24.2348C67.7298 24.4419 67.8345 25.1459 68.0097 25.799C68.2057 26.5302 68.273 27.0913 68.1847 27.2594C68.1061 27.4096 67.5901 27.8021 67.0385 28.1317L66.0354 28.731L65.1711 27.8535C64.6958 27.3707 64.307 26.833 64.307 26.6582C64.307 26.4835 64.5733 25.8628 64.8989 25.2789C65.2245 24.6948 65.4909 24.0696 65.4909 23.8894C65.4909 23.5109 64.9899 23 64.6192 23C64.4798 23 64.2077 23.1717 64.0142 23.3817ZM66.0191 31.6641C66.2432 32.4688 66.1702 33.0687 65.7998 33.4643C65.5975 33.68 65.3783 33.8568 65.3128 33.8568C65.2474 33.8568 65.0975 33.6239 64.9799 33.3391C64.8081 32.9233 64.8078 32.6812 64.9781 32.1092C65.2891 31.0641 65.792 30.849 66.0191 31.6641ZM39.0753 33.2207C38.4537 33.7196 37.2451 35.4321 37.0797 36.048C36.8512 36.8996 37.1299 37.7736 37.958 38.8009C38.2854 39.2072 38.6345 39.6967 38.7337 39.8889C38.8326 40.081 39.032 40.9176 39.1765 41.748L39.4393 43.2578L38.7918 43.9007C37.6407 45.0437 37.638 45.1509 38.6068 51.2674C39.3727 56.1021 39.5112 56.743 39.9186 57.3341C40.49 58.1632 41.3375 58.6239 42.2909 58.6239C43.8661 58.6239 45.0331 57.5635 45.1519 56.0247C45.1935 55.4839 44.9212 53.2883 44.4432 50.3116C44.0161 47.6526 43.5872 45.2327 43.4901 44.9341C43.2878 44.3131 42.3412 43.4111 41.7301 43.2573C41.5026 43.1999 41.2814 43.0271 41.2384 42.8732C41.1954 42.7192 41.071 42.0206 40.9617 41.3209C40.7164 39.751 40.3557 38.895 39.4604 37.7593C39.0792 37.2755 38.7673 36.7773 38.7673 36.6518C38.7673 36.5264 39.1479 35.9483 39.613 35.3669C40.0781 34.7857 40.4587 34.1437 40.4587 33.9401C40.4587 33.5275 39.9744 33.0086 39.5897 33.0086C39.452 33.0086 39.2206 33.1041 39.0753 33.2207ZM63.1956 34.1233C63.7973 34.727 63.5507 35.2794 60.9805 39.0874C57.6406 44.0356 57.6409 44.0351 56.9392 44.0351C56.5136 44.0351 56.2938 43.9255 56.0881 43.6106C55.9355 43.3772 55.8466 43.0147 55.8904 42.8048C55.9775 42.3874 61.4756 34.211 61.8144 33.9952C62.1652 33.7718 62.9143 33.8414 63.1956 34.1233ZM53.7807 34.6344C52.3366 35.1008 51.963 35.4767 52.2705 36.1537C52.3674 36.3669 52.6052 36.592 52.7987 36.6536C52.9924 36.7152 53.5106 36.6497 53.9507 36.5081C54.3906 36.3664 55.0745 36.1669 55.4701 36.0648C55.9098 35.9513 56.2953 35.7169 56.4621 35.4617C56.7132 35.0772 56.7129 35.0107 56.4577 34.6202C56.1004 34.0734 55.5081 34.0767 53.7807 34.6344ZM73.1391 34.4605C72.7095 34.7623 72.6464 35.4112 73.0112 35.7771C73.2299 35.9964 74.6693 36.5013 76.0264 36.8346C76.9252 37.0553 77.5468 35.9493 76.8654 35.342C76.6172 35.1208 75.9255 34.8811 73.7734 34.2704C73.6309 34.2298 73.3456 34.3155 73.1391 34.4605ZM68.5694 34.8322C68.7099 34.9956 69.569 37.3602 70.4782 40.0869C72.0769 44.881 72.1223 45.0588 71.8535 45.4702C71.7006 45.7043 71.3852 45.9437 71.1524 46.0022C70.2778 46.2224 70.1075 45.9021 68.3454 40.7261C67.4267 38.0267 66.6749 35.6992 66.6749 35.5539C66.6749 35.4083 66.7934 35.1198 66.9382 34.9125C67.2653 34.4441 68.1957 34.3983 68.5694 34.8322ZM88.5449 35.2064C88.2477 35.3883 87.8711 35.7506 87.7082 36.0115C87.5453 36.2726 87.3963 36.5104 87.3774 36.5403C87.3583 36.57 86.9031 36.5128 86.3659 36.4132C85.5576 36.2635 85.3212 36.2767 84.9963 36.4903C84.5423 36.7885 84.4774 37.4382 84.8625 37.8245C85.0051 37.9675 85.4046 38.1322 85.7504 38.1907C86.8588 38.378 86.9601 38.444 87.1333 39.0893C87.34 39.8588 88.1907 40.702 89.0322 40.9711L89.6556 41.1702L89.4106 41.9665C89.2758 42.4045 89.084 43.0771 88.9842 43.4612C88.8259 44.0712 88.7186 44.185 88.138 44.3594C87.2855 44.6156 86.3647 45.4273 86.1386 46.1216C86.0415 46.4202 85.5734 48.9164 85.0982 51.6688C84.5705 54.727 84.2653 56.953 84.3135 57.393C84.477 58.8851 86.0865 60.1376 87.5438 59.9069C88.4793 59.7586 89.3925 59.1264 89.7439 58.3839C89.9026 58.0485 90.4487 55.3643 90.9575 52.4191C91.983 46.4839 91.9852 46.2475 91.0263 45.2179L90.5194 44.6737L90.9703 43.1669L91.4211 41.6601H91.9953C92.7424 41.6601 93.4509 41.2832 93.904 40.6449C94.1158 40.3466 94.3769 39.5344 94.5302 38.6972C94.7911 37.2716 94.7901 37.2553 94.3918 36.456C94.0953 35.8612 93.7958 35.5494 93.2451 35.2628C92.612 34.9332 92.2421 34.8748 90.7926 34.8753C89.3989 34.8758 88.9862 34.9365 88.5449 35.2064ZM48.8819 36.5467C47.5538 37.2117 47.3008 37.4038 47.2573 37.7795C47.1959 38.31 47.6108 38.7812 48.1241 38.7639C48.3269 38.7573 49.1396 38.4328 49.9303 38.043C51.175 37.4295 51.3753 37.2704 51.4225 36.8577C51.4837 36.3221 51.2604 35.9703 50.7791 35.8441C50.5918 35.7949 49.7913 36.0914 48.8819 36.5467ZM78.0814 36.4779C77.607 37.2043 77.8901 37.5456 79.6449 38.3624C80.9021 38.9476 81.3216 39.0733 81.5707 38.9395C82.0726 38.6703 82.2798 38.1585 82.0567 37.7403C81.8537 37.36 79.2456 36.0621 78.6844 36.0621C78.5023 36.0621 78.2308 36.2492 78.0814 36.4779ZM92.6328 37.0146C92.845 37.2277 92.8799 37.4633 92.7889 38.0716C92.5738 39.5103 92.4806 39.7052 91.9789 39.7643C91.2792 39.8465 89.2086 39.1654 89.0063 38.7865C88.8308 38.4574 88.929 37.569 89.1998 37.0375C89.3267 36.7885 89.5931 36.7406 90.8553 36.7406C92.0146 36.7406 92.4222 36.8034 92.6328 37.0146ZM44.0741 39.188C43.3201 39.6944 42.6551 40.2343 42.5964 40.3879C42.4613 40.7409 42.7322 41.2583 43.1775 41.4973C43.4664 41.6523 43.7403 41.5421 44.9073 40.8014C46.3369 39.894 46.7167 39.551 46.7167 39.168C46.7167 38.8464 46.0904 38.2674 45.7427 38.2674C45.5791 38.2674 44.8282 38.6816 44.0741 39.188ZM82.9204 38.8509C82.8093 38.9851 82.743 39.3096 82.773 39.5719C82.8169 39.9573 83.107 40.2386 84.2871 41.0408C85.5482 41.8981 85.7949 42.0072 86.1014 41.8427C86.6097 41.5699 86.851 41.051 86.6474 40.6695C86.3905 40.1878 84.008 38.6067 83.5393 38.6067C83.3101 38.6067 83.0316 38.7166 82.9204 38.8509ZM41.4554 45.1801C41.682 45.3682 41.8485 45.7565 41.9095 46.2403C42.0005 46.9589 41.9757 47.0207 41.4862 47.2926C41.0948 47.5101 40.9661 47.7011 40.9661 48.0645C40.9661 48.674 41.2423 48.9545 41.8424 48.9545C42.1915 48.9545 42.3352 49.0529 42.4 49.3362C42.616 50.2792 43.334 55.1341 43.334 55.6505C43.334 55.9664 43.2144 56.3446 43.0683 56.4914C42.7368 56.8237 41.7516 56.8395 41.4843 56.5165C41.3746 56.3838 40.9093 53.9348 40.4504 51.0742C39.784 46.9199 39.6549 45.799 39.809 45.5053C39.9151 45.3031 40.0857 45.0816 40.1881 45.013C40.5109 44.7967 41.0847 44.8724 41.4554 45.1801ZM89.7666 46.478C90.0142 46.8572 89.9721 47.2432 89.1611 52.0336C88.6817 54.8652 88.1814 57.3536 88.0493 57.5637C87.5846 58.3023 86.13 57.8983 86.1225 57.0285C86.1208 56.833 86.3632 55.2418 86.6611 53.4924L87.2026 50.3116H87.6789C88.1912 50.3116 88.8318 49.7932 88.8318 49.3786C88.8318 49.0227 88.2183 48.4456 87.8401 48.4456C87.5523 48.4456 87.5387 48.3683 87.685 47.555C87.7731 47.0653 87.9648 46.5309 88.1111 46.3676C88.263 46.1979 88.6175 46.0707 88.9387 46.0707C89.3451 46.0707 89.5741 46.1833 89.7666 46.478ZM34.6749 48.7425C33.7499 50.0446 33.3549 50.7536 33.3549 51.1112C33.3549 51.4957 33.8529 52.008 34.2267 52.008C34.5353 52.008 34.9423 51.5636 35.8649 50.2195C36.8395 48.7993 36.7791 47.9367 35.7049 47.9367C35.3519 47.9367 35.1162 48.1211 34.6749 48.7425ZM92.5942 48.1327C92.215 48.513 92.372 49.1771 93.0872 50.2195C94.0292 51.5917 94.4173 52.008 94.7548 52.008C95.1282 52.008 95.5972 51.4738 95.5972 51.0486C95.5972 50.8621 95.1918 50.1049 94.6963 49.3656C93.9526 48.256 93.709 48.0129 93.3 47.9715C93.0277 47.944 92.7101 48.0165 92.5942 48.1327ZM61.8545 49.7449C60.6429 49.9374 58.533 50.5541 57.2032 51.1044C55.3156 51.8855 53.4734 52.9948 51.7401 54.394C47.2573 58.0123 44.1508 63.3809 43.8886 67.9628C43.8076 69.3803 43.8417 69.687 44.1621 70.4132C44.6555 71.5318 45.2427 72.2731 45.8283 72.5164C46.2716 72.7006 46.3462 72.8624 46.688 74.383L47.0625 76.048L46.5346 77.0477C46.0542 77.9575 46.0136 78.1541 46.0831 79.2349C46.1703 80.5845 46.6007 81.6386 47.4907 82.6816C48.2337 83.5521 49.9056 84.4088 50.8619 84.4088C51.5312 84.4088 51.588 84.4483 51.892 85.1259C52.3404 86.125 53.3875 87.7203 54.2941 88.7851C55.2426 89.899 57.3343 91.4961 58.7787 92.2094L59.868 92.7472L59.7316 93.3535C59.6565 93.687 59.4566 94.0892 59.2871 94.2474C59.1178 94.4055 58.4464 94.7044 57.7952 94.9114C55.24 95.7236 50.8624 98.1703 49.088 99.778C48.7021 100.128 48.277 100.626 48.1434 100.885C48.01 101.144 47.901 101.722 47.9014 102.17C47.9026 103.728 48.8007 104.592 51.6557 105.781C53.7795 106.665 56.5791 107.392 59.2083 107.741C61.8068 108.086 67.1454 108.086 69.7438 107.741C72.3731 107.392 75.1726 106.665 77.2965 105.781C80.173 104.583 81.0503 103.732 81.0503 102.136C81.0503 101.241 80.6653 100.406 79.981 99.8168C79.7791 99.6429 78.8204 98.9613 77.8506 98.3023C75.8862 96.9674 72.9573 95.4836 71.157 94.9114C70.5058 94.7044 69.8343 94.4055 69.665 94.2474C69.4956 94.0892 69.2956 93.687 69.2205 93.3535L69.0842 92.7472L70.1735 92.2094C71.6179 91.4961 73.7096 89.899 74.6581 88.7851C75.5647 87.7203 76.6118 86.125 77.0602 85.1259C77.3641 84.4483 77.421 84.4088 78.0902 84.4088C79.0465 84.4088 80.7185 83.5521 81.4615 82.6816C82.3515 81.6386 82.7819 80.5845 82.869 79.2349C82.9389 78.151 82.8988 77.9588 82.4097 77.0325L81.8738 76.0175L82.2601 74.3661C82.6101 72.8706 82.6919 72.6958 83.1278 72.5148C83.7096 72.2731 84.2977 71.5296 84.7901 70.4132C85.1101 69.6877 85.1448 69.3791 85.0646 67.9628C84.9071 65.1763 83.6491 61.9535 81.5897 59.0614C80.3222 57.2814 78.0963 55.0206 76.3224 53.7115C74.4217 52.3088 71.2544 50.7656 69.1273 50.2058C67.7337 49.839 66.9895 49.7522 64.8989 49.7125C63.5036 49.686 62.1335 49.7006 61.8545 49.7449ZM67.698 51.7653C71.27 52.4448 74.567 54.223 77.5441 57.0756C80.8138 60.2088 82.9903 64.3931 83.2056 67.9609C83.2814 69.2144 83.2443 69.5058 82.9314 70.1211C82.6948 70.5862 82.4198 70.87 82.1368 70.9413C81.1599 71.1872 79.3243 70.628 78.6555 69.8804C78.5006 69.7072 78.2447 69.2403 78.0869 68.843C77.8962 68.363 77.6698 68.0878 77.4118 68.0228C76.8197 67.8737 76.3442 68.2222 76.2181 68.8973C76.1563 69.2274 75.9953 69.6081 75.8603 69.7435C75.5713 70.0335 73.8474 70.0777 72.9185 69.8188C72.1108 69.5937 71.114 68.5665 70.8737 67.7112C70.7671 67.3316 70.5415 66.872 70.3724 66.69C70.1222 66.4209 69.9774 66.3896 69.5962 66.5222C69.2735 66.6345 69.0753 66.8628 68.9599 67.2547C68.6365 68.3548 66.3687 69.4807 64.4761 69.4807C62.5835 69.4807 60.3157 68.3548 59.9923 67.2547C59.8781 66.8666 59.6784 66.6343 59.3648 66.5253C59.0059 66.4006 58.833 66.4304 58.5781 66.6618C58.3985 66.8248 58.2013 67.2274 58.1397 67.5562C57.9892 68.3613 56.8857 69.5396 56.0463 69.7918C55.1041 70.0749 53.3944 70.0469 53.0918 69.7435C52.9569 69.6081 52.795 69.2228 52.7324 68.8875C52.6543 68.4702 52.4877 68.2179 52.2045 68.0885C51.6144 67.8189 51.0069 68.1339 50.8646 68.7833C50.7085 69.4961 50.1871 70.1075 49.3854 70.5177C48.5661 70.9369 47.0773 71.1221 46.5973 70.8646C45.6743 70.3691 45.4541 68.4066 46.0446 65.9365C46.7132 63.1395 48.4338 60.1581 50.8161 57.6693C52.3828 56.0325 53.4142 55.2062 55.3354 54.0481C57.0415 53.0197 59.0135 52.2369 60.9242 51.8296C62.7602 51.438 65.8255 51.409 67.698 51.7653ZM32.4037 52.6467C32.1311 52.8257 30.8179 55.5024 30.8179 55.8797C30.8179 56.3267 31.3936 56.7955 31.8611 56.729C32.1634 56.6861 32.4284 56.3401 32.9955 55.2467C33.4025 54.4623 33.7355 53.642 33.7355 53.4238C33.7355 53.2055 33.6406 52.9122 33.5246 52.7719C33.3015 52.5023 32.7225 52.4377 32.4037 52.6467ZM95.3259 52.9441C95.056 53.3573 95.0722 53.4242 95.8237 54.983C96.251 55.8693 96.7174 56.6395 96.8604 56.6944C97.3461 56.8814 97.955 56.6028 98.0707 56.1404C98.1519 55.8161 98.0058 55.3339 97.5237 54.3351C97.1618 53.5857 96.7651 52.87 96.6423 52.7448C96.2789 52.3744 95.6343 52.4722 95.3259 52.9441ZM30.2746 57.6161C30.1107 57.7119 29.7594 58.4917 29.4653 59.4127C28.9822 60.9252 28.9641 61.0687 29.2091 61.4436C29.3846 61.7125 29.6336 61.847 29.9555 61.847C30.221 61.847 30.5121 61.7517 30.6022 61.635C30.7754 61.4112 31.6636 58.6222 31.6636 58.3023C31.6636 58.0448 31.0347 57.4352 30.7756 57.4415C30.6594 57.4444 30.4339 57.5229 30.2746 57.6161ZM97.6269 57.7757C97.4408 57.9623 97.2886 58.1993 97.2886 58.3023C97.2886 58.6222 98.1767 61.4112 98.3499 61.635C98.4401 61.7517 98.7312 61.847 98.9967 61.847C99.3186 61.847 99.5676 61.7125 99.7431 61.4436C99.988 61.0685 99.9699 60.925 99.486 59.41C98.9957 57.8744 98.698 57.4364 98.1455 57.4364C98.0463 57.4364 97.8129 57.5891 97.6269 57.7757ZM27.5182 63.511C26.7982 63.8492 25.9202 64.7449 25.4889 65.5814C25.0593 66.4147 24.8886 67.6875 25.0745 68.671C25.2807 69.7614 25.8826 70.7034 26.7611 71.3106C27.3063 71.6875 27.4928 71.9711 27.7902 72.877L28.1533 73.9832L27.6251 74.8187C27.2552 75.4036 27.0969 75.8623 27.0969 76.3485C27.0969 77.1614 30.4265 86.9115 30.9425 87.6095C31.4144 88.248 32.4881 88.8133 33.2348 88.8167C33.9305 88.8195 34.9592 88.3675 35.4204 87.8558C35.8093 87.4245 36.2303 86.3853 36.2303 85.8565C36.2303 85.274 32.7533 75.2691 32.3706 74.75C31.8965 74.1071 31.2377 73.6814 30.5407 73.5679C29.9524 73.4719 29.8836 73.3998 29.6453 72.6304C29.4431 71.9774 29.4332 71.7813 29.5991 71.7258C29.7156 71.687 30.1643 71.4139 30.5961 71.1192C31.1 70.7754 31.5683 70.249 31.9031 69.6503C32.3651 68.8239 32.4247 68.5619 32.4247 67.3567C32.4247 66.2308 32.3501 65.8506 31.9925 65.1529C31.7339 64.6482 31.2761 64.1093 30.8519 63.8102C30.3106 63.4287 29.913 63.2967 29.1696 63.2518C28.4728 63.2095 28.0036 63.2832 27.5182 63.511ZM98.6755 63.5773C98.3699 63.8838 98.4303 64.4699 98.8393 65.1651L99.2059 65.7885L98.8379 68.4403C98.6356 69.8989 98.421 71.5757 98.3611 72.1666C98.2593 73.1729 98.2129 73.2658 97.6296 73.6351C96.3203 74.4641 96.246 74.6441 94.8551 80.3682C94.145 83.2902 93.5649 85.8668 93.5659 86.094C93.5684 86.7074 94.2098 87.9235 94.7238 88.2901C94.9716 88.4667 95.4765 88.6947 95.8455 88.7966C97.0011 89.1159 98.4049 88.5366 99.0243 87.485C99.1762 87.227 99.882 84.6256 100.593 81.7039C101.504 77.956 101.854 76.2285 101.781 75.8372C101.724 75.5322 101.489 75.0038 101.258 74.663L100.839 74.0434L102.254 70.7867C103.032 68.9954 103.762 67.2406 103.876 66.8871C104.041 66.3804 104.041 66.0574 103.879 65.3604C103.766 64.8742 103.556 64.3429 103.414 64.1795C103.039 63.7483 102.419 63.8084 102.093 64.3074C101.859 64.6659 101.845 64.8516 102.007 65.4968C102.189 66.2194 102.161 66.3516 101.503 67.9134C100.72 69.7715 100.409 70.2313 100.557 69.3111C100.961 66.7896 101.038 66.0406 100.944 65.5368C100.885 65.2197 100.611 64.6034 100.335 64.1671C99.931 63.5286 99.7399 63.3737 99.3558 63.3737C99.0933 63.3737 98.7872 63.4653 98.6755 63.5773ZM29.979 65.4162C30.1687 65.6065 30.3971 65.9549 30.4864 66.1906C30.9048 67.2944 30.4703 69.053 29.6309 69.6525C28.9716 70.1235 27.9344 70.1017 27.4854 69.6079C26.4701 68.4907 26.6679 66.3785 27.8774 65.4243C28.4737 64.9539 29.514 64.9498 29.979 65.4162ZM61.2375 70.6008C62.518 71.1917 63.6847 71.4044 65.0686 71.2994C66.3522 71.202 67.9006 70.6585 68.9694 69.9301L69.6146 69.4904L70.3404 70.2288C71.4063 71.313 72.3924 71.7277 74.1196 71.818C75.1977 71.8745 75.724 71.8246 76.2121 71.62C76.5709 71.4697 76.8931 71.3467 76.9283 71.3467C77.0575 71.3467 76.987 74.874 76.8114 77.1895C76.5919 80.0864 76.1113 82.5916 75.4913 84.0728C73.8202 88.0638 69.9817 91.0752 65.7176 91.74C64.7876 91.8851 64.1645 91.8851 63.2346 91.74C59.8152 91.2069 56.4922 89.0657 54.565 86.1537C53.1624 84.0344 52.4638 81.4513 52.1408 77.1895C51.9652 74.874 51.8947 71.3467 52.0239 71.3467C52.0591 71.3467 52.3813 71.4697 52.74 71.62C53.2282 71.8246 53.7545 71.8745 54.8326 71.818C56.5607 71.7277 57.563 71.3062 58.606 70.231L59.3154 69.4999L59.8238 69.8415C60.1034 70.0295 60.7395 70.3711 61.2375 70.6008ZM58.81 72.2108C58.5309 72.3925 57.7698 72.7021 57.1186 72.8989C56.4675 73.0957 55.8623 73.3232 55.774 73.4044C55.4548 73.6975 56.0201 73.9651 56.88 73.9276C57.8848 73.8836 59.2119 73.3527 59.7484 72.7798C60.0631 72.4439 60.0914 72.3301 59.9135 72.115C59.64 71.7845 59.4378 71.802 58.81 72.2108ZM69.0401 72.1133C68.8654 72.3245 68.8845 72.4346 69.1463 72.725C69.616 73.246 70.6541 73.7294 71.6382 73.8853C72.5603 74.0316 73.3426 73.8517 73.232 73.5187C73.1953 73.4085 72.6229 73.152 71.9599 72.9489C71.297 72.7459 70.4793 72.4168 70.1427 72.2176C69.8063 72.0186 69.4685 71.8556 69.392 71.8556C69.3158 71.8556 69.1575 71.9715 69.0401 72.1133ZM50.0643 73.6792L50.0149 74.9939L49.3898 75.046C48.7931 75.0957 48.7572 75.0687 48.6002 74.4523C48.5099 74.097 48.3888 73.5735 48.3315 73.2889C48.2315 72.7942 48.2589 72.7637 48.9517 72.5934C50.1779 72.2919 50.1186 72.2341 50.0643 73.6792ZM80.1718 72.6492C80.6927 72.7442 80.7227 72.7859 80.6231 73.2787C80.5644 73.569 80.4423 74.097 80.3519 74.4523C80.195 75.0687 80.1591 75.0957 79.5624 75.046L78.9373 74.9939L78.8875 73.6575C78.8382 72.3345 78.8415 72.3221 79.2258 72.4343C79.4393 72.4965 79.865 72.5932 80.1718 72.6492ZM57.8921 75.0168C57.6993 75.2626 57.5415 75.6721 57.5415 75.9269C57.5415 76.1817 57.6993 76.5912 57.8921 76.837C58.5999 77.7397 59.7403 77.1782 59.7403 75.9269C59.7403 74.6757 58.5999 74.1142 57.8921 75.0168ZM69.5502 74.9091C69.3247 75.1352 69.2119 75.4745 69.2119 75.9269C69.2119 77.1465 70.278 77.7081 71.043 76.8915C71.5095 76.3933 71.5167 75.599 71.0601 75.0168C70.6389 74.4796 70.0222 74.4356 69.5502 74.9091ZM99.6565 75.5877C99.8426 75.7743 99.9916 76.0606 99.9877 76.2238C99.9838 76.387 99.4302 78.7706 98.7576 81.5206C97.6394 86.0923 97.4978 86.5413 97.1039 86.763C96.542 87.0794 95.8092 86.894 95.5739 86.3759C95.4288 86.0567 95.5545 85.2982 96.2051 82.5637L97.0177 79.15H97.5638C98.1725 79.15 98.6417 78.7807 98.6417 78.3018C98.6417 77.9361 98.2701 77.5198 97.8143 77.3746C97.531 77.2845 97.5153 77.1956 97.6703 76.5578C97.7661 76.1641 97.9596 75.7084 98.1001 75.5452C98.4428 75.1474 99.2393 75.1692 99.6565 75.5877ZM30.6464 75.5863C30.9933 75.7726 31.4104 76.8391 31.2428 77.111C31.1842 77.2062 31.0515 77.284 30.9481 77.284C30.6164 77.284 30.1413 77.8335 30.1413 78.217C30.1413 78.4214 30.2888 78.7224 30.4691 78.8859C30.7166 79.1107 30.9545 79.157 31.4417 79.0752L32.0864 78.9672L33.2648 82.4251C34.4244 85.828 34.4384 85.8901 34.1489 86.3333C33.9281 86.6711 33.7142 86.7837 33.2927 86.7837C32.9705 86.7837 32.6187 86.657 32.4678 86.4869C32.1437 86.121 28.9574 77.005 28.9574 76.4436C28.9574 75.6141 29.8521 75.16 30.6464 75.5863ZM50.2686 77.3549C50.2686 77.6739 50.3148 78.0555 50.3713 78.2031C50.4482 78.4043 50.3667 78.4715 50.045 78.4715C49.2788 78.4715 48.7748 79.3604 49.2961 79.7928C49.4124 79.8893 49.7357 79.994 50.0146 80.0257C50.4709 80.0773 50.5413 80.168 50.7172 80.9312C51.0142 82.2196 50.9959 82.5428 50.626 82.5428C50.4504 82.5428 49.941 82.2948 49.4938 81.9915C48.4928 81.3126 47.9122 80.2556 47.9054 79.0991C47.897 77.6432 48.4683 77.0543 50.1418 76.7948C50.2114 76.7839 50.2686 77.036 50.2686 77.3549ZM80.2543 77.1985C81.0733 77.5415 81.3049 79.3663 80.6907 80.6384C80.4903 81.0539 80.0253 81.6072 79.6439 81.8843C78.9635 82.3787 78.2389 82.6622 78.0754 82.4982C78.0285 82.4512 78.0781 81.9072 78.1853 81.2892C78.361 80.2778 78.4251 80.1562 78.828 80.0717C79.5122 79.9285 79.7781 79.7419 79.8342 79.366C79.9019 78.9137 79.4433 78.4715 78.9072 78.4715C78.5855 78.4715 78.5039 78.4043 78.5809 78.2031C78.6374 78.0555 78.6836 77.6842 78.6836 77.3777C78.6836 76.8248 78.6883 76.8216 79.3178 76.9463C79.6668 77.0153 80.0881 77.1288 80.2543 77.1985ZM63.3625 77.3677C63.0168 77.7144 62.9735 77.8521 63.1223 78.131C63.3305 78.5212 63.658 78.5631 64.1402 78.261C64.4076 78.0935 64.5446 78.0935 64.812 78.261C65.2942 78.5631 65.6217 78.5212 65.8299 78.131C65.9787 77.8521 65.9354 77.7144 65.5897 77.3677C65.2776 77.0547 64.9881 76.9447 64.4761 76.9447C63.9641 76.9447 63.6746 77.0547 63.3625 77.3677ZM63.0107 80.2651C62.6117 80.4127 61.9808 80.8747 61.5554 81.3307C60.7016 82.2464 60.1183 83.6222 59.973 85.0634C59.8903 85.8847 59.9334 86.1045 60.2769 86.6141C60.4972 86.9406 60.9422 87.3413 61.2659 87.5043C61.7494 87.7481 62.316 87.801 64.4392 87.8012C67.2332 87.8016 67.8001 87.6762 68.5127 86.901C68.7598 86.6321 68.945 86.179 68.9969 85.7165C69.0869 84.9165 68.7246 83.4056 68.1964 82.3782C67.8154 81.6366 66.9458 80.7384 66.27 80.3877C65.5438 80.0111 63.867 79.948 63.0107 80.2651ZM65.5444 81.7153C66.0875 81.9952 66.844 82.7421 66.844 82.9986C66.844 83.1718 66.3182 83.2213 64.4761 83.2213C62.634 83.2213 62.1082 83.1718 62.1082 82.9986C62.1082 82.705 62.9273 81.928 63.4613 81.7151C64.0394 81.4846 65.0967 81.4848 65.5444 81.7153ZM67.5205 85.3079C67.5205 85.6158 67.4292 85.9593 67.3176 86.0712C67.177 86.2122 66.3028 86.2748 64.4761 86.2748C62.6494 86.2748 61.7751 86.2122 61.6346 86.0712C61.523 85.9593 61.4316 85.6158 61.4316 85.3079V84.7481H64.4761H67.5205V85.3079ZM34.1423 90.3171C33.9884 90.4878 33.8623 90.747 33.8623 90.8932C33.8623 91.1524 35.5914 93.5302 35.9605 93.7787C36.338 94.0327 36.9044 93.9 37.1686 93.4958C37.385 93.1646 37.3992 93.0098 37.2403 92.7124C36.9812 92.2265 35.5322 90.2968 35.3066 90.1366C34.9912 89.913 34.4281 90.0002 34.1423 90.3171ZM93.6456 90.1366C93.4199 90.2968 91.971 92.2265 91.7118 92.7124C91.553 93.0098 91.5672 93.1646 91.7835 93.4958C92.0477 93.9 92.6142 94.0327 92.9917 93.7787C93.3834 93.5149 95.0898 91.1444 95.0898 90.8639C95.0898 90.2613 94.1423 89.7843 93.6456 90.1366ZM64.4761 93.6541C65.2668 93.6541 66.2294 93.5915 66.615 93.5149L67.3164 93.3757L67.5977 94.2252C67.9669 95.3402 68.8748 96.1684 70.0334 96.4473C70.5124 96.5625 70.9402 96.7148 70.9838 96.7857C71.0274 96.8566 70.7798 97.2007 70.4336 97.5501C69.1498 98.8458 67.4987 99.7663 65.2046 100.465C63.879 100.869 63.4264 100.92 61.0934 100.934C58.7439 100.947 58.3498 100.906 57.2969 100.542C56.0575 100.113 54.8938 99.1951 54.8013 98.5735C54.7609 98.3019 55.0041 98.1101 56.0193 97.6124C56.7169 97.2702 57.9139 96.789 58.6791 96.543C60.3077 96.0195 60.9454 95.4746 61.3858 94.2306L61.6853 93.3842L62.3619 93.5192C62.734 93.5933 63.6854 93.6541 64.4761 93.6541ZM37.6603 94.4946C37.432 94.7236 37.2451 94.9989 37.2451 95.1063C37.2451 95.4011 39.5876 97.764 39.9826 97.8675C40.2067 97.9264 40.468 97.8163 40.731 97.5525C40.9534 97.3294 41.1352 97.0534 41.1352 96.9389C41.1352 96.6673 38.5537 94.0781 38.2829 94.0781C38.1687 94.0781 37.8886 94.2656 37.6603 94.4946ZM89.3067 95.2232C88.6557 95.8529 88.0488 96.507 87.958 96.6765C87.7082 97.1428 88.208 97.8102 88.8071 97.8102C89.1755 97.8102 89.5542 97.5286 90.4946 96.556C91.1615 95.8661 91.7071 95.2139 91.7071 95.1063C91.7071 94.8536 90.9352 94.0781 90.6835 94.0781C90.5773 94.0781 89.9577 94.5935 89.3067 95.2232ZM73.9888 98.0855C75.3595 98.7822 77.6809 100.266 78.4811 100.956C79.1211 101.508 79.2027 101.658 79.1577 102.194C79.1179 102.666 78.9794 102.889 78.5425 103.183C78.2323 103.392 77.2048 103.864 76.2592 104.231C72.7552 105.593 69.4584 106.122 64.4761 106.122C60.669 106.122 58.2799 105.856 55.4273 105.113C53.5003 104.611 50.6113 103.449 50.0707 102.958C49.8908 102.795 49.7612 102.444 49.7612 102.121C49.7612 101.671 49.8979 101.455 50.48 100.986C51.4176 100.232 52.7438 99.3369 52.9246 99.3369C53.0029 99.3369 53.2134 99.6095 53.3922 99.9427C54.6279 102.244 59.2843 103.445 63.8657 102.643C66.5414 102.175 68.6639 101.27 70.6765 99.7376C71.3424 99.2305 72.0884 98.5513 72.3342 98.2282C72.5799 97.905 72.8558 97.6405 72.9471 97.6405C73.0385 97.6405 73.5073 97.8407 73.9888 98.0855ZM41.5642 98.1427C41.0469 98.716 41.348 99.2378 42.7867 100.261C43.5064 100.773 44.2546 101.195 44.4495 101.197C44.9531 101.205 45.4261 100.626 45.3055 100.149C45.1908 99.696 42.6777 97.8102 42.1881 97.8102C42.01 97.8102 41.7292 97.9598 41.5642 98.1427ZM85.1108 98.7596C83.6668 99.8248 83.3605 100.33 83.8377 100.859C84.0085 101.048 84.3079 101.201 84.5027 101.197C84.6976 101.195 85.4458 100.773 86.1655 100.261C87.6042 99.2378 87.9052 98.716 87.388 98.1427C87.2229 97.9598 86.9285 97.8132 86.7336 97.8171C86.5388 97.8209 85.8085 98.2449 85.1108 98.7596Z" fill="#027A3C" stroke="#027A3C" stroke-width="0.5"/>
</svg>
