<svg width="130" height="130" viewBox="0 0 130 130" fill="none" xmlns="http://www.w3.org/2000/svg">
<rect width="130" height="130" rx="9" fill="#ECF5F1"/>
<path d="M25.5009 67C23.0009 60.5 24.0009 55.5 27.0009 50.5C28.9356 46.5 47.5 47 56 52C64.5 57 71 53.5 77.5 51C84 48.5 96 46 101.5 49.5C107 53 106.5 61.5 105.5 64C104.5 66.5 103.5 69 103.5 73.5C103.5 78 102.5 78 99.5 79.5C97.1 80.7 93.8333 79.3333 92.5 78.5C93 79 92.7 80.3 87.5 81.5C82.3 82.7 80.3333 81 80 80C80.1667 80.8333 79 82.6 73 83C65.5 83.5 65 81 65 82C65 83 60 83 55 83C50 83 51 79.5 50 81C49 82.5 42.5 81 40.5 80.5C38.5 80 36.5 78.5 35 79.5C33.5 80.5 27.5 78.5 27.0009 77C26.5018 75.5 28.0009 73.5 25.5009 67Z" fill="white"/>
<path fill-rule="evenodd" clip-rule="evenodd" d="M32.991 47.0943C31.5066 47.3287 29.5936 47.8842 28.5885 48.3727C26.0187 49.6214 24.0139 52.5894 23.2372 56.2944C22.9152 57.8301 22.9223 61.2493 23.2508 62.9876C23.5691 64.671 24.192 66.5726 24.9607 68.2068C25.5139 69.383 25.5462 69.5538 25.6062 71.6124C25.7224 75.6102 26.1762 78.1432 26.8941 78.8034C27.8761 79.7067 29.7833 80.2779 32.6549 80.5288C34.369 80.6785 36.2749 80.575 36.9668 80.2946C37.1437 80.2229 37.501 80.3672 37.9447 80.6897C39.2936 81.6702 42.1265 82.3672 45.3752 82.5178C47.0667 82.5963 47.7517 82.5576 48.682 82.3306L49.8553 82.0444L50.6305 82.6382C51.0568 82.9646 51.6862 83.3052 52.029 83.395C53.6774 83.826 55.7413 84 59.2063 84C63.0513 84 63.4748 83.9371 64.5298 83.2088C64.974 82.9022 64.9886 82.9037 65.5971 83.3181C65.9364 83.5491 66.4899 83.7971 66.8274 83.8691C67.833 84.0838 74.3626 84.018 75.9269 83.7776C78.0388 83.4528 78.5222 83.2929 79.3799 82.636L80.158 82.0402L81.2774 82.3247C82.1803 82.5543 82.8352 82.5893 84.6654 82.5058C87.9623 82.355 90.8505 81.6244 92.1895 80.6025C92.6945 80.217 92.7911 80.1995 93.3618 80.3885C94.3136 80.7037 97.7401 80.6092 99.6074 80.2163C101.376 79.8442 102.898 79.155 103.354 78.5196C103.844 77.8361 104.163 75.7687 104.263 72.6176L104.358 69.6666L104.996 68.3176C105.826 66.5637 106.436 64.6998 106.778 62.8726C107.161 60.8305 107.032 57.0276 106.52 55.2489C106.027 53.5332 105.164 51.8228 104.17 50.59C102.709 48.7784 100.686 47.74 97.6258 47.2316C96.2492 47.0028 95.2589 46.9606 92.9205 47.0311C89.6169 47.1308 87.4974 47.4149 83.6571 48.2727C79.141 49.2816 75.1803 50.5436 70.2236 52.5532C68.3618 53.3081 66.5208 53.7194 65.0039 53.7194C63.4068 53.7194 61.6137 53.295 59.3642 52.384C58.1682 51.8999 56.4727 51.2429 55.5963 50.9242C53.3317 50.1008 49.3374 48.939 46.6868 48.3326C42.6626 47.412 40.4978 47.1345 36.856 47.0723C35.0075 47.0405 33.2682 47.0505 32.991 47.0943ZM40.4741 49.0995C44.5889 49.6069 50.0358 50.8937 54.1575 52.3323C55.0858 52.6564 56.9418 53.3633 58.282 53.9032C59.6222 54.4433 61.2102 55.0178 61.811 55.1799C63.2755 55.5748 66.5165 55.5863 68.059 55.2018C68.6764 55.0479 70.6047 54.3567 72.3442 53.6658C78.5313 51.2082 84.6776 49.6158 90.3514 49.0007C92.9603 48.7177 97.1354 48.874 98.6973 49.3132C100.197 49.7347 100.88 50.0384 101.741 50.6659C102.496 51.217 103.733 52.9943 104.285 54.3214C104.478 54.7851 104.765 55.8028 104.922 56.5827C105.143 57.6758 105.189 58.5265 105.122 60.2925C105.065 61.8153 104.922 63.0086 104.697 63.8489C104.342 65.174 103.763 66.7959 103.496 67.2147C103.36 67.4277 103.297 67.4228 103.029 67.179C102.858 67.024 102.344 66.7311 101.887 66.5281C101.254 66.2473 100.734 66.1598 99.7084 66.1622C97.4359 66.1672 95.5254 66.9497 93.9012 68.5408L92.9242 69.498L92.1137 68.7548C90.9278 67.6673 89.7383 67.1722 88.1036 67.0857C87.3603 67.0464 86.3304 67.1021 85.8148 67.2095C84.6736 67.4473 82.8036 68.3343 81.8926 69.0698L81.2204 69.6125L80.9683 68.7573C80.6506 67.6791 80.2992 67.3105 79.7271 67.4545C79.1223 67.6068 78.8808 68.1236 79.1082 68.7784C79.2079 69.0651 79.2684 69.3207 79.2427 69.3465C79.2171 69.3723 78.8689 69.173 78.4693 68.9035C78.0695 68.6341 77.315 68.2461 76.7927 68.0412C76.0262 67.7405 75.486 67.6665 73.9944 67.6584C71.9459 67.6471 70.9307 67.8807 69.0518 68.7955C67.7404 69.4341 66.051 70.9655 65.4924 72.0223C65.2702 72.4424 65.0506 72.7857 65.0042 72.7852C64.9578 72.7845 64.7947 72.5633 64.6417 72.2935C64.37 71.8141 64.3727 71.8006 64.7653 71.7018C65.2867 71.5704 65.4369 70.9537 65.1756 70.017C64.8802 68.9582 64.0707 67.6178 63.6619 67.5105C63.4355 67.4511 63.148 67.5577 62.8573 67.8086L62.4047 68.1992L62.7179 68.8486C62.89 69.2057 63.1391 69.7529 63.2711 70.0644L63.5113 70.631L62.7015 69.9457C61.6744 69.0766 59.6087 68.1147 58.0563 67.7827C55.8707 67.3152 53.1776 67.7452 51.6141 68.8113C51.2642 69.0499 50.9318 69.245 50.8755 69.245C50.8192 69.245 50.6834 68.9449 50.574 68.5781C50.4645 68.2112 50.2579 67.7938 50.1153 67.6506C49.7541 67.2881 49.1497 67.3255 48.7823 67.7331C48.4872 68.0601 48.4861 68.1129 48.7571 68.8713C48.9132 69.3088 49.0408 69.73 49.0403 69.8074C49.0398 69.8848 48.6882 69.6379 48.259 69.2588C47.2749 68.3896 45.4661 67.4748 44.217 67.2146C43.6882 67.1045 42.6474 67.0464 41.9042 67.0857C40.2511 67.1733 38.9933 67.7012 37.8248 68.798L37.0185 69.5548L36.4477 68.8725C35.6849 67.9609 34.105 66.9588 32.751 66.5277C31.5088 66.1321 29.2731 66.0466 28.4724 66.364C28.2055 66.4699 27.9617 66.5309 27.9306 66.4999C27.8997 66.4689 28.0637 66.0864 28.2951 65.6504C28.6254 65.0276 28.6777 64.786 28.5389 64.5256C28.4416 64.3432 28.2073 64.111 28.0185 64.0094C27.5195 63.7415 26.988 64.1523 26.4613 65.2126L26.0266 66.0881L25.8389 65.601C25.2654 64.1113 24.9671 62.4506 24.8857 60.2925C24.8192 58.5265 24.8651 57.6758 25.0855 56.5827C25.243 55.8028 25.531 54.7851 25.7255 54.3214C26.218 53.1467 27.0651 51.8363 27.8249 51.074C28.8091 50.0863 30.6015 49.3319 32.6942 49.0245C34.3081 48.7874 38.2518 48.8253 40.4741 49.0995ZM52.9532 55.5956C52.1207 56.4895 51.7282 57.225 51.7282 57.8911C51.7282 58.6687 51.9362 59.1084 52.7321 60.0126C53.4829 60.8655 54.0121 61.0271 54.489 60.5487C54.9017 60.1345 54.8034 59.6457 54.1649 58.9364C53.8414 58.5773 53.5767 58.122 53.5767 57.9247C53.5767 57.7275 53.8414 57.2722 54.1649 56.9129C54.4986 56.5424 54.753 56.0816 54.753 55.8482C54.753 55.4419 54.2122 54.9116 53.7982 54.9116C53.6837 54.9116 53.3036 55.2194 52.9532 55.5956ZM75.4228 55.2489C75.2379 55.4344 75.0867 55.6954 75.0867 55.8288C75.0867 55.9623 75.3892 56.4222 75.7589 56.8508C76.1286 57.2795 76.4311 57.7456 76.4311 57.8867C76.4311 58.0277 76.1664 58.4671 75.8429 58.8634C74.9716 59.9303 75.0968 60.8136 76.1193 60.8136C76.4756 60.8136 76.7534 60.6008 77.34 59.8782C77.7576 59.3637 78.1473 58.6859 78.2061 58.3715C78.2648 58.0574 78.2248 57.5324 78.1171 57.205C77.8685 56.4495 76.5021 54.9116 76.0793 54.9116C75.9031 54.9116 75.6076 55.0634 75.4228 55.2489ZM54.6613 57.3087C54.4344 57.4877 54.2489 57.7687 54.2489 57.9331C54.2489 58.5068 54.8485 58.8194 56.251 58.9767C56.9928 59.06 57.991 59.283 58.4692 59.4722C59.3231 59.8099 61.0489 60.8686 61.2331 61.1674C61.2845 61.251 61.5465 61.3195 61.815 61.3195C62.3343 61.3195 62.6512 60.9402 62.6512 60.3185C62.6512 59.9087 61.0923 58.6945 59.747 58.0562C58.7083 57.5635 57.1984 57.1658 55.9636 57.0596C55.2599 56.9992 54.9873 57.0513 54.6613 57.3087ZM73.5339 57.1119C71.5333 57.3456 69.7583 58.0732 68.2289 59.2863C67.5528 59.8226 67.3565 60.0836 67.3565 60.4465C67.3565 60.704 67.4473 61.0058 67.5582 61.1171C67.8361 61.396 68.6169 61.3713 68.8612 61.0758C69.1975 60.6694 70.6538 59.7937 71.5827 59.4395C72.0644 59.2558 73.0688 59.0366 73.8146 58.9521C74.8793 58.8315 75.2339 58.7213 75.4648 58.4385C75.6265 58.2403 75.7589 58.0073 75.7589 57.9206C75.7589 57.7164 74.9748 56.9284 74.8002 56.9572C74.7267 56.9696 74.1569 57.039 73.5339 57.1119ZM29.8821 62.6194C29.4517 62.7783 29.0419 63.2135 29.0419 63.5117C29.0419 64.0482 29.6463 64.3878 30.7185 64.454C31.2806 64.4885 31.8966 64.6007 32.0874 64.7032C32.8202 65.0968 33.7316 64.4282 33.4926 63.672C33.3602 63.2538 32.7391 62.9317 31.5963 62.6891C30.6435 62.4866 30.2819 62.4721 29.8821 62.6194ZM87.1183 62.8575C85.6071 63.0747 85.088 63.7671 85.8575 64.5393C86.1353 64.818 86.331 64.8693 86.788 64.7833C87.1062 64.7234 87.8238 64.6722 88.3824 64.6695C89.1551 64.6657 89.475 64.5873 89.7204 64.3411C90.1203 63.9398 90.1277 63.6466 89.7488 63.2108C89.3868 62.7943 88.441 62.6673 87.1183 62.8575ZM100.24 62.8641C100.087 62.95 99.8825 63.1687 99.7857 63.3503C99.5235 63.8417 99.8571 64.3236 100.715 64.6926C101.118 64.8661 101.58 65.2101 101.741 65.457C102.269 66.265 103.079 66.2996 103.489 65.5313C103.697 65.1401 103.511 64.6929 102.836 63.9604C102.09 63.1515 100.742 62.5822 100.24 62.8641ZM40.9732 62.9567C40.5028 63.1304 40.133 63.5626 40.133 63.9388C40.133 64.6308 40.5413 64.7732 42.3813 64.7226C43.8586 64.6819 44.1207 64.63 44.3761 64.328C44.538 64.1366 44.6702 63.9093 44.6702 63.8226C44.6702 63.7359 44.4845 63.4788 44.2577 63.2511C43.8875 62.8795 43.7115 62.8385 42.5352 62.8505C41.8148 62.8577 41.1118 62.9056 40.9732 62.9567ZM54.3889 63.0366C53.5749 63.2542 53.1699 63.7116 53.3067 64.2588C53.4565 64.8578 53.9743 65.0996 54.622 64.873C54.9065 64.7735 55.5111 64.6921 55.9655 64.6921C56.8993 64.6921 57.3505 64.5037 57.6179 64.0024C57.7601 63.7359 57.7409 63.5644 57.5339 63.2474C57.2917 62.8766 57.1573 62.8388 56.1355 62.8545C55.5138 62.8641 54.7278 62.9461 54.3889 63.0366ZM96.5979 63.5223C96.0904 63.803 95.463 64.2364 95.2041 64.4855C94.6201 65.0468 94.6473 65.6738 95.2708 66.0234C95.6849 66.2556 95.7654 66.2325 96.7192 65.607C97.2747 65.243 97.9659 64.8157 98.2553 64.6578C98.6648 64.4341 98.7813 64.258 98.7813 63.8627C98.7813 63.3346 98.4104 63.0029 97.8261 63.0088C97.6582 63.0105 97.1055 63.2415 96.5979 63.5223ZM71.7664 63.5216C70.5682 63.7587 70.1355 64.0411 70.0787 64.6233C70.047 64.9482 70.1306 65.2278 70.3024 65.3708C70.5272 65.558 70.7867 65.563 71.7426 65.3986C72.3837 65.2882 73.1221 65.1979 73.3834 65.1979C73.9243 65.1979 74.4145 64.7431 74.4145 64.2411C74.4145 63.4319 73.4896 63.1806 71.7664 63.5216ZM58.8962 63.9887C58.4531 64.4799 58.5492 65.0071 59.1409 65.3323C59.4286 65.4902 60.1117 65.9042 60.659 66.2519C61.2064 66.5997 61.7535 66.8842 61.8747 66.8842C62.2015 66.8842 62.6512 66.3192 62.6512 65.9082C62.6512 65.7106 62.4462 65.3581 62.1957 65.1251C61.6129 64.5828 59.9309 63.6803 59.5029 63.6803C59.3222 63.6803 59.0491 63.8191 58.8962 63.9887ZM38.3945 64.04C38.0406 64.2464 37.4535 65.4453 37.4479 65.9728C37.4405 66.6746 38.5034 67.1793 38.9222 66.6731C39.0181 66.5569 39.2509 66.0694 39.4393 65.59L39.7817 64.7182L39.4409 64.2835C39.0701 63.8105 38.8686 63.7634 38.3945 64.04ZM45.2844 64.1573C44.8956 64.5883 44.9381 65.1345 45.3844 65.4462C45.5925 65.5912 46.2267 66.05 46.7938 66.4657C47.3612 66.8814 47.9471 67.2215 48.0962 67.2215C48.4313 67.2215 49.0394 66.6318 49.0394 66.307C49.0394 65.7635 46.5791 63.8489 45.8807 63.8489C45.7057 63.8489 45.4374 63.9877 45.2844 64.1573ZM75.5129 64.1794C75.0682 64.6725 75.2904 65.2669 76.0511 65.6185C76.3988 65.7792 77.072 66.1746 77.5474 66.4974C78.2742 66.9908 78.4673 67.0542 78.7619 66.896C79.2415 66.6384 79.443 66.1966 79.2793 65.7618C79.0427 65.1335 76.9253 63.8489 76.1264 63.8489C75.953 63.8489 75.6769 63.9976 75.5129 64.1794ZM90.8831 64.1862C90.6982 64.3717 90.547 64.6273 90.547 64.7543C90.547 64.8814 90.8391 65.3556 91.1962 65.8082C91.5533 66.261 91.9683 66.8726 92.1186 67.1673C92.4152 67.7495 92.8751 67.98 93.4035 67.8118C93.9525 67.637 94.014 66.9274 93.5555 66.0559C93.0606 65.115 91.8816 63.8489 91.5 63.8489C91.3456 63.8489 91.0679 64.0007 90.8831 64.1862ZM34.0088 64.561C33.865 64.7671 33.7472 65.0185 33.7472 65.1195C33.7472 65.2207 33.9804 65.5264 34.2654 65.7988C34.5506 66.0711 35.0457 66.6505 35.3656 67.0861C36.1864 68.2037 36.8186 68.3322 37.276 67.4748C37.4679 67.1151 37.4328 66.9802 36.9517 66.2279C36.2479 65.1273 35.201 64.1862 34.6805 64.1862C34.4473 64.1862 34.1575 64.3477 34.0088 64.561ZM82.4866 65.1787C81.9307 65.7247 81.4096 66.3507 81.3288 66.5699C81.134 67.0984 81.4214 67.7081 81.9254 67.8349C82.2525 67.9174 82.5367 67.7161 83.5769 66.6655C84.4366 65.7972 84.8334 65.2693 84.8334 64.9937C84.8334 64.4622 84.5361 64.1862 83.9638 64.1862C83.6214 64.1862 83.2289 64.4499 82.4866 65.1787ZM51.3533 64.5351C51.0034 64.7396 50.2158 66.047 50.2158 66.423C50.2158 66.5706 50.41 66.8444 50.6473 67.0318C50.9873 67.3001 51.1568 67.336 51.4455 67.2006C51.8651 67.004 52.7365 65.6628 52.7365 65.2136C52.7365 64.8619 52.2273 64.3526 51.883 64.3599C51.7517 64.3627 51.5133 64.4416 51.3533 64.5351ZM67.0352 66.1809C66.5081 66.7215 65.9728 67.4156 65.846 67.7232C65.6268 68.2535 65.6379 68.3021 66.0589 68.6653C66.6141 69.1447 67.0771 69.0432 67.5466 68.3393C67.7402 68.0491 68.1842 67.5461 68.5334 67.2215C69.3549 66.4576 69.4959 65.9957 69.0456 65.5438C68.856 65.3536 68.5418 65.1979 68.3473 65.1979C68.138 65.1979 67.6027 65.5989 67.0352 66.1809ZM31.3713 68.0725C32.7223 68.2926 33.9095 68.8931 34.8405 69.8275C36.0738 71.065 36.1407 71.2967 36.3133 74.9421C36.3979 76.7308 36.4279 78.2973 36.3798 78.4233C36.2428 78.7813 34.5352 78.8988 32.4868 78.6911C30.4353 78.4832 29.0562 78.1724 28.4678 77.7855C28.2363 77.6333 28.005 77.2351 27.896 76.8006C27.7953 76.3994 27.6247 75.0096 27.517 73.712C27.331 71.4728 27.3717 69.6851 27.6237 69.026C27.7706 68.642 28.6034 68.2017 29.462 68.0538C29.8317 67.9903 30.172 67.9292 30.2182 67.9184C30.2644 67.9075 30.7833 67.9769 31.3713 68.0725ZM101.386 68.313C102.126 68.6228 102.422 69.0573 102.542 70.0128C102.673 71.0578 102.367 75.6522 102.091 76.7736C101.921 77.4682 101.795 77.6388 101.261 77.9007C100.914 78.0705 100.007 78.3231 99.2441 78.4621C97.6236 78.7573 93.8281 78.8528 93.607 78.6039C93.5192 78.5051 93.5355 77.0367 93.6466 75.0548C93.8252 71.868 93.8617 71.6301 94.2857 70.9043C95.0923 69.5231 96.5247 68.5258 98.2771 68.1255C99.276 67.8973 100.581 67.9761 101.386 68.313ZM44.3456 69.1793C44.8477 69.3287 45.5526 69.6013 45.9124 69.7851C46.8123 70.245 48.1587 71.5428 48.5844 72.3604C48.8984 72.964 48.9504 73.4413 49.0517 76.6647C49.132 79.2202 49.1115 80.3247 48.982 80.4072C48.6296 80.6315 46.6044 80.7578 44.9292 80.6601C43.0165 80.5485 41.2851 80.2161 39.9515 79.7047C38.4758 79.1388 38.4616 79.1169 38.2848 77.148C38.1984 76.1866 38.1251 74.5045 38.1221 73.4101C38.1157 71.1971 38.2446 70.7738 39.1606 69.9978C40.0824 69.217 40.9384 68.9155 42.245 68.9115C42.8983 68.9095 43.8436 69.03 44.3456 69.1793ZM89.6337 69.2265C90.6198 69.676 91.5039 70.517 91.7376 71.2279C91.8846 71.6746 91.9075 72.638 91.8206 74.7185C91.6621 78.5157 91.5986 78.8417 90.9273 79.2956C90.2617 79.7457 88.2254 80.3094 86.3512 80.5625C84.944 80.7526 81.6383 80.6925 81.107 80.4674C80.8525 80.3595 80.8341 80.0146 80.9149 76.8623C80.9959 73.7044 81.0406 73.2946 81.3898 72.5071C81.866 71.4333 82.8256 70.4789 84.1305 69.7809C85.3705 69.1177 86.0911 68.9452 87.6902 68.9283C88.5798 68.9191 89.1515 69.0068 89.6337 69.2265ZM57.8116 69.5975C58.3013 69.6986 59.3182 70.0764 60.071 70.4369C62.1582 71.4367 63.1797 72.7766 63.763 75.2801C63.9578 76.1156 64.0099 77.0296 63.9625 78.7725C63.9232 80.2161 63.8173 81.2799 63.6901 81.5107C63.5755 81.7183 63.276 81.9459 63.0245 82.0166C62.7731 82.0872 60.9792 82.1439 59.0382 82.1426C55.4271 82.14 52.8872 81.8881 52.0251 81.447C51.7725 81.3176 51.4326 80.9665 51.2699 80.6667C51.0111 80.19 50.9738 79.6211 50.973 76.1321L50.972 72.1426L51.4832 71.4119C52.3301 70.2011 53.9997 69.4465 55.8791 69.4255C56.4521 69.4189 57.3218 69.4964 57.8116 69.5975ZM76.8801 70.0976C77.7914 70.564 78.1149 70.8421 78.5251 71.5105L79.0358 72.3429L79.0269 76.2342C79.019 79.7474 78.9871 80.1784 78.6982 80.6689C78.5222 80.9677 78.1357 81.3277 77.8393 81.4689C76.929 81.9024 72.9636 82.2684 69.8781 82.2036C66.457 82.1318 66.2755 82.0549 66.0668 80.5897C65.8574 79.1185 65.9498 76.3868 66.2533 75.0789C66.4019 74.4386 66.7265 73.5401 66.9749 73.0825C67.6226 71.8883 68.9637 70.7268 70.3279 70.1789C71.9017 69.5467 72.5843 69.4249 74.2819 69.4744C75.573 69.5118 75.8797 69.5855 76.8801 70.0976Z" fill="#027A3C" stroke="#027A3C" stroke-width="0.5"/>
</svg>
