<svg width="130" height="130" viewBox="0 0 130 130" fill="none" xmlns="http://www.w3.org/2000/svg">
<rect width="130" height="130" rx="9" fill="#ECF5F1"/>
<path fill-rule="evenodd" clip-rule="evenodd" d="M42.5 42C34.5882 47.0258 34.4328 56.5122 37.8942 66.0612C39.8307 71.4034 41.7671 75.4872 43.3572 78.8406C44.6094 81.4813 45.6468 83.6691 46.3003 85.6618C46.6482 86.7226 47.0233 88.5572 47.4638 90.7121C48.9019 97.7459 51.0374 108.191 55.2012 106.268C57.887 105.027 58.7644 98.2719 59.6193 91.6903C60.4957 84.9428 61.3485 78.3775 64.102 78.1231C66.6461 77.8881 67.5676 84.3596 68.5361 91.1612C69.6383 98.9019 70.8014 107.07 74.4863 106.268C78.4905 105.396 79.226 101.113 80.187 95.5168C80.8875 91.438 81.7077 86.6615 84.001 82C89.4404 70.9432 102.715 42.0103 77.001 40C75.3789 40 73.4217 40.867 71.3417 41.7883C68.9832 42.833 66.4669 43.9477 64.102 43.9477C62.7401 43.9477 61.0686 43.2005 59.1353 42.3363C54.7511 40.3764 49.0204 37.8146 42.5 42ZM78.5666 61.5C77.462 61.5 76.5666 60.6046 76.5666 59.5V58.9333H76C74.8955 58.9333 74 58.0379 74 56.9333V55.0667C74 53.9621 74.8955 53.0667 76 53.0667H76.5666V52.5C76.5666 51.3954 77.462 50.5 78.5666 50.5H80.4333C81.5378 50.5 82.4333 51.3954 82.4333 52.5V53.0667H83C84.1046 53.0667 85 53.9621 85 55.0667V56.9333C85 58.0379 84.1046 58.9333 83 58.9333H82.4333V59.5C82.4333 60.6046 81.5378 61.5 80.4333 61.5H78.5666Z" fill="white"/>
<path fill-rule="evenodd" clip-rule="evenodd" d="M46.961 39.4807C45.2646 39.8507 44.1497 40.2262 42.9983 40.8152C38.8559 42.9344 36.0947 47.0452 35.2476 52.3542C34.9164 54.4299 34.9176 57.8842 35.2504 60.201C35.7907 63.9627 37.0916 68.4054 38.9451 72.819C39.3805 73.8558 40.7089 76.632 41.897 78.9884C43.0852 81.3448 44.2957 83.9607 44.5871 84.8016C45.3346 86.9583 45.9565 89.4484 47.0387 94.6174C47.5555 97.0867 48.17 99.7859 48.4039 100.615C48.9289 102.477 49.8152 104.419 50.6572 105.553C51.7923 107.081 53.8138 107.831 55.5282 107.36C55.9275 107.251 56.5527 106.887 56.9176 106.552C57.7712 105.768 58.4912 104.263 59.009 102.181C59.5254 100.104 59.7994 98.2144 60.4506 92.2363C61.2831 84.593 61.8751 81.5448 62.8213 80.0285C63.6232 78.7434 64.6968 78.7384 65.4339 80.0163C66.4264 81.7376 66.9537 84.44 67.7912 92.0985C68.116 95.0676 68.5391 98.4608 68.7315 99.639C69.3928 103.69 70.5239 106.301 71.9378 107.042C72.8636 107.527 74.0583 107.611 75.2027 107.273C75.9876 107.041 76.374 106.789 77.1331 106.01C78.2543 104.861 79.0866 103.225 79.8113 100.746C80.0857 99.8069 80.702 97.1496 81.1807 94.8403C82.2124 89.8652 82.8567 87.2276 83.5252 85.2436C84.1883 83.276 84.6193 82.3249 86.2092 79.3211C89.6795 72.7646 91.9655 66.4642 92.903 60.8733C93.2907 58.5613 93.4038 55.5662 93.1779 53.5929C92.9602 51.6908 92.427 49.5349 91.8082 48.0554C91.2202 46.6495 90.1548 44.9327 89.1576 43.7841C87.9826 42.4308 85.6711 40.8779 83.816 40.1957C81.5318 39.3558 79.6705 39.0873 76.8915 39.1969C74.191 39.3035 72.1881 39.7498 69.7721 40.783C66.533 42.1684 66.6394 42.143 64.0761 42.1427L61.7154 42.1425L60.1978 41.4834C57.7499 40.4202 55.588 39.7131 53.887 39.4189C51.7825 39.0549 48.7903 39.0816 46.961 39.4807ZM53.1268 41.2128C55.0432 41.4837 57.1301 42.1334 58.8773 43.0028C60.1036 43.6131 60.7602 44.0945 62.0503 45.3287C63.6996 46.9067 64.5277 47.4153 65.7835 47.6213C66.4015 47.7228 66.5178 47.6853 66.8279 47.2848C67.077 46.9631 67.1387 46.729 67.0434 46.4675C66.8851 46.0325 66.691 45.9186 65.6538 45.6519C64.8987 45.4576 63.6546 44.5995 63.6546 44.2727C63.6546 44.1853 64.1289 44.1126 64.7085 44.1113C66.1288 44.1078 67.5078 43.755 69.3893 42.9135C70.253 42.5272 71.5738 42.0303 72.3247 41.8092C76.3893 40.6121 81.0131 40.8646 84.3109 42.4638C86.7222 43.6331 88.4414 45.3318 89.6226 47.712C90.778 50.0401 91.2807 52.1197 91.425 55.1674C91.6982 60.9326 89.6152 68.5819 85.6266 76.4607C85.042 77.6152 84.0817 79.5094 83.4924 80.6696C82.4339 82.7539 81.3547 85.7484 80.7015 88.414C80.5167 89.168 79.9439 91.7901 79.4284 94.2407C78.9131 96.6914 78.2971 99.3842 78.0597 100.225C77.5265 102.112 76.8461 103.655 76.2094 104.419C75.3737 105.422 73.9202 105.881 72.8678 105.475C72.6366 105.385 72.2584 104.981 72.0274 104.575C71.0605 102.878 70.5302 100.08 69.6399 91.9741C69.311 88.9792 68.9293 85.8636 68.7917 85.0504C68.2544 81.8759 67.5241 79.6832 66.589 78.4371C65.7361 77.3006 64.1067 76.8735 62.8801 77.4651C61.637 78.0647 60.7457 79.6083 60.0258 82.4084C59.5122 84.4062 59.2325 86.3457 58.5043 92.9554C57.6311 100.882 56.9581 103.903 55.8035 105.08C55.4035 105.488 55.1059 105.637 54.6923 105.636C53.657 105.634 52.9202 105.31 52.2361 104.556C51.0204 103.216 50.3375 101.293 49.2283 96.0869C47.7127 88.9742 47.3823 87.5851 46.6726 85.3426C46.0853 83.4873 45.3993 81.9249 43.5872 78.3163C40.3568 71.8838 38.9229 68.2998 37.8595 64.0021C37.0422 60.6989 36.7915 58.4568 36.8905 55.3388C36.9962 52.0107 37.3434 50.4624 38.5585 47.9007C39.2682 46.4046 39.6119 45.9076 40.6954 44.811C41.6143 43.8811 42.3756 43.3001 43.3356 42.7966C44.8382 42.0087 46.5323 41.4426 48.057 41.2191C49.5228 41.0044 51.633 41.0017 53.1268 41.2128Z" fill="#027A3C" stroke="#027A3C" stroke-width="0.5"/>
<path fill-rule="evenodd" clip-rule="evenodd" d="M83.5 35C83.5 36.6569 84.8431 38 86.5 38H88.5C90.1569 38 91.5 36.6569 91.5 35V34.5H92C93.6569 34.5 95 33.1569 95 31.5V29.5C95 27.8431 93.6569 26.5 92 26.5H91.5V26C91.5 24.3431 90.1569 23 88.5 23H86.5C84.8431 23 83.5 24.3431 83.5 26V26.5H83C81.3431 26.5 80 27.8431 80 29.5V31.5C80 33.1569 81.3431 34.5 83 34.5H83.5V35Z" fill="white"/>
<path fill-rule="evenodd" clip-rule="evenodd" d="M83.5 35C83.5 36.6569 84.8431 38 86.5 38H88.5C90.1569 38 91.5 36.6569 91.5 35V34.5H92C93.6569 34.5 95 33.1569 95 31.5V29.5C95 27.8431 93.6569 26.5 92 26.5H91.5V26C91.5 24.3431 90.1569 23 88.5 23H86.5C84.8431 23 83.5 24.3431 83.5 26V26.5H83C81.3431 26.5 80 27.8431 80 29.5V31.5C80 33.1569 81.3431 34.5 83 34.5H83.5V35Z" fill="white"/>
<path fill-rule="evenodd" clip-rule="evenodd" d="M83.5 35C83.5 36.6569 84.8431 38 86.5 38H88.5C90.1569 38 91.5 36.6569 91.5 35V34.5H92C93.6569 34.5 95 33.1569 95 31.5V29.5C95 27.8431 93.6569 26.5 92 26.5H91.5V26C91.5 24.3431 90.1569 23 88.5 23H86.5C84.8431 23 83.5 24.3431 83.5 26V26.5H83C81.3431 26.5 80 27.8431 80 29.5V31.5C80 33.1569 81.3431 34.5 83 34.5H83.5V35Z" fill="white"/>
<path d="M83.5 35H82.25H83.5ZM91.5 34.5V33.25H90.25V34.5H91.5ZM95 29.5L93.75 29.5V29.5H95ZM92 26.5V25.25V26.5ZM91.5 26.5H90.25V27.75H91.5V26.5ZM83.5 26H84.75V26L83.5 26ZM83.5 26.5V27.75H84.75V26.5H83.5ZM83 26.5L83 27.75H83V26.5ZM83.5 34.5H84.75V33.25H83.5V34.5ZM86.5 36.75C85.5335 36.75 84.75 35.9665 84.75 35H82.25C82.25 37.3472 84.1528 39.25 86.5 39.25V36.75ZM88.5 36.75H86.5V39.25H88.5V36.75ZM90.25 35C90.25 35.9665 89.4665 36.75 88.5 36.75V39.25C90.8472 39.25 92.75 37.3472 92.75 35H90.25ZM90.25 34.5V35H92.75V34.5H90.25ZM92 33.25H91.5V35.75H92V33.25ZM93.75 31.5C93.75 32.4665 92.9665 33.25 92 33.25V35.75C94.3472 35.75 96.25 33.8472 96.25 31.5H93.75ZM93.75 29.5V31.5H96.25V29.5H93.75ZM92 27.75C92.9665 27.75 93.75 28.5335 93.75 29.5L96.25 29.5C96.25 27.1528 94.3472 25.25 92 25.25V27.75ZM91.5 27.75H92V25.25H91.5V27.75ZM90.25 26V26.5H92.75V26H90.25ZM88.5 24.25C89.4665 24.25 90.25 25.0335 90.25 26H92.75C92.75 23.6528 90.8472 21.75 88.5 21.75V24.25ZM86.5 24.25H88.5V21.75H86.5V24.25ZM84.75 26C84.75 25.0335 85.5335 24.25 86.5 24.25V21.75C84.1528 21.75 82.25 23.6528 82.25 26L84.75 26ZM84.75 26.5V26H82.25V26.5H84.75ZM83 27.75H83.5V25.25H83V27.75ZM81.25 29.5C81.25 28.5335 82.0335 27.75 83 27.75L83 25.25C80.6528 25.25 78.75 27.1528 78.75 29.5H81.25ZM81.25 31.5V29.5H78.75V31.5H81.25ZM83 33.25C82.0335 33.25 81.25 32.4665 81.25 31.5H78.75C78.75 33.8472 80.6528 35.75 83 35.75V33.25ZM83.5 33.25H83V35.75H83.5V33.25ZM84.75 35V34.5H82.25V35H84.75Z" fill="#027A3C"/>
<path fill-rule="evenodd" clip-rule="evenodd" d="M98.0333 54.5C98.0333 55.6046 98.9288 56.5 100.033 56.5H102.967C104.071 56.5 104.967 55.6046 104.967 54.5V53.4667H106C107.105 53.4667 108 52.5712 108 51.4667V48.5333C108 47.4288 107.105 46.5333 106 46.5333H104.967V45.5C104.967 44.3954 104.071 43.5 102.967 43.5H100.033C98.9288 43.5 98.0333 44.3954 98.0333 45.5V46.5333H97C95.8954 46.5333 95 47.4288 95 48.5333V51.4667C95 52.5712 95.8954 53.4667 97 53.4667H98.0333V54.5Z" fill="white"/>
<path fill-rule="evenodd" clip-rule="evenodd" d="M98.0333 54.5C98.0333 55.6046 98.9288 56.5 100.033 56.5H102.967C104.071 56.5 104.967 55.6046 104.967 54.5V53.4667H106C107.105 53.4667 108 52.5712 108 51.4667V48.5333C108 47.4288 107.105 46.5333 106 46.5333H104.967V45.5C104.967 44.3954 104.071 43.5 102.967 43.5H100.033C98.9288 43.5 98.0333 44.3954 98.0333 45.5V46.5333H97C95.8954 46.5333 95 47.4288 95 48.5333V51.4667C95 52.5712 95.8954 53.4667 97 53.4667H98.0333V54.5Z" fill="white"/>
<path fill-rule="evenodd" clip-rule="evenodd" d="M98.0333 54.5C98.0333 55.6046 98.9288 56.5 100.033 56.5H102.967C104.071 56.5 104.967 55.6046 104.967 54.5V53.4667H106C107.105 53.4667 108 52.5712 108 51.4667V48.5333C108 47.4288 107.105 46.5333 106 46.5333H104.967V45.5C104.967 44.3954 104.071 43.5 102.967 43.5H100.033C98.9288 43.5 98.0333 44.3954 98.0333 45.5V46.5333H97C95.8954 46.5333 95 47.4288 95 48.5333V51.4667C95 52.5712 95.8954 53.4667 97 53.4667H98.0333V54.5Z" fill="white"/>
<path d="M104.967 53.4667V52.2167H103.717V53.4667H104.967ZM108 48.5333L106.75 48.5333V48.5333H108ZM106 46.5333V45.2833V46.5333ZM104.967 46.5333H103.717V47.7833H104.967V46.5333ZM98.0333 46.5333V47.7833H99.2833V46.5333H98.0333ZM98.0333 53.4667H99.2833V52.2167H98.0333V53.4667ZM100.033 55.25C99.6191 55.25 99.2833 54.9142 99.2833 54.5H96.7833C96.7833 56.2949 98.2384 57.75 100.033 57.75V55.25ZM102.967 55.25H100.033V57.75H102.967V55.25ZM103.717 54.5C103.717 54.9142 103.381 55.25 102.967 55.25V57.75C104.762 57.75 106.217 56.2949 106.217 54.5H103.717ZM103.717 53.4667V54.5H106.217V53.4667H103.717ZM106 52.2167H104.967V54.7167H106V52.2167ZM106.75 51.4667C106.75 51.8809 106.414 52.2167 106 52.2167V54.7167C107.795 54.7167 109.25 53.2616 109.25 51.4667H106.75ZM106.75 48.5333V51.4667H109.25V48.5333H106.75ZM106 47.7833C106.414 47.7833 106.75 48.1191 106.75 48.5333L109.25 48.5333C109.25 46.7384 107.795 45.2833 106 45.2833V47.7833ZM104.967 47.7833H106V45.2833H104.967V47.7833ZM103.717 45.5V46.5333H106.217V45.5H103.717ZM102.967 44.75C103.381 44.75 103.717 45.0858 103.717 45.5H106.217C106.217 43.7051 104.762 42.25 102.967 42.25V44.75ZM100.033 44.75H102.967V42.25H100.033V44.75ZM99.2833 45.5C99.2833 45.0858 99.6191 44.75 100.033 44.75V42.25C98.2384 42.25 96.7833 43.7051 96.7833 45.5H99.2833ZM99.2833 46.5333V45.5H96.7833V46.5333H99.2833ZM97 47.7833H98.0333V45.2833H97V47.7833ZM96.25 48.5333C96.25 48.1191 96.5858 47.7833 97 47.7833V45.2833C95.2051 45.2833 93.75 46.7384 93.75 48.5333H96.25ZM96.25 51.4667V48.5333H93.75V51.4667H96.25ZM97 52.2167C96.5858 52.2167 96.25 51.8809 96.25 51.4667H93.75C93.75 53.2616 95.2051 54.7167 97 54.7167V52.2167ZM98.0333 52.2167H97V54.7167H98.0333V52.2167ZM99.2833 54.5V53.4667H96.7833V54.5H99.2833Z" fill="#027A3C"/>
<path d="M82.4332 58.9333V57.6833H81.1832V58.9333H82.4332ZM83 53.0667V51.8167V53.0667ZM82.4332 53.0667H81.1832V54.3167H82.4332V53.0667ZM76.5666 53.0667V54.3167H77.8166V53.0667H76.5666ZM76 53.0667L76 54.3167H76V53.0667ZM76.5666 58.9333H77.8166V57.6833H76.5666V58.9333ZM78.5666 60.25C78.1523 60.25 77.8166 59.9142 77.8166 59.5H75.3166C75.3166 61.2949 76.7716 62.75 78.5666 62.75V60.25ZM80.4332 60.25H78.5666V62.75H80.4332V60.25ZM81.1832 59.5C81.1832 59.9142 80.8474 60.25 80.4332 60.25V62.75C82.2281 62.75 83.6832 61.2949 83.6832 59.5H81.1832ZM81.1832 58.9333V59.5H83.6832V58.9333H81.1832ZM83 57.6833H82.4332V60.1833H83V57.6833ZM83.75 56.9333C83.75 57.3475 83.4142 57.6833 83 57.6833V60.1833C84.7949 60.1833 86.25 58.7283 86.25 56.9333H83.75ZM83.75 55.0667V56.9333H86.25V55.0667H83.75ZM83 54.3167C83.4142 54.3167 83.75 54.6524 83.75 55.0667H86.25C86.25 53.2717 84.7949 51.8167 83 51.8167V54.3167ZM82.4332 54.3167H83V51.8167H82.4332V54.3167ZM81.1832 52.5V53.0667H83.6832V52.5H81.1832ZM80.4332 51.75C80.8474 51.75 81.1832 52.0858 81.1832 52.5H83.6832C83.6832 50.7051 82.2281 49.25 80.4332 49.25V51.75ZM78.5666 51.75H80.4332V49.25H78.5666V51.75ZM77.8166 52.5C77.8166 52.0858 78.1523 51.75 78.5666 51.75V49.25C76.7716 49.25 75.3166 50.7051 75.3166 52.5H77.8166ZM77.8166 53.0667V52.5H75.3166V53.0667H77.8166ZM76 54.3167H76.5666V51.8167H76V54.3167ZM75.25 55.0667C75.25 54.6524 75.5858 54.3167 76 54.3167L76 51.8167C74.2051 51.8167 72.75 53.2717 72.75 55.0667H75.25ZM75.25 56.9333V55.0667H72.75V56.9333H75.25ZM76 57.6833C75.5858 57.6833 75.25 57.3475 75.25 56.9333H72.75C72.75 58.7283 74.2051 60.1833 76 60.1833V57.6833ZM76.5666 57.6833H76V60.1833H76.5666V57.6833ZM77.8166 59.5V58.9333H75.3166V59.5H77.8166Z" fill="#027A3C"/>
</svg>
