<svg width="130" height="130" viewBox="0 0 130 130" fill="none" xmlns="http://www.w3.org/2000/svg">
<rect width="130" height="130" rx="9" fill="#ECF5F1"/>
<path d="M48.5234 62.5281C46.0753 55.8049 46.1852 49.1258 51.7809 45.5873C58.4261 41.341 63.9116 46.9586 67.0592 46.9586C70.2068 46.9586 73.734 44.1791 76.1821 44.1791C94.3684 45.5945 84.9801 65.9654 81.133 73.7502C77.2859 81.535 79.2999 89.7748 74.4036 90.8364C69.5073 91.8979 70.9063 70.6667 67.0592 71.0206C63.2121 71.3745 64.6111 89.0671 60.764 90.8364C56.9169 92.6056 55.5179 79.5131 54.4687 76.3284C53.4195 73.1437 50.9716 69.2513 48.5234 62.5281Z" fill="white"/>
<path fill-rule="evenodd" clip-rule="evenodd" d="M108 46.8828C107.684 46.9316 107.37 46.9586 107.059 46.9586C106.096 46.9586 104.914 46.4325 103.546 45.824C100.446 44.4441 96.3925 42.6405 91.7809 45.5873C86.1852 49.1258 86.0753 55.8049 88.5234 62.5281C89.893 66.2894 91.2626 69.1647 92.3872 71.5258C93.2728 73.385 94.0065 74.9254 94.4687 76.3284C94.7148 77.0752 94.9801 78.367 95.2917 79.8841C96.3087 84.8364 97.8191 92.1907 100.764 90.8364C102.664 89.9628 103.284 85.2068 103.889 80.5729C104.509 75.8222 105.112 71.1997 107.059 71.0206C107.415 70.9879 107.725 71.1394 108 71.4404V46.8828Z" fill="white"/>
<path fill-rule="evenodd" clip-rule="evenodd" d="M25 46.8828C25.3163 46.9316 25.6304 46.9586 25.9408 46.9586C26.904 46.9586 28.0862 46.4325 29.4536 45.824C32.5544 44.4441 36.6075 42.6405 41.2191 45.5873C46.8148 49.1258 46.9247 55.8049 44.4766 62.5281C43.107 66.2894 41.7374 69.1647 40.6128 71.5258C39.7272 73.385 38.9935 74.9254 38.5313 76.3284C38.2852 77.0752 38.0199 78.367 37.7083 79.8841C36.6913 84.8364 35.1809 92.1907 32.236 90.8364C30.3364 89.9628 29.7159 85.2068 29.1113 80.5729C28.4914 75.8222 27.8883 71.1997 25.9408 71.0206C25.5855 70.9879 25.2749 71.1394 25 71.4404V46.8828Z" fill="white"/>
<path fill-rule="evenodd" clip-rule="evenodd" d="M35.5883 27.1205C34.256 27.3184 32.1743 28.0375 30.9561 28.7205C27.7251 30.5324 25.3252 33.7045 24.3804 37.4131L24 38.906V65.4707V92.0355L24.3792 93.5237C25.306 97.1606 27.5408 100.164 30.7691 102.112C31.9693 102.837 34.1837 103.604 35.7115 103.825C36.4692 103.934 47.538 103.997 66.5202 103.999C98.8171 104.003 97.5876 104.038 100.268 103.044C101.819 102.468 103.778 101.192 105.027 99.9416C106.156 98.8125 107.336 97.0553 107.944 95.6001C108.178 95.04 108.511 93.9706 108.685 93.2237C108.985 91.9308 109 90.5966 109 65.3859V38.906L108.62 37.4131C107.62 33.4884 105.01 30.1966 101.535 28.4759C100.788 28.1064 99.605 27.6292 98.9052 27.4157L97.6327 27.0275L67.0938 27.0022C50.2974 26.9883 36.1199 27.0414 35.5883 27.1205ZM98.4687 29.1953C102.479 30.3966 105.29 33.1213 106.647 37.1237C106.951 38.0197 106.964 39.1587 106.964 65.4707C106.964 91.7828 106.951 92.9217 106.647 93.8178C105.537 97.0932 103.416 99.5626 100.533 100.94C99.9505 101.218 99.0217 101.581 98.4687 101.746C97.5252 102.029 95.6111 102.05 67.4331 102.098C46.3966 102.134 36.978 102.093 35.9835 101.963C33.4394 101.631 31.0972 100.495 29.3555 98.7502C28.1014 97.4939 27.2242 96.137 26.5721 94.445L26.0359 93.054V65.4707V37.8875L26.5666 36.5112C27.2465 34.7484 28.1253 33.381 29.3472 32.1848C31.038 30.5296 33.4286 29.3226 35.6565 28.9994C36.2743 28.9098 49.5292 28.855 67.0938 28.8694C95.6431 28.8926 97.5233 28.9122 98.4687 29.1953ZM33.9251 34.7473C33.5168 35.1558 33.5008 35.3991 33.85 35.8976L34.114 36.2749H40.2849C45.6686 36.2749 46.4899 36.241 46.7225 36.0083C47.1051 35.6253 47.0518 34.9801 46.6119 34.6721C46.288 34.4449 45.3922 34.4078 40.2496 34.4078C34.4906 34.4078 34.2516 34.4207 33.9251 34.7473ZM33.9251 38.8211C33.5168 39.2297 33.5008 39.4729 33.85 39.9714L34.114 40.3488H40.2849C45.6686 40.3488 46.4899 40.3148 46.7225 40.0821C47.1051 39.6992 47.0518 39.054 46.6119 38.7459C46.288 38.5188 45.3922 38.4816 40.2496 38.4816C34.4906 38.4816 34.2516 38.4945 33.9251 38.8211ZM33.7764 43.2471C32.621 43.3875 31.1008 43.8582 28.0747 45.0123C27.4231 45.2608 26.8327 45.5544 26.7624 45.6648C26.5088 46.064 26.635 46.6248 27.0383 46.8893C27.4864 47.183 27.3155 47.2279 31.2954 45.7687C32.6622 45.2674 33.0545 45.201 35.0359 45.1365C37.553 45.0544 38.7279 45.2696 40.5132 46.1402C42.6927 47.2032 44.2409 49.3878 44.875 52.2956C45.1078 53.3635 45.1489 54.1518 45.0778 56.1997C45.0048 58.3061 44.898 59.1156 44.4813 60.7179C43.6879 63.7689 42.8317 65.9066 40.6062 70.3933C39.4717 72.6806 38.3857 75.0485 38.193 75.6553C37.7261 77.1244 37.2743 78.958 36.645 81.9358C35.5407 87.1625 34.8888 88.9623 33.8768 89.5797C33.5768 89.7627 33.0887 89.9127 32.7923 89.9131C31.4664 89.9146 30.9736 88.1664 30.1127 80.4081C29.4422 74.3673 28.771 71.6071 27.8727 71.1977C27.5841 71.0661 27.3661 71.0599 27.1793 71.1777C26.5882 71.5508 26.5456 71.8599 26.9324 72.9715C27.5021 74.6094 27.7675 76.1204 28.2434 80.4363C28.4835 82.6148 28.7946 85.0845 28.9346 85.9248C29.4621 89.0908 30.2895 90.8465 31.5545 91.4835C31.8785 91.6468 32.4873 91.7789 32.9072 91.7768C34.9657 91.7675 36.4171 90.1612 37.3845 86.8217C37.6098 86.0439 38.1448 83.767 38.5732 81.762C39.0017 79.757 39.5486 77.4673 39.7883 76.6738C40.0282 75.8802 41.0141 73.6637 41.9795 71.7483C43.9971 67.7443 44.7519 65.9997 45.6497 63.2641C46.0021 62.1905 46.2949 61.4361 46.3004 61.5877C46.3182 62.0786 47.5905 65.6746 48.4249 67.5925C48.8717 68.6195 49.87 70.6818 50.6432 72.1756C51.4163 73.6693 52.2779 75.6171 52.5576 76.504C52.8376 77.3909 53.4561 79.9215 53.9324 82.1273C54.4086 84.3331 54.9571 86.6221 55.1512 87.214C55.9281 89.5815 56.9228 90.975 58.2236 91.5176C59.4352 92.0233 60.9112 91.7656 61.6972 90.9111C62.2948 90.2617 62.9402 88.6692 63.2893 86.9824C63.4678 86.1207 63.807 83.6969 64.0431 81.5963C64.7559 75.2551 65.2326 72.8354 65.9191 72.0765C66.5633 71.3642 67.2002 71.8393 67.6827 73.392C68.0846 74.6851 68.4301 76.9095 68.9569 81.5963C69.193 83.6969 69.5322 86.1207 69.7107 86.9824C70.0598 88.6692 70.7052 90.2617 71.3028 90.9111C72.0888 91.7656 73.5648 92.0233 74.7764 91.5176C76.0792 90.9741 77.0717 89.5819 77.8522 87.2036C78.0481 86.6061 78.5174 84.6609 78.8949 82.8808C80.1903 76.7732 80.5818 75.5598 82.3604 72.1427C84.0882 68.823 85.2573 66.1436 86.0978 63.5783L86.8013 61.431L87.1798 62.7294C87.8255 64.9445 89.0323 67.7904 90.8616 71.4117C91.8285 73.3256 92.8461 75.5922 93.1233 76.4484C93.4004 77.3047 93.9823 79.6709 94.4165 81.7065C94.8506 83.742 95.3902 86.0439 95.6155 86.8217C96.5829 90.1612 98.0343 91.7675 100.093 91.7768C101.549 91.7835 102.685 90.822 103.302 89.0594C103.836 87.5321 104.16 85.6498 104.685 81.0022C105.277 75.7714 105.41 74.9735 105.989 73.2166C106.442 71.8412 106.418 71.5545 105.821 71.1777C105.634 71.0599 105.416 71.0661 105.127 71.1977C104.61 71.4336 104.088 72.7339 103.646 74.8915C103.473 75.7317 103.096 78.4815 102.806 81.0022C101.964 88.3316 101.5 89.9147 100.194 89.9131C99.905 89.9127 99.4396 89.7727 99.1597 89.6019C98.1244 88.9703 97.4542 87.1386 96.355 81.9358C95.7263 78.96 95.2741 77.1258 94.8074 75.6553C94.6146 75.0485 93.5149 72.6424 92.3634 70.3084C91.2119 67.9744 89.9893 65.301 89.6468 64.3674C88.2342 60.5188 87.6484 56.9311 87.9132 53.7513C88.0469 52.1473 88.6083 50.2893 89.3333 49.0515C90.3763 47.2707 92.2888 45.9374 94.6557 45.3404C95.4852 45.1313 96.2873 45.0817 97.9641 45.1365C99.9455 45.201 100.338 45.2674 101.705 45.7687C105.684 47.2279 105.514 47.183 105.962 46.8893C106.365 46.6248 106.491 46.064 106.238 45.6648C106.107 45.4592 104.969 44.9955 102.129 43.9898C100.271 43.3322 97.9671 42.9978 96.365 43.1533C94.7351 43.3115 92.8872 43.8482 91.5326 44.5565C89.8675 45.4273 88.2899 47.0553 87.4451 48.7745L86.7894 50.109L86.1552 48.8359C85.8062 48.1357 85.1348 47.1305 84.663 46.6021C82.431 44.1016 78.5949 42.7941 74.7516 43.2235C72.95 43.4249 71.9705 43.6949 69.6479 44.6314C68.1359 45.2411 67.8098 45.3117 66.5092 45.3112C65.1839 45.3107 64.8867 45.243 63.0854 44.5295C59.91 43.2721 57.7694 42.9172 55.2505 43.2303C52.4519 43.5783 49.9449 44.801 48.337 46.6021C47.8652 47.1305 47.1858 48.1481 46.8273 48.8634L46.1753 50.1638L45.8951 49.4295C45.467 48.3082 44.0296 46.3724 43.0495 45.5972C42.5665 45.2153 41.7321 44.681 41.1953 44.4099C39.1678 43.3858 36.314 42.9385 33.7764 43.2471ZM61.1557 45.7673C65.0558 47.2006 64.9992 47.1857 66.5 47.1857C68.0005 47.1857 67.9255 47.2055 71.8443 45.7687C73.2111 45.2674 73.6034 45.201 75.5848 45.1365C77.2616 45.0817 78.0637 45.1313 78.8932 45.3404C81.4247 45.9788 83.3543 47.4126 84.4459 49.4663C84.7514 50.0413 85.1605 51.1084 85.3551 51.838C85.8132 53.5561 85.8481 56.7432 85.4331 58.9356C84.7906 62.3286 83.4834 65.928 81.4775 69.8262C80.7646 71.2116 79.9753 72.7654 79.7237 73.2789C78.995 74.766 78.2495 77.2052 77.5987 80.2316C76.1216 87.1011 75.5068 88.9202 74.4425 89.5695C73.7201 90.0101 72.9194 90.0127 72.5241 89.5756C72.0157 89.0134 71.4587 86.7088 71.0805 83.6032C70.8835 81.9859 70.5735 79.4516 70.3917 77.9715C69.8618 73.6585 69.1677 71.4645 68.0303 70.507C67.0427 69.6756 65.6541 69.7551 64.7561 70.6942C64.0954 71.3854 63.4561 72.9255 63.1005 74.6837C62.9263 75.5448 62.5469 78.3118 62.2575 80.8325C61.5732 86.7915 61.1531 88.8269 60.4463 89.6082C60.0811 90.012 59.2553 89.9952 58.5575 89.5695C57.4932 88.9202 56.8784 87.1011 55.4013 80.2316C55.0693 78.6874 54.5576 76.7014 54.2644 75.8183C53.7054 74.1348 53.5887 73.8805 51.5166 69.8311C50.0992 67.0611 49.0645 64.5397 48.3343 62.0762C47.553 59.4403 47.2701 57.6162 47.2815 55.2862C47.2936 52.834 47.6592 51.1568 48.5511 49.4616C49.5869 47.4931 51.5171 46.0258 53.9451 45.3611C54.6217 45.1758 55.5311 45.1194 57.2535 45.1559C59.4547 45.2024 59.7405 45.2472 61.1557 45.7673ZM30.2774 52.3111C27.5088 53.033 26.7271 53.2677 26.5208 53.439C26.2358 53.6756 26.2195 54.4683 26.494 54.743C26.8125 55.0616 27.6357 54.9854 29.1872 54.4935C30.3898 54.112 30.9405 54.038 32.6557 54.0267C34.6333 54.0134 34.7288 54.0299 35.836 54.5749C36.4707 54.8874 37.1601 55.3771 37.3889 55.6783C37.6153 55.9762 37.9753 56.6399 38.1889 57.1533C38.524 57.9591 38.5781 58.3891 38.584 60.2936C38.5895 62.0815 38.517 62.7701 38.2021 63.9228C37.9884 64.7054 37.2741 66.6914 36.6148 68.3362C35.9555 69.981 35.3155 71.6706 35.1927 72.0907C34.8091 73.4021 34.4521 75.4516 34.0247 78.7956C33.4927 82.9578 33.2409 84.3745 33.0641 84.1976C32.9856 84.119 32.8028 82.4133 32.658 80.4068C32.5131 78.4002 32.2738 75.9566 32.1262 74.9763C31.6232 71.6361 30.546 69.0718 28.9957 67.5234C28.3135 66.8421 27.5023 66.321 27.1226 66.3201C26.7639 66.3193 26.2904 66.8579 26.2906 67.2664C26.2906 67.453 26.758 68.0108 27.3835 68.5704C28.6387 69.6933 29.3219 70.9161 29.8429 72.9722C30.2837 74.7117 30.4782 76.2472 30.7876 80.4292C30.93 82.3547 31.1668 84.3407 31.3137 84.8425C31.4607 85.3444 31.7789 85.9652 32.0212 86.2218C32.3539 86.5744 32.622 86.6886 33.1167 86.6886C33.9913 86.6886 34.5134 86.111 34.9451 84.6651C35.1287 84.051 35.5113 81.7533 35.7957 79.5594C36.08 77.3655 36.4539 74.8762 36.6267 74.0277C36.8124 73.1155 37.4695 71.1576 38.2345 69.2367C39.9169 65.0128 40.3721 63.3423 40.4869 60.9725C40.5899 58.8487 40.3492 57.4943 39.5779 55.857C38.4181 53.395 35.9126 52.0422 32.5747 52.0755C31.7778 52.0834 30.744 52.1894 30.2774 52.3111ZM57.4162 52.2866C55.3261 52.8218 53.7436 54.0197 52.9363 55.6771C52.0802 57.4346 51.8549 58.651 51.9553 60.9725C52.062 63.4381 52.4141 64.7315 54.1991 69.2183C55.6173 72.7831 55.9293 74.086 56.5738 79.1383C56.8119 81.0036 57.0877 82.9882 57.1868 83.5484C57.415 84.8376 57.9613 86.1212 58.418 86.4411C58.6121 86.5773 59.0044 86.6886 59.2894 86.6886C60.26 86.6886 60.8922 85.9521 61.2349 84.422C61.3303 83.9965 61.5215 82.0935 61.6597 80.1931C61.941 76.3289 62.1395 74.7282 62.5384 73.1092C62.8613 71.7989 63.5715 70.1984 64.1943 69.3782C64.7807 68.6057 65.9232 67.8471 66.5 67.8471C67.0768 67.8471 68.2193 68.6057 68.8057 69.3782C69.4285 70.1984 70.1387 71.7989 70.4616 73.1092C70.8604 74.7282 71.0589 76.3289 71.3402 80.1931C71.4785 82.0935 71.6697 83.9965 71.7651 84.422C72.1032 85.9319 72.7408 86.6886 73.6746 86.6886C74.3816 86.6886 74.7701 86.4206 75.1537 85.6681C75.6164 84.761 75.8917 83.3428 76.4228 79.135C76.6701 77.1745 77.0268 74.8448 77.2153 73.9579C77.4058 73.0613 78.0704 71.0641 78.7122 69.4597C80.76 64.3401 81.1931 62.5247 81.0464 59.6791C80.8991 56.8247 80.0114 54.8503 78.2914 53.5517C77.8248 53.1995 76.9469 52.739 76.3403 52.5285C75.4308 52.213 74.8807 52.1464 73.2016 52.1493C71.4308 52.1522 70.9558 52.2177 69.5539 52.6529C68.2419 53.0601 67.6581 53.1503 66.4152 53.1375C65.2552 53.1255 64.5416 53.0111 63.4461 52.6618C62.3452 52.3107 61.5624 52.186 60.1377 52.1347C58.9509 52.0921 57.96 52.1474 57.4162 52.2866ZM97.9418 52.31C95.0084 53.1348 93.427 54.8411 92.688 57.9788C92.3144 59.5644 92.4652 62.338 93.0376 64.4141C93.2764 65.2801 94.0539 67.4503 94.7655 69.2367C95.5276 71.1502 96.1886 73.1188 96.3742 74.0277C96.5474 74.8762 96.8839 77.0981 97.1219 78.9653C97.3599 80.8325 97.63 82.7803 97.7221 83.2938C97.9756 84.705 98.3675 85.7594 98.8207 86.2486C99.1237 86.5757 99.3964 86.6886 99.8833 86.6886C100.378 86.6886 100.647 86.574 100.98 86.2218C101.223 85.9652 101.542 85.3349 101.688 84.8214C101.835 84.308 102.071 82.322 102.212 80.4081C102.519 76.2584 102.715 74.7158 103.157 72.9722C103.678 70.9161 104.361 69.6933 105.616 68.5704C106.772 67.5365 106.947 67.0962 106.399 66.6004C106.002 66.2402 105.728 66.247 105.095 66.633C103.678 67.4976 102.342 69.4347 101.635 71.6516C101 73.6393 100.668 75.8855 100.342 80.4068C100.197 82.4133 100.014 84.119 99.9359 84.1976C99.7591 84.3745 99.5073 82.9578 98.9753 78.7956C98.5479 75.4516 98.1909 73.4021 97.8073 72.0907C97.6845 71.6706 97.0462 69.9851 96.3888 68.3452C95.7315 66.7051 95.0288 64.7573 94.8272 64.0167C94.3885 62.4045 94.2091 59.5961 94.468 58.3885C94.57 57.9128 94.8598 57.0878 95.1117 56.5552C95.6767 55.3614 96.6892 54.5731 98.1777 54.1681C99.6089 53.7787 101.89 53.9158 103.813 54.507C105.66 55.0752 106.276 55.0784 106.64 54.5223C106.897 54.1302 106.897 54.066 106.642 53.6763C106.49 53.4444 106.157 53.2088 105.901 53.153C105.646 53.097 104.788 52.8583 103.995 52.6225C102.18 52.0833 99.281 51.9336 97.9418 52.31ZM63.2764 54.5289C64.4759 54.9176 65.0184 54.9962 66.5 54.9962C67.9784 54.9962 68.5268 54.9171 69.7236 54.5308C70.7071 54.2134 71.686 54.0365 72.8024 53.9749C74.1739 53.8992 74.6364 53.9445 75.6576 54.2548C76.603 54.542 77.0393 54.7885 77.6041 55.3534C78.0473 55.7967 78.485 56.4738 78.723 57.0842C79.0279 57.8659 79.1289 58.517 79.1804 60.039C79.2373 61.713 79.1859 62.2281 78.8187 63.6564C78.5832 64.5723 77.8215 66.7492 77.126 68.494C76.4306 70.2388 75.7431 72.1247 75.5986 72.6848C75.2757 73.9362 74.9072 76.2216 74.5587 79.135C74.177 82.3254 73.7798 84.412 73.6117 84.1112C73.535 83.9741 73.3512 82.1872 73.2036 80.1404C73.0559 78.0937 72.8553 75.8845 72.7579 75.231C72.2469 71.804 71.1808 69.1823 69.6759 67.6526C68.5159 66.4734 67.7041 66.0684 66.5 66.0684C65.2959 66.0684 64.4841 66.4734 63.3241 67.6526C61.8192 69.1823 60.7531 71.804 60.2421 75.231C60.1447 75.8845 59.9441 78.0937 59.7964 80.1404C59.6488 82.1872 59.465 83.9741 59.3883 84.1112C59.2202 84.412 58.823 82.3254 58.4413 79.135C58.0928 76.2216 57.7243 73.9362 57.4014 72.6848C57.2569 72.1247 56.5694 70.2388 55.874 68.494C55.1785 66.7492 54.4168 64.5723 54.1813 63.6564C53.8141 62.2281 53.7627 61.713 53.8196 60.039C53.8711 58.517 53.9721 57.8659 54.277 57.0842C54.8223 55.6862 55.82 54.7269 57.1958 54.2777C58.0826 53.988 58.5841 53.9382 60.0529 53.9939C61.3975 54.045 62.1879 54.1762 63.2764 54.5289ZM82.1466 90.0083C81.7058 90.317 81.6536 90.9617 82.0382 91.3465C82.2752 91.5837 83.0389 91.6101 88.5213 91.5708L94.7356 91.5263L94.9965 91.0496C95.247 90.592 95.2383 90.5562 94.7814 90.1585L94.3053 89.744H88.4146C83.3573 89.744 82.4702 89.7813 82.1466 90.0083ZM82.1466 94.0821C81.7058 94.3909 81.6536 95.0356 82.0382 95.4204C82.2752 95.6575 83.0389 95.684 88.5213 95.6446L94.7356 95.6001L94.9965 95.1235C95.247 94.6659 95.2383 94.63 94.7814 94.2323L94.3053 93.8178H88.4146C83.3573 93.8178 82.4702 93.8552 82.1466 94.0821Z" fill="#027A3C" stroke="#027A3C" stroke-width="0.5"/>
</svg>
