<svg width="130" height="130" viewBox="0 0 130 130" fill="none" xmlns="http://www.w3.org/2000/svg">
<rect width="130" height="130" rx="9" fill="#ECF5F1"/>
<path fill-rule="evenodd" clip-rule="evenodd" d="M48.2952 40.0408C45.9268 33.6748 46.6035 27.9789 52.0169 24.6284C56.5169 21.8139 60.1877 23.268 63.0296 24.3938C64.2476 24.8763 65.3133 25.2985 66.2269 25.2985C67.8449 25.2985 69.7495 24.7308 71.5347 24.1988C73.109 23.7296 74.5904 23.2881 75.7003 23.2881C90.0449 24.3809 86.3961 37.2785 82.5422 46H50.8049C50.0112 44.3017 49.1532 42.3472 48.2952 40.0408ZM63 55L66.5 54L69.5 55L70.7082 64.6654C73.0828 64.4065 75.7168 64.0361 78.4553 63.6511L78.4555 63.651C91.9598 61.752 108.003 59.496 108.003 68.5V100.001C108.003 103.867 104.869 107 101.003 107H32.0043C28.138 107 25.0038 103.869 25.0039 100.003C25.0042 90.7007 25.0036 74.714 24.9961 68.5C24.9856 59.7847 38.846 61.7641 51.6475 63.5922C55.3689 64.1236 59.0008 64.6422 62.1765 64.8817L63 55Z" fill="white"/>
<path fill-rule="evenodd" clip-rule="evenodd" d="M55.4304 22.0854C52.8123 22.4445 50.6026 23.5227 49.0785 25.1851C47.9781 26.3851 47.2889 27.5836 46.7398 29.252C46.2182 30.8367 45.8929 33.5073 46.0364 35.0265C46.3138 37.9618 46.9982 40.8003 48.1624 43.8462C48.9138 45.8121 49.4965 46.5154 50.6398 46.8362C51.5235 47.084 81.2932 47.084 82.1768 46.8362C83.3126 46.5174 83.9038 45.8096 84.6375 43.8899C85.8308 40.767 86.4081 38.4447 86.7026 35.581C87.0099 32.592 86.4057 29.3099 85.1286 27.0313C84.4181 25.7637 82.6102 23.9824 81.3633 23.3209C80.8022 23.0234 79.7372 22.611 78.9966 22.4045C77.9842 22.1223 77.1888 22.0295 75.7906 22.0307C73.6837 22.0326 72.0536 22.3579 70.2184 23.1426C68.2283 23.9936 67.4701 24.1592 65.9857 24.0664C64.9472 24.0017 64.293 23.8394 63.1676 23.3679C62.3616 23.0302 61.1444 22.6105 60.4628 22.4354C58.905 22.0352 56.8426 21.8919 55.4304 22.0854ZM60.2532 24.2992C62.1359 24.7816 63.4873 25.5011 64.7379 26.6871C65.9116 27.8 66.6299 28.2209 67.5742 28.3489C68.0445 28.4126 68.2577 28.3507 68.5001 28.08C68.7196 27.835 68.7819 27.595 68.7059 27.2886C68.5967 26.8492 68.2554 26.6311 67.3803 26.442C67.1247 26.3868 66.9155 26.2797 66.9155 26.204C66.9155 26.1285 67.3645 25.9823 67.9134 25.8791C68.4623 25.776 69.4531 25.4514 70.1154 25.1576C72.0373 24.3052 73.658 23.9566 75.6976 23.9566C77.6848 23.9566 78.939 24.2179 80.3849 24.9333C82.903 26.1793 84.3656 28.5692 84.8427 32.2174C85.0937 34.1374 84.8505 36.7066 84.1638 39.389C83.5278 41.8732 82.5506 44.4625 82.1066 44.8393C81.7768 45.1193 80.7767 45.1382 66.4083 45.1382C52.0399 45.1382 51.0398 45.1193 50.71 44.8393C50.2669 44.4632 49.2891 41.8746 48.6559 39.4012C47.9714 36.7269 47.7369 34.2879 47.9744 32.3129C48.202 30.4219 48.6552 28.9903 49.4413 27.6798C50.4566 25.9866 52.0938 24.8148 54.272 24.2224C54.7748 24.0855 55.9877 23.9742 57.0412 23.9678C58.3913 23.9596 59.2903 24.0524 60.2532 24.2992ZM63.9884 53.1615C63.2533 53.397 62.381 54.1459 62.0306 54.8422C61.7978 55.3046 61.5951 56.589 61.2702 59.6579C61.0266 61.9597 60.8278 63.9392 60.8285 64.0566C60.8293 64.2033 60.5189 64.2701 59.8368 64.2701C59.1863 64.2701 57.4804 63.9237 54.8921 63.266C48.6234 61.6733 44.1891 60.9611 39.1913 60.7442C35.1638 60.5693 30.6106 61.1063 28.1548 62.0458C26.7947 62.5663 25.3271 63.9708 24.6137 65.4351L24.0613 66.5688L24.0158 83.9842C23.9754 99.5145 23.9997 101.503 24.2405 102.351C24.9542 104.866 26.9225 106.897 29.4017 107.676C30.3981 107.99 31.573 108 66.4083 108C101.173 108 102.42 107.989 103.409 107.678C104.828 107.232 105.736 106.656 106.78 105.541C107.909 104.334 108.622 102.813 108.835 101.158C109.054 99.453 109.055 68.9972 108.836 67.4682C108.628 66.0085 107.865 64.4626 106.875 63.4903C106.458 63.0803 105.645 62.5139 105.069 62.2317C103.282 61.3561 98.9902 60.6812 95.2313 60.6847C92.2351 60.6876 88.0234 61.1388 83.905 61.8979C82.8822 62.0863 80.2288 62.6972 78.0087 63.2554C75.4471 63.8992 73.6193 64.2701 73.0073 64.2701H72.0429L71.5843 59.9569C71.0616 55.0395 70.8861 54.4626 69.6483 53.595C68.9331 53.0937 68.8624 53.0805 66.6899 53.0452C65.4659 53.0253 64.25 53.0776 63.9884 53.1615ZM68.5001 55.0376C68.7329 55.1271 69.0024 55.3493 69.0989 55.5314C69.247 55.8109 70.1274 63.0279 70.1274 63.9616C70.1274 64.2498 69.8814 64.2701 66.4083 64.2701C63.2596 64.2701 62.6892 64.2318 62.6892 64.0205C62.6892 63.8833 62.8797 61.9944 63.1125 59.8231C63.3453 57.6517 63.6165 55.7226 63.7152 55.5362C63.8139 55.3499 64.0609 55.1297 64.2639 55.047C64.7658 54.8427 67.9742 54.8355 68.5001 55.0376ZM43.8841 62.9841C46.6175 63.3347 50.0321 63.9771 53.0534 64.7091L55.5046 65.303L55.5142 66.2813C55.5196 66.8192 55.6295 67.49 55.7585 67.7719C56.0097 68.3204 56.0464 68.454 56.0768 68.9336C56.0878 69.108 56.3343 69.3436 56.6457 69.4774C56.9478 69.607 57.7224 70.2532 58.3668 70.9133L59.5383 72.1131L59.2244 72.7023C58.9272 73.2597 58.9258 73.3152 59.1977 73.7345C59.3557 73.9783 59.6355 74.1776 59.8192 74.1776C60.003 74.1776 60.1535 74.2111 60.1535 74.2519C60.1535 74.2928 60.2693 74.8824 60.4108 75.5625L60.6682 76.7987L60.2028 77.2895C59.7618 77.7546 59.751 77.8041 59.9934 78.2423C60.1342 78.4965 60.4118 78.7281 60.6102 78.7571C60.9179 78.8021 61.0065 79.0043 61.2092 80.1237C61.4428 81.4129 61.4399 81.4464 61.0609 81.9119C60.6843 82.3746 60.6802 82.7111 61.0457 83.1884C61.1356 83.3059 61.339 83.4019 61.4977 83.4019C61.7219 83.4019 61.8519 83.7104 62.0798 84.7813L62.3731 86.1607L61.9395 86.5667C61.7009 86.7901 61.5059 87.0918 61.5059 87.2372C61.5059 87.6055 62.1165 88.1849 62.5044 88.1849C62.7482 88.1849 62.9004 88.4211 63.1284 89.1541C63.5162 90.3994 64.3084 91.5823 65.0427 92.0118C65.7605 92.4318 66.9697 92.4501 67.7218 92.0522C68.4678 91.6575 69.187 90.611 69.6241 89.2834C69.9014 88.4413 70.0616 88.1849 70.3103 88.1849C70.6998 88.1849 71.3108 87.6061 71.3108 87.2372C71.3108 87.0918 71.1157 86.7901 70.8771 86.5667L70.4435 86.1607L70.7308 84.8102C70.984 83.619 71.0721 83.4388 71.4763 83.2847C72.106 83.0446 72.2186 82.4826 71.7533 81.9028C71.39 81.4501 71.3862 81.4018 71.6147 80.1234C71.8145 79.0055 71.9033 78.8016 72.2084 78.7568C72.4059 78.7279 72.6824 78.4965 72.8232 78.2423C73.0657 77.8041 73.0549 77.7546 72.6138 77.2895L72.1484 76.7987L72.4059 75.5625C72.5474 74.8824 72.6632 74.2928 72.6632 74.2519C72.6632 74.2111 72.8136 74.1776 72.9974 74.1776C73.1811 74.1776 73.4609 73.9783 73.619 73.7345C73.8908 73.3152 73.8895 73.2597 73.5923 72.7023L73.2783 72.1131L74.4499 70.9133C75.0943 70.2532 75.8687 69.607 76.1709 69.4774C76.4823 69.3436 76.7288 69.108 76.7398 68.9336C76.7702 68.454 76.8069 68.3204 77.0581 67.7719C77.1871 67.49 77.297 66.8235 77.3024 66.2905L77.312 65.3216L79.7661 64.7188C84.8086 63.48 89.4011 62.7892 93.7018 62.6229C97.7277 62.4669 101.758 62.9163 104.027 63.7742C105.128 64.1905 106.062 65.0931 106.584 66.2454L106.987 67.133L106.941 84.6199L106.896 102.107L106.395 103.02C105.743 104.211 104.494 105.331 103.327 105.772L102.395 106.124L66.1865 106.08L29.978 106.036L29.0139 105.557C27.8069 104.958 26.6425 103.673 26.1835 102.434C25.8417 101.511 25.8363 101.23 25.838 84.2922L25.8397 67.0886L26.2349 66.2345C26.8034 65.0063 27.9308 64.0272 29.2503 63.6153C30.2585 63.3007 32.8218 62.8248 34.3733 62.6642C35.7553 62.5211 41.8812 62.7272 43.8841 62.9841ZM75.4726 66.688C75.4139 66.9844 75.2811 67.3303 75.1773 67.4567C75.0236 67.6436 73.3904 67.6865 66.4083 67.6865C59.4262 67.6865 57.793 67.6436 57.6394 67.4567C57.5356 67.3303 57.4027 66.9844 57.344 66.688L57.2373 66.1491H66.4083H75.5793L75.4726 66.688ZM73.0013 69.6729C73.0013 69.732 72.7276 70.0863 72.3932 70.4604C72.0586 70.8345 71.6773 71.4011 71.5456 71.7195L71.3062 72.2986H66.4083H61.5104L61.271 71.7195C61.1394 71.4011 60.758 70.8345 60.4234 70.4604C60.0891 70.0863 59.8154 69.732 59.8154 69.6729C59.8154 69.6138 62.7822 69.5655 66.4083 69.5655C70.0344 69.5655 73.0013 69.6138 73.0013 69.6729ZM70.8026 74.3058C70.8021 74.3763 70.7329 74.7029 70.6491 75.0317C70.5651 75.3606 70.4479 75.918 70.3888 76.2702L70.2811 76.9108H66.4083H62.5355L62.4279 76.2702C62.3687 75.918 62.2515 75.3606 62.1675 75.0317C62.0837 74.7029 62.0145 74.3763 62.014 74.3058C62.0135 74.2352 63.9909 74.1776 66.4083 74.1776C68.8257 74.1776 70.8031 74.2352 70.8026 74.3058ZM69.8752 79.3449C69.8211 79.6504 69.7205 80.246 69.6515 80.6688L69.5264 81.4375H66.4083H63.2902L63.1651 80.6688C63.0961 80.246 62.9955 79.6504 62.9414 79.3449L62.8429 78.7898H66.4083H69.9737L69.8752 79.3449ZM69.1131 83.5261C69.1131 83.5944 68.986 84.2478 68.8308 84.9781L68.5483 86.3059H66.4083H64.2683L63.9858 84.9781C63.8306 84.2478 63.7035 83.5944 63.7035 83.5261C63.7035 83.4578 64.9207 83.4019 66.4083 83.4019C67.896 83.4019 69.1131 83.4578 69.1131 83.5261ZM67.83 88.9109C67.4505 90.0212 67.0461 90.4624 66.4083 90.4624C65.7705 90.4624 65.3661 90.0212 64.9866 88.9109L64.7383 88.1849H66.4083H68.0784L67.83 88.9109Z" fill="#027A3C" stroke="#027A3C" stroke-width="0.5"/>
</svg>
