<svg width="56" height="56" viewBox="0 0 56 56" fill="none" xmlns="http://www.w3.org/2000/svg">
<path d="M33.4208 17.1929C34.8543 17.1971 36.2278 17.7685 37.2414 18.7821C38.255 19.7957 38.8264 21.1692 38.8306 22.6026V33.4211C38.8264 34.8545 38.255 36.228 37.2414 37.2416C36.2278 38.2552 34.8543 38.8266 33.4208 38.8308H22.6024C21.169 38.8266 19.7955 38.2552 18.7819 37.2416C17.7683 36.228 17.1969 34.8545 17.1926 33.4211V22.6026C17.1969 21.1692 17.7683 19.7957 18.7819 18.7821C19.7955 17.7685 21.169 17.1971 22.6024 17.1929H33.4208ZM33.4208 15.0293H22.6024C18.437 15.0293 15.0291 18.4372 15.0291 22.6026V33.4211C15.0291 37.5865 18.437 40.9944 22.6024 40.9944H33.4208C37.5863 40.9944 40.9942 37.5865 40.9942 33.4211V22.6026C40.9942 18.4372 37.5863 15.0293 33.4208 15.0293Z" fill="white"/>
<path d="M35.0437 22.6021C34.7227 22.6021 34.4089 22.5069 34.1421 22.3286C33.8752 22.1503 33.6672 21.8968 33.5444 21.6003C33.4215 21.3038 33.3894 20.9775 33.452 20.6627C33.5146 20.3479 33.6692 20.0587 33.8961 19.8318C34.1231 19.6048 34.4123 19.4502 34.7271 19.3876C35.0419 19.325 35.3681 19.3571 35.6647 19.48C35.9612 19.6028 36.2147 19.8108 36.393 20.0777C36.5713 20.3445 36.6665 20.6583 36.6665 20.9793C36.6669 21.1925 36.6253 21.4037 36.5439 21.6008C36.4625 21.7979 36.343 21.977 36.1922 22.1278C36.0414 22.2786 35.8623 22.3981 35.6652 22.4795C35.4681 22.5609 35.2569 22.6025 35.0437 22.6021ZM28.0116 23.6836C28.8676 23.6836 29.7043 23.9374 30.416 24.4129C31.1277 24.8885 31.6824 25.5644 32.0099 26.3551C32.3375 27.1459 32.4232 28.0161 32.2562 28.8556C32.0892 29.6951 31.677 30.4662 31.0718 31.0714C30.4665 31.6767 29.6954 32.0889 28.8559 32.2558C28.0164 32.4228 27.1463 32.3371 26.3555 32.0096C25.5647 31.682 24.8888 31.1273 24.4133 30.4156C23.9377 29.7039 23.6839 28.8672 23.6839 28.0113C23.6852 26.8639 24.1415 25.7638 24.9528 24.9525C25.7642 24.1412 26.8642 23.6848 28.0116 23.6836ZM28.0116 21.52C26.7278 21.52 25.4728 21.9007 24.4053 22.614C23.3378 23.3273 22.5058 24.3411 22.0145 25.5272C21.5232 26.7133 21.3946 28.0185 21.6451 29.2777C21.8956 30.5369 22.5138 31.6935 23.4216 32.6013C24.3294 33.5091 25.4861 34.1274 26.7452 34.3778C28.0044 34.6283 29.3096 34.4998 30.4957 34.0084C31.6819 33.5171 32.6957 32.6851 33.4089 31.6176C34.1222 30.5502 34.5029 29.2951 34.5029 28.0113C34.5029 26.2897 33.819 24.6386 32.6017 23.4213C31.3843 22.2039 29.7332 21.52 28.0116 21.52Z" fill="white"/>
<rect x="0.360464" y="0.360647" width="55.3023" height="55.3023" rx="3.7093" stroke="white" stroke-width="0.674419"/>
</svg>
