<svg width="361" height="114" viewBox="0 0 361 114" fill="none" xmlns="http://www.w3.org/2000/svg">
<path fill-rule="evenodd" clip-rule="evenodd" d="M60.6965 113.156L0.459547 33.1437C0.267834 32.9276 0.126605 32.6723 0.0459604 32.3959C-0.0153201 32.134 -0.0153201 31.8617 0.0459604 31.5998C0.0708256 31.3359 0.153884 31.0807 0.289249 30.8521C0.36423 30.7068 0.453895 30.5694 0.556863 30.442L0.72716 30.249L27.2207 4.70379L27.5126 4.46257C27.6627 4.36599 27.8268 4.29279 27.9992 4.24548C28.1575 4.16567 28.3326 4.12432 28.5101 4.12486L66.9732 0.192981L69.0655 0H71.1577L109.621 4.24548C109.798 4.25118 109.971 4.29219 110.132 4.36608C110.296 4.41349 110.453 4.4868 110.594 4.58319L110.91 4.8244L137.258 30.1284L137.428 30.3214C137.547 30.4419 137.645 30.5803 137.72 30.7315C137.844 30.9648 137.927 31.2178 137.963 31.4792C138.012 31.7424 138.012 32.0121 137.963 32.2753C137.905 32.5458 137.789 32.8009 137.623 33.0231L77.3614 113.036C77.036 113.395 76.6092 113.649 76.1364 113.765C75.6637 113.881 75.1666 113.854 74.7096 113.687L74.2961 113.446C74.0014 113.201 73.7752 112.886 73.6392 112.529C73.4722 112.159 73.4214 111.747 73.4932 111.347L81.5216 68.3377L71.7902 55.7701C71.6238 55.5571 71.5074 55.3098 71.4496 55.0465C71.4015 54.759 71.4015 54.4656 71.4496 54.1781L76.8019 15.5828C76.8532 15.1697 77.0316 14.7823 77.3128 14.4732C77.5594 14.1542 77.8992 13.9183 78.2859 13.7978L98.892 7.23661L71.0361 4.31784L69.0655 4.12486L67.0949 4.31784L39.2389 7.23661L59.918 13.7978C60.3084 13.9246 60.6543 14.1588 60.9155 14.4732C61.1566 14.8387 61.2835 15.2667 61.2804 15.7034L66.6083 54.2987C66.6804 54.5837 66.6804 54.882 66.6083 55.1671C66.5505 55.4304 66.4342 55.6777 66.2677 55.8907L56.5364 68.4583L64.5891 111.468C64.6609 111.867 64.61 112.279 64.4431 112.65C64.3067 113.012 64.0707 113.33 63.7619 113.566C63.2981 113.908 62.7178 114.057 62.145 113.98C61.5722 113.904 61.0524 113.608 60.6965 113.156ZM83.8084 37.1962L79.8429 25.4005L76.9235 46.459L83.8084 37.1962ZM83.4678 44.9152L76.3396 54.564L82.1541 62.1142L83.4678 44.9152ZM85.8277 69.3749L79.5266 103.146L117.211 53.0685L85.8277 69.3749ZM88.2605 39.5119L86.3629 64.2128L121.955 45.8318L118.282 36.183L88.2605 39.5119ZM122.855 35.5317L125.288 42.3342L131.249 34.5669L122.855 35.5317ZM121.152 31.4069L131.103 30.2731L114.803 14.5215L121.152 31.4069ZM90.9123 34.8804L116.7 31.9134L108.745 10.7584L90.9123 34.8804ZM81.6919 17.3437L86.9225 32.9507L103.587 10.3725L81.6919 17.3437ZM20.8954 53.0685L58.6043 103.146L52.2789 69.3267L20.8954 53.0685ZM19.8249 36.183L16.1513 45.8318L51.768 64.3334L49.8704 39.6325L19.8249 36.183ZM56.0498 62.1142L61.7913 54.6123L54.7117 44.9152L56.0498 62.1142ZM54.3225 37.2444L61.1831 46.5073L58.2637 25.4487L54.3225 37.2444ZM51.1841 32.9266L56.3174 17.3678L34.4706 10.3484L51.1841 32.9266ZM47.1213 34.8804L29.2886 10.7584L21.3333 31.9134L47.1213 34.8804ZM16.9298 31.3586L23.3039 14.4732L7.00386 30.2249L16.9298 31.3586ZM12.94 42.2859L15.3728 35.4835L7.07686 34.5186L12.94 42.2859ZM358.473 53.0229C357.831 52.2712 357.081 51.6186 356.247 51.0863C356.707 50.6558 357.123 50.1814 357.49 49.67C358.678 47.9052 359.284 45.8133 359.224 43.6869C359.315 42.1385 359.025 40.5915 358.38 39.1809C357.735 37.7703 356.755 36.5388 355.525 35.5938C352.741 33.7484 349.438 32.8466 346.102 33.0213H338.385C338.138 33.0213 337.894 33.0699 337.666 33.1644C337.438 33.2588 337.231 33.3971 337.056 33.5716C336.882 33.7461 336.743 33.9532 336.649 34.1811C336.555 34.4091 336.506 34.6534 336.506 34.9001V36.1719C336.506 36.6702 336.704 37.148 337.056 37.5004C337.409 37.8527 337.886 38.0506 338.385 38.0506H346.102C348.307 37.8882 350.509 38.4133 352.403 39.5536C353.007 40.0312 353.484 40.6503 353.791 41.3561C354.099 42.062 354.228 42.8327 354.166 43.6002C354.232 44.3516 354.122 45.108 353.846 45.8101C353.571 46.5121 353.136 47.1408 352.577 47.6468C350.938 48.734 348.991 49.2613 347.027 49.1498H338.356C337.862 49.1497 337.389 49.3437 337.037 49.6898C336.686 50.0359 336.485 50.5064 336.477 50.9996V52.3003C336.484 52.7963 336.685 53.2698 337.036 53.6205C337.386 53.9713 337.86 54.1716 338.356 54.1791H348.501C350.505 54.0628 352.486 54.6451 354.108 55.8266C354.713 56.302 355.196 56.9141 355.517 57.6126C355.839 58.3111 355.99 59.0759 355.958 59.8443C356.006 60.6947 355.864 61.5451 355.544 62.3346C355.225 63.1241 354.734 63.8332 354.108 64.4111C352.502 65.6255 350.511 66.2206 348.501 66.0875H338.356C337.86 66.095 337.386 66.2953 337.036 66.646C336.685 66.9968 336.484 67.4703 336.477 67.9663V69.2381C336.477 69.4848 336.526 69.7291 336.62 69.957C336.714 70.185 336.853 70.3921 337.027 70.5665C337.202 70.741 337.409 70.8794 337.637 70.9738C337.865 71.0682 338.109 71.1168 338.356 71.1168H348.501C351.72 71.259 354.882 70.2324 357.404 68.2264C358.597 67.1857 359.539 65.8885 360.16 64.4318C360.781 62.9751 361.064 61.3969 360.988 59.8153C361.019 57.318 360.123 54.8977 358.473 53.0229ZM275.374 46.5195V69.2381C275.374 69.4848 275.423 69.7291 275.517 69.957C275.612 70.185 275.75 70.3921 275.925 70.5665C276.099 70.741 276.306 70.8794 276.534 70.9738C276.762 71.0682 277.006 71.1168 277.253 71.1168H278.525C278.772 71.1168 279.016 71.0682 279.244 70.9738C279.472 70.8794 279.679 70.741 279.853 70.5665C280.028 70.3921 280.166 70.185 280.261 69.957C280.355 69.7291 280.404 69.4848 280.404 69.2381V34.9001C280.404 34.6534 280.355 34.4091 280.261 34.1811C280.166 33.9532 280.028 33.7461 279.853 33.5716C279.679 33.3971 279.472 33.2588 279.244 33.1643C279.016 33.0699 278.772 33.0213 278.525 33.0213H277.08C276.715 33.017 276.358 33.1221 276.054 33.3231C275.75 33.524 275.513 33.8116 275.374 34.1486L262.685 62.7346L250.112 34.1486C249.962 33.8138 249.719 33.5294 249.411 33.3295C249.104 33.1296 248.745 33.0226 248.378 33.0213H246.615C246.117 33.0213 245.639 33.2193 245.286 33.5716C244.934 33.9239 244.736 34.4018 244.736 34.9001V69.2381C244.736 69.4848 244.785 69.7291 244.879 69.957C244.974 70.185 245.112 70.3921 245.286 70.5665C245.461 70.741 245.668 70.8794 245.896 70.9738C246.124 71.0682 246.368 71.1168 246.615 71.1168H247.887C248.133 71.1168 248.378 71.0682 248.606 70.9738C248.834 70.8794 249.041 70.741 249.215 70.5665C249.39 70.3921 249.528 70.185 249.622 69.957C249.717 69.7291 249.765 69.4848 249.765 69.2381V45.8258L260.547 70.0184C260.696 70.3455 260.936 70.6229 261.238 70.8176C261.541 71.0122 261.892 71.1161 262.252 71.1168H263.264C263.627 71.1181 263.984 71.0154 264.291 70.8208C264.598 70.6262 264.844 70.3478 264.998 70.0184L275.374 46.5195ZM189.993 70.906C189.726 71.0473 189.427 71.1198 189.125 71.1168L187.737 71.059C187.355 71.0602 186.981 70.9446 186.666 70.7277C186.351 70.5108 186.11 70.2028 185.974 69.845L182.737 60.8559H168.545L165.163 69.9028C165.028 70.2606 164.787 70.5686 164.472 70.7855C164.157 71.0024 163.783 71.118 163.4 71.1168H161.868C161.569 71.118 161.274 71.0479 161.008 70.9121C160.741 70.7764 160.511 70.579 160.336 70.3364C160.167 70.0848 160.057 69.7973 160.017 69.4964C159.977 69.1956 160.007 68.8895 160.105 68.6022L172.939 34.2353C173.077 33.8798 173.32 33.5741 173.634 33.3577C173.948 33.1413 174.32 33.0241 174.702 33.0213H176.263C176.644 33.0241 177.016 33.1413 177.33 33.3577C177.645 33.5741 177.887 33.8798 178.026 34.2353L190.888 68.6022C190.988 68.8843 191.019 69.1862 190.979 69.4829C190.939 69.7795 190.828 70.0622 190.657 70.3075C190.489 70.559 190.261 70.7647 189.993 70.906ZM175.482 41.9238L170.279 55.8266H180.743L175.482 41.9238ZM233.092 69.4829C233.051 69.7795 232.941 70.0622 232.769 70.3075C232.581 70.5701 232.327 70.7781 232.033 70.9102C231.738 71.0422 231.414 71.0936 231.093 71.059H229.705C229.323 71.0602 228.949 70.9446 228.634 70.7277C228.319 70.5108 228.078 70.2028 227.942 69.845L217.624 41.7793L207.16 69.9028C207.025 70.2606 206.784 70.5686 206.469 70.7855C206.153 71.0024 205.78 71.118 205.397 71.1168H204.01C203.711 71.118 203.416 71.0478 203.149 70.9121C202.883 70.7764 202.653 70.579 202.478 70.3364C202.308 70.0848 202.199 69.7973 202.159 69.4964C202.118 69.1956 202.149 68.8895 202.247 68.6022L215.08 34.2353C215.219 33.8798 215.461 33.5741 215.775 33.3577C216.09 33.1413 216.462 33.0241 216.843 33.0213H218.404C218.786 33.0241 219.158 33.1413 219.472 33.3577C219.786 33.5741 220.028 33.8798 220.167 34.2353L233 68.6022C233.101 68.8843 233.132 69.1862 233.092 69.4829ZM325.582 69.4807C325.546 69.7786 325.437 70.0629 325.263 70.3075C325.087 70.5577 324.853 70.7618 324.581 70.9027C324.31 71.0436 324.008 71.117 323.702 71.1168H322.315C321.933 71.114 321.561 70.9969 321.247 70.7804C320.932 70.564 320.69 70.2583 320.552 69.9028L317.17 60.8559H303.007L299.596 69.9028C299.466 70.2583 299.23 70.5653 298.92 70.7824C298.61 70.9995 298.24 71.1162 297.862 71.1168H296.446C296.142 71.1253 295.841 71.0578 295.571 70.9205C295.3 70.7831 295.068 70.5803 294.896 70.3304C294.723 70.0805 294.616 69.7915 294.584 69.4897C294.552 69.1879 294.596 68.8828 294.711 68.6022L307.545 34.2353C307.68 33.8775 307.921 33.5696 308.236 33.3527C308.552 33.1357 308.925 33.0201 309.308 33.0214H310.84C311.222 33.0201 311.596 33.1357 311.911 33.3527C312.226 33.5696 312.468 33.8775 312.603 34.2353L325.465 68.6022C325.577 68.8806 325.617 69.1827 325.582 69.4807ZM310.088 41.9527L304.886 55.8555H315.291L310.088 41.9527ZM175.256 79.8755C175.041 79.9757 174.851 80.1237 174.702 80.3083C174.332 80.8293 174.158 81.4638 174.21 82.1004V83.2276C174.192 83.8155 174.364 84.3936 174.702 84.8751C174.851 85.0597 175.041 85.2077 175.256 85.3079C175.472 85.4081 175.707 85.4578 175.945 85.4532C176.382 85.4861 176.816 85.3518 177.159 85.0775C177.301 84.9284 177.411 84.751 177.481 84.5568C177.55 84.3626 177.578 84.156 177.563 83.9502C177.563 83.9135 177.571 83.8771 177.585 83.8435C177.6 83.8099 177.622 83.7798 177.649 83.7552C177.677 83.7307 177.709 83.7121 177.744 83.7009C177.779 83.6897 177.816 83.686 177.852 83.6901H178.373C178.436 83.6871 178.499 83.7054 178.552 83.742C178.604 83.7786 178.643 83.8315 178.662 83.8924C178.689 84.238 178.635 84.5852 178.505 84.9064C178.374 85.2275 178.171 85.5137 177.91 85.7423C177.36 86.1995 176.659 86.4363 175.945 86.407C175.55 86.4208 175.158 86.3447 174.798 86.1844C174.437 86.0242 174.118 85.784 173.864 85.4821C173.325 84.8238 173.047 83.9906 173.083 83.1409V82.0137C173.047 81.164 173.325 80.3307 173.864 79.6724C174.118 79.3705 174.437 79.1304 174.798 78.9701C175.158 78.8099 175.55 78.7338 175.945 78.7475C176.659 78.7182 177.36 78.9551 177.91 79.4123C178.173 79.6393 178.378 79.9254 178.508 80.2469C178.639 80.5684 178.691 80.9164 178.662 81.2621C178.644 81.326 178.606 81.3827 178.554 81.4242C178.502 81.4656 178.439 81.4898 178.373 81.4934H177.852C177.813 81.498 177.774 81.4937 177.736 81.4808C177.699 81.468 177.665 81.4468 177.638 81.419C177.61 81.3912 177.589 81.3574 177.576 81.3202C177.563 81.283 177.559 81.2434 177.563 81.2043C177.572 81.0079 177.541 80.8118 177.471 80.6279C177.402 80.444 177.295 80.2762 177.159 80.1349C176.994 79.9885 176.802 79.8771 176.593 79.8075C176.385 79.7379 176.164 79.7116 175.945 79.7302C175.707 79.7257 175.472 79.7754 175.256 79.8755ZM185.194 78.7764H179.847C179.77 78.7764 179.696 78.8069 179.642 78.8611C179.588 78.9153 179.558 78.9888 179.558 79.0654V79.5568C179.557 79.5935 179.565 79.6299 179.58 79.6635C179.595 79.6971 179.616 79.7272 179.644 79.7518C179.671 79.7764 179.703 79.7948 179.738 79.8061C179.773 79.8173 179.81 79.821 179.847 79.8169H181.986V85.9735C181.992 86.048 182.025 86.1177 182.077 86.1706C182.13 86.2235 182.2 86.256 182.275 86.2625H182.853C182.924 86.2553 182.991 86.2217 183.039 86.1683C183.087 86.1149 183.113 86.0454 183.113 85.9735V79.8169H185.194C185.266 79.8173 185.335 79.7908 185.389 79.7427C185.442 79.6946 185.476 79.6283 185.483 79.5568V79.0654C185.476 78.991 185.444 78.9212 185.391 78.8683C185.338 78.8154 185.268 78.7829 185.194 78.7764ZM188.239 78.9083C188.609 78.7481 189.011 78.6734 189.414 78.6896C189.826 78.6667 190.238 78.7381 190.619 78.8984C191 79.0586 191.339 79.3036 191.611 79.6146C192.169 80.2631 192.459 81.1007 192.42 81.9558V83.0831C192.465 83.939 192.175 84.7788 191.611 85.4243C191.343 85.733 191.009 85.9767 190.633 86.137C190.258 86.2973 189.851 86.3698 189.443 86.3492C189.037 86.356 188.634 86.2771 188.26 86.1177C187.887 85.9584 187.551 85.7221 187.275 85.4243C186.732 84.7686 186.453 83.9335 186.494 83.0831V81.9558C186.459 81.1061 186.737 80.2729 187.275 79.6146C187.539 79.3098 187.869 79.0684 188.239 78.9083ZM190.801 84.7306C191.147 84.2529 191.32 83.672 191.293 83.0831V81.9558C191.331 81.3698 191.145 80.7911 190.772 80.3372C190.609 80.1381 190.401 79.9816 190.164 79.8809C189.928 79.7802 189.67 79.7384 189.414 79.7591C189.169 79.7442 188.925 79.7861 188.699 79.8814C188.474 79.9766 188.273 80.1227 188.113 80.3083C187.767 80.7859 187.594 81.3668 187.622 81.9558V83.0831C187.594 83.672 187.767 84.2529 188.113 84.7306C188.276 84.9219 188.48 85.0735 188.711 85.1737C188.941 85.2739 189.192 85.3201 189.443 85.3087C189.698 85.3182 189.952 85.2713 190.187 85.1714C190.421 85.0714 190.631 84.9209 190.801 84.7306ZM200.975 78.7764H200.282C200.225 78.7732 200.17 78.7884 200.123 78.8196C200.076 78.8509 200.04 78.8966 200.022 78.9498L197.68 84.4416L195.368 78.9498C195.349 78.8966 195.314 78.8509 195.267 78.8196C195.22 78.7884 195.164 78.7732 195.108 78.7764H194.356C194.282 78.7829 194.212 78.8154 194.159 78.8683C194.106 78.9212 194.074 78.991 194.067 79.0654V85.9735C194.074 86.048 194.106 86.1177 194.159 86.1706C194.212 86.2234 194.282 86.256 194.356 86.2625H194.935C195.006 86.2553 195.072 86.2217 195.12 86.1683C195.169 86.1148 195.195 86.0454 195.195 85.9735V81.4066L197.218 86.1469C197.243 86.1958 197.28 86.2374 197.325 86.2678C197.371 86.2982 197.423 86.3163 197.478 86.3203H197.883C197.938 86.3194 197.992 86.3026 198.038 86.2718C198.084 86.2411 198.121 86.1977 198.143 86.1469L200.108 81.5222V86.0313C200.115 86.1058 200.147 86.1755 200.2 86.2284C200.253 86.2813 200.323 86.3138 200.397 86.3203H200.975C201.05 86.3138 201.12 86.2813 201.173 86.2284C201.225 86.1755 201.258 86.1058 201.264 86.0313V79.1233C201.268 79.0815 201.264 79.0393 201.252 78.9992C201.239 78.9591 201.219 78.9218 201.192 78.8896C201.165 78.8573 201.132 78.8307 201.095 78.8113C201.058 78.7919 201.017 78.78 200.975 78.7764ZM205.339 78.7764H205.889C205.932 78.7937 205.97 78.8212 206 78.8564C206.03 78.8916 206.052 78.9336 206.062 78.9787L208.577 85.8868C208.597 85.9271 208.608 85.9717 208.608 86.0169C208.608 86.062 208.597 86.1066 208.577 86.1469C208.502 86.1734 208.42 86.1734 208.346 86.1469H207.767C207.709 86.1437 207.652 86.1226 207.606 86.0864C207.559 86.0503 207.525 86.0008 207.507 85.9446L206.871 84.2104H204.241L203.605 85.9446C203.588 86.0008 203.553 86.0503 203.507 86.0864C203.46 86.1226 203.404 86.1437 203.345 86.1469H202.767C202.731 86.1647 202.692 86.174 202.651 86.174C202.611 86.174 202.572 86.1647 202.536 86.1469C202.515 86.1066 202.505 86.062 202.505 86.0169C202.505 85.9717 202.515 85.9271 202.536 85.8868L205.079 78.9787C205.1 78.9245 205.135 78.8769 205.181 78.8412C205.227 78.8055 205.282 78.7831 205.339 78.7764ZM205.629 80.6552L204.675 83.2565H206.553L205.629 80.6552ZM214.329 78.7764H208.982C208.911 78.7836 208.844 78.8172 208.796 78.8706C208.748 78.9241 208.722 78.9935 208.722 79.0654V79.5568C208.722 79.591 208.729 79.6248 208.742 79.6563C208.755 79.6879 208.774 79.7166 208.798 79.7408C208.822 79.7649 208.851 79.7841 208.883 79.7971C208.914 79.8102 208.948 79.8169 208.982 79.8169H211.15V85.9735C211.149 86.0454 211.176 86.1149 211.224 86.1683C211.272 86.2217 211.338 86.2553 211.41 86.2625H211.988C212.063 86.256 212.132 86.2235 212.185 86.1706C212.238 86.1177 212.271 86.048 212.277 85.9735V79.8169H214.329C214.366 79.821 214.403 79.8173 214.438 79.8061C214.473 79.7948 214.505 79.7764 214.532 79.7518C214.56 79.7272 214.581 79.6971 214.596 79.6635C214.611 79.6299 214.619 79.5935 214.618 79.5568V79.0654C214.618 78.9888 214.588 78.9153 214.534 78.8611C214.479 78.8069 214.406 78.7764 214.329 78.7764ZM217.283 78.8993C217.655 78.7387 218.058 78.6669 218.462 78.6897C218.87 78.6669 219.278 78.7384 219.654 78.8989C220.03 79.0593 220.364 79.3042 220.63 79.6146C221.199 80.2587 221.499 81.0968 221.468 81.9558V83.0831C221.499 83.9369 221.21 84.7715 220.659 85.4243C220.38 85.7258 220.039 85.9643 219.66 86.1238C219.282 86.2833 218.873 86.3601 218.462 86.3493C218.059 86.3655 217.658 86.2907 217.287 86.1306C216.917 85.9705 216.588 85.7291 216.323 85.4243C215.772 84.7715 215.484 83.9369 215.514 83.0831V81.9558C215.475 81.1007 215.765 80.2631 216.323 79.6146C216.583 79.3048 216.912 79.0598 217.283 78.8993ZM219.821 84.7306C220.18 84.2597 220.355 83.6738 220.312 83.0831V81.9269C220.345 81.3462 220.171 80.7727 219.821 80.3083C219.646 80.1291 219.437 79.9868 219.206 79.8896C218.975 79.7924 218.727 79.7423 218.477 79.7423C218.226 79.7423 217.978 79.7924 217.747 79.8896C217.517 79.9868 217.308 80.1291 217.133 80.3083C216.787 80.7859 216.614 81.3669 216.641 81.9558V83.0831C216.614 83.6721 216.787 84.253 217.133 84.7306C217.295 84.922 217.5 85.0736 217.73 85.1738C217.961 85.274 218.211 85.3201 218.462 85.3087C218.718 85.3224 218.973 85.2775 219.209 85.1772C219.444 85.077 219.653 84.9243 219.821 84.7306ZM228.319 78.7764H224.243C224.171 78.776 224.102 78.8025 224.049 78.8506C223.995 78.8987 223.961 78.965 223.954 79.0365V82.1871C223.985 83.0296 223.868 83.871 223.607 84.6728C223.568 84.8332 223.475 84.9751 223.343 85.075C223.212 85.1749 223.05 85.2268 222.885 85.222H222.711C222.675 85.2179 222.638 85.2216 222.603 85.2328C222.568 85.244 222.536 85.2626 222.508 85.2872C222.481 85.3117 222.459 85.3418 222.445 85.3754C222.43 85.409 222.422 85.4454 222.422 85.4821V85.9735C222.422 86.0502 222.453 86.1237 222.507 86.1779C222.561 86.2321 222.635 86.2625 222.711 86.2625H222.885C223.238 86.2884 223.591 86.2054 223.896 86.0245C224.201 85.8436 224.443 85.5736 224.59 85.2509C224.95 84.2809 225.117 83.2499 225.082 82.216V79.8169H227.509V85.9735C227.509 86.0454 227.536 86.1149 227.584 86.1683C227.632 86.2218 227.698 86.2553 227.77 86.2625H228.348C228.422 86.256 228.492 86.2235 228.545 86.1706C228.598 86.1177 228.63 86.048 228.637 85.9735V79.0654C228.63 78.9862 228.593 78.9126 228.534 78.8591C228.475 78.8056 228.398 78.7761 228.319 78.7764ZM232.028 78.9083C232.399 78.7481 232.8 78.6734 233.203 78.6896C233.616 78.6667 234.028 78.7381 234.409 78.8984C234.789 79.0586 235.128 79.3036 235.4 79.6146C235.946 80.2701 236.234 81.1028 236.209 81.9558V83.0831C236.24 83.9369 235.951 84.7715 235.4 85.4243C235.128 85.7353 234.789 85.9802 234.409 86.1405C234.028 86.3007 233.616 86.3721 233.203 86.3492C232.802 86.3519 232.405 86.2711 232.037 86.1119C231.668 85.9526 231.337 85.7184 231.064 85.4243C230.521 84.7686 230.243 83.9335 230.284 83.0831V81.9558C230.248 81.1061 230.526 80.2729 231.064 79.6146C231.329 79.3098 231.658 79.0684 232.028 78.9083ZM234.562 84.7306C234.929 84.2625 235.114 83.6771 235.082 83.0831V81.9558C235.121 81.3698 234.935 80.7911 234.562 80.3372C234.399 80.1381 234.19 79.9816 233.954 79.8809C233.717 79.7802 233.46 79.7384 233.203 79.7591C232.958 79.7396 232.712 79.7793 232.486 79.8749C232.26 79.9705 232.06 80.1191 231.903 80.3083C231.543 80.7791 231.369 81.3651 231.411 81.9558V83.0831C231.384 83.672 231.557 84.2529 231.903 84.7306C232.061 84.9197 232.261 85.0701 232.486 85.1703C232.711 85.2705 232.957 85.3178 233.203 85.3087C233.459 85.3224 233.714 85.2774 233.95 85.1772C234.185 85.077 234.395 84.9242 234.562 84.7306ZM242.279 78.7764H238.146C238.069 78.7764 237.996 78.8069 237.941 78.8611C237.887 78.9153 237.857 78.9888 237.857 79.0654V85.9735C237.857 86.0502 237.887 86.1237 237.941 86.1779C237.996 86.2321 238.069 86.2625 238.146 86.2625H238.695C238.772 86.2625 238.845 86.2321 238.899 86.1779C238.953 86.1237 238.984 86.0502 238.984 85.9735V79.8169H242.279C242.316 79.821 242.352 79.8173 242.387 79.8061C242.422 79.7948 242.455 79.7764 242.482 79.7518C242.509 79.7272 242.531 79.6971 242.546 79.6635C242.561 79.6299 242.568 79.5935 242.568 79.5568V79.0654C242.568 78.9888 242.538 78.9153 242.483 78.8611C242.429 78.8069 242.356 78.7764 242.279 78.7764ZM248.812 78.7763H249.39C249.455 78.7647 249.521 78.7755 249.579 78.8071C249.637 78.8386 249.682 78.8889 249.708 78.9498V85.8578C249.708 85.9297 249.682 85.9992 249.633 86.0526C249.585 86.1061 249.519 86.1397 249.448 86.1469H248.869C248.793 86.1469 248.719 86.1164 248.665 86.0622C248.611 86.008 248.58 85.9345 248.58 85.8578V80.8285L245.141 86.0023C245.117 86.0436 245.084 86.0784 245.043 86.1036C245.003 86.1288 244.957 86.1437 244.91 86.1469H244.332C244.257 86.1404 244.187 86.1078 244.134 86.055C244.082 86.0021 244.049 85.9323 244.042 85.8578V78.9498C244.049 78.8753 244.082 78.8055 244.134 78.7526C244.187 78.6998 244.257 78.6673 244.332 78.6607H244.852C244.926 78.6673 244.996 78.6998 245.049 78.7526C245.102 78.8055 245.134 78.8753 245.141 78.9498V83.9502L248.58 78.7763C248.655 78.7499 248.737 78.7499 248.812 78.7763ZM256.471 78.7764H255.893C255.819 78.7829 255.749 78.8154 255.696 78.8683C255.643 78.9212 255.611 78.991 255.604 79.0654V82.1293L254.91 82.2738H254.014C253.617 82.2992 253.223 82.198 252.887 81.9847C252.65 81.6809 252.537 81.2991 252.569 80.9153V79.0076C252.563 78.9332 252.53 78.8634 252.477 78.8105C252.424 78.7577 252.355 78.7251 252.28 78.7186H251.702C251.63 78.7258 251.564 78.7594 251.516 78.8128C251.468 78.8663 251.441 78.9357 251.442 79.0076V80.9153C251.41 81.2535 251.453 81.5947 251.568 81.9144C251.683 82.2341 251.867 82.5246 252.107 82.7652C252.658 83.1677 253.334 83.3622 254.014 83.3143H254.997H255.604V86.2047C255.611 86.2792 255.643 86.349 255.696 86.4018C255.749 86.4547 255.819 86.4872 255.893 86.4938H256.471C256.546 86.4872 256.615 86.4547 256.668 86.4018C256.721 86.349 256.754 86.2792 256.76 86.2047V79.2967C256.802 79.2474 256.828 79.1865 256.834 79.1221C256.841 79.0578 256.827 78.993 256.796 78.9365C256.764 78.88 256.716 78.8344 256.658 78.8058C256.6 78.7772 256.535 78.7669 256.471 78.7764ZM259.852 85.222H263.147C263.219 85.2216 263.289 85.2481 263.342 85.2962C263.396 85.3443 263.429 85.4106 263.436 85.4821V85.9735C263.43 86.048 263.397 86.1177 263.345 86.1706C263.292 86.2235 263.222 86.256 263.147 86.2625H258.985C258.914 86.2553 258.847 86.2217 258.799 86.1683C258.751 86.1149 258.725 86.0454 258.725 85.9735V79.0654C258.725 78.9935 258.751 78.9241 258.799 78.8706C258.847 78.8172 258.914 78.7836 258.985 78.7764H263.118C263.195 78.7764 263.269 78.8069 263.323 78.8611C263.377 78.9153 263.408 78.9888 263.408 79.0654V79.5568C263.408 79.5776 263.405 79.5982 263.401 79.6183C263.397 79.6338 263.392 79.6489 263.385 79.6635C263.371 79.6971 263.349 79.7272 263.321 79.7518C263.294 79.7764 263.262 79.7948 263.227 79.8061C263.192 79.8173 263.155 79.821 263.118 79.8169H259.852V81.8691H262.743C262.782 81.8645 262.821 81.8687 262.859 81.8816C262.896 81.8945 262.93 81.9157 262.957 81.9435C262.985 81.9713 263.006 82.0051 263.019 82.0423C263.032 82.0795 263.036 82.1191 263.032 82.1581V82.6206C263.035 82.6442 263.034 82.6681 263.03 82.6915C263.028 82.7067 263.024 82.7218 263.019 82.7365C263.006 82.7737 262.985 82.8074 262.957 82.8353C262.94 82.8523 262.921 82.8668 262.9 82.8785C262.887 82.8859 262.873 82.8922 262.859 82.8972C262.821 82.91 262.782 82.9143 262.743 82.9097H259.852V85.222ZM266.212 80.3083C266.361 80.1237 266.551 79.9757 266.766 79.8755C266.982 79.7754 267.217 79.7257 267.454 79.7302C267.674 79.7116 267.894 79.7379 268.103 79.8075C268.312 79.8771 268.504 79.9885 268.668 80.1349C268.805 80.2762 268.911 80.444 268.981 80.6279C269.051 80.8118 269.082 81.0079 269.073 81.2043C269.073 81.281 269.103 81.3545 269.158 81.4087C269.212 81.4629 269.285 81.4934 269.362 81.4934H269.882C269.949 81.4898 270.012 81.4656 270.064 81.4242C270.116 81.3827 270.153 81.326 270.171 81.2621C270.201 80.9164 270.149 80.5684 270.018 80.2469C269.887 79.9254 269.682 79.6393 269.42 79.4123C268.87 78.9551 268.169 78.7182 267.454 78.7475C267.06 78.7338 266.668 78.8099 266.307 78.9701C265.947 79.1304 265.627 79.3705 265.373 79.6724C264.835 80.3307 264.557 81.164 264.593 82.0137V83.1409C264.557 83.9906 264.835 84.8238 265.373 85.4821C265.627 85.784 265.947 86.0242 266.307 86.1844C266.668 86.3447 267.06 86.4208 267.454 86.407C268.169 86.4363 268.87 86.1995 269.42 85.7423C269.681 85.5137 269.884 85.2275 270.015 84.9064C270.145 84.5852 270.199 84.238 270.171 83.8924C270.157 83.8285 270.12 83.7722 270.066 83.7347C270.013 83.6972 269.947 83.6813 269.882 83.6901H269.362C269.29 83.6897 269.221 83.7162 269.167 83.7643C269.114 83.8124 269.08 83.8787 269.073 83.9502C269.094 84.1564 269.069 84.3647 268.999 84.5597C268.929 84.7548 268.816 84.9317 268.668 85.0775C268.326 85.3518 267.892 85.4861 267.454 85.4532C267.217 85.4578 266.982 85.4081 266.766 85.3079C266.551 85.2077 266.361 85.0597 266.212 84.8751C265.874 84.3936 265.701 83.8155 265.72 83.2276V82.1004C265.668 81.4638 265.842 80.8293 266.212 80.3083ZM277.05 79.2677L274.333 82.4183L277.282 85.7711V86.0602C277.261 86.1144 277.226 86.162 277.18 86.1977C277.134 86.2334 277.079 86.2557 277.021 86.2625H276.328C276.296 86.276 276.261 86.283 276.227 86.283C276.192 86.283 276.157 86.276 276.125 86.2625L273.235 83.0542H272.917V85.9446C272.911 86.0191 272.878 86.0888 272.825 86.1417C272.772 86.1945 272.702 86.2271 272.628 86.2336H272.05C271.978 86.2264 271.912 86.1928 271.864 86.1393C271.816 86.0859 271.789 86.0165 271.79 85.9446V79.0365C271.789 78.9646 271.816 78.8952 271.864 78.8417C271.912 78.7883 271.978 78.7547 272.05 78.7475H272.628C272.702 78.754 272.772 78.7865 272.825 78.8394C272.878 78.8922 272.911 78.962 272.917 79.0365V81.9269H273.235L275.894 78.7764C275.93 78.7585 275.97 78.7493 276.01 78.7493C276.05 78.7493 276.089 78.7585 276.125 78.7764H276.79C276.849 78.7796 276.905 78.8007 276.952 78.8368C276.998 78.873 277.033 78.9225 277.05 78.9787C277.073 79.0235 277.085 79.073 277.085 79.1232C277.085 79.1735 277.073 79.223 277.05 79.2677ZM281.271 78.7764H280.75C280.692 78.7796 280.635 78.8007 280.589 78.8369C280.542 78.873 280.508 78.9225 280.49 78.9787L277.947 85.8868C277.926 85.9271 277.916 85.9717 277.916 86.0169C277.916 86.062 277.926 86.1066 277.947 86.1469C278.022 86.1734 278.103 86.1734 278.178 86.1469H278.756C278.815 86.1437 278.871 86.1226 278.918 86.0864C278.964 86.0503 278.999 86.0008 279.016 85.9446L279.652 84.2104H282.282L282.918 85.9446C282.936 86.0008 282.97 86.0503 283.017 86.0864C283.063 86.1226 283.12 86.1437 283.178 86.1469H283.785C283.86 86.1734 283.942 86.1734 284.017 86.1469C284.045 86.0626 284.045 85.9711 284.017 85.8868L281.502 78.9787C281.481 78.9295 281.45 78.8857 281.41 78.8506C281.37 78.8155 281.322 78.7901 281.271 78.7764ZM287.687 78.7763H289.797C289.86 78.7778 289.921 78.7978 289.972 78.8338C290.024 78.8698 290.063 78.9202 290.086 78.9787V85.8867C290.08 85.9612 290.047 86.031 289.994 86.0839C289.941 86.1367 289.872 86.1693 289.797 86.1758H289.219C289.147 86.1686 289.081 86.135 289.033 86.0816C288.985 86.0281 288.958 85.9587 288.959 85.8867V83.1698H287.398L285.982 86.0602C285.96 86.111 285.923 86.1543 285.877 86.1851C285.831 86.2158 285.777 86.2327 285.722 86.2336H285.115C285.063 86.2325 285.012 86.2188 284.967 86.1936C284.921 86.1684 284.883 86.1325 284.854 86.0891C284.824 86.0526 284.807 86.0066 284.807 85.959C284.807 85.9114 284.824 85.8654 284.854 85.8289L286.358 82.9385C286.016 82.81 285.716 82.59 285.49 82.3026C285.209 81.9514 285.065 81.5095 285.086 81.0598C285.066 80.739 285.121 80.4181 285.247 80.1223C285.372 79.8264 285.564 79.5636 285.808 79.3544C286.348 78.9482 287.013 78.7436 287.687 78.7763ZM287.687 82.187H288.959L289.103 79.8169H287.832C287.425 79.7837 287.022 79.9079 286.704 80.1638C286.586 80.2739 286.494 80.4087 286.434 80.5586C286.374 80.7085 286.348 80.8697 286.358 81.0309C286.352 81.1847 286.377 81.3381 286.432 81.482C286.487 81.626 286.569 81.7576 286.675 81.8691C286.963 82.0945 287.322 82.2075 287.687 82.187ZM303.757 82.4183L306.474 79.2677C306.497 79.2229 306.509 79.1735 306.509 79.1232C306.509 79.073 306.497 79.0234 306.474 78.9787C306.457 78.9225 306.423 78.873 306.376 78.8368C306.33 78.8006 306.273 78.7795 306.214 78.7763H305.578C305.543 78.7585 305.503 78.7493 305.463 78.7493C305.423 78.7493 305.383 78.7585 305.347 78.7763L302.717 81.8113H302.399V78.9209C302.392 78.8464 302.36 78.7766 302.307 78.7237C302.254 78.6709 302.184 78.6383 302.11 78.6318H301.532C301.46 78.639 301.394 78.6726 301.346 78.7261C301.298 78.7795 301.271 78.849 301.272 78.9209V85.8289C301.271 85.9008 301.298 85.9703 301.346 86.0237C301.394 86.0772 301.46 86.1108 301.532 86.118H302.11C302.184 86.1115 302.254 86.0789 302.307 86.0261C302.36 85.9732 302.392 85.9034 302.399 85.8289V82.9385H302.717L305.607 86.1469C305.639 86.1604 305.674 86.1673 305.708 86.1673C305.743 86.1673 305.778 86.1604 305.81 86.1469H306.503C306.561 86.1401 306.616 86.1177 306.662 86.082C306.708 86.0464 306.743 85.9988 306.763 85.9446C306.796 85.9035 306.814 85.8526 306.814 85.8C306.814 85.7475 306.796 85.6965 306.763 85.6555L303.757 82.4183ZM280.086 83.2565L281.011 80.6552L281.935 83.2565H280.086ZM309.308 78.7764H313.383C313.457 78.7829 313.527 78.8154 313.58 78.8683C313.633 78.9212 313.665 78.991 313.672 79.0654V85.9735C313.665 86.048 313.633 86.1177 313.58 86.1706C313.527 86.2235 313.457 86.256 313.383 86.2625H312.805C312.733 86.2553 312.667 86.2218 312.619 86.1683C312.571 86.1149 312.544 86.0454 312.545 85.9735V79.8169H310.117V82.216C310.152 83.2499 309.985 84.2809 309.625 85.2509C309.479 85.5736 309.237 85.8436 308.932 86.0245C308.627 86.2054 308.274 86.2884 307.92 86.2625H307.776C307.699 86.2625 307.625 86.2321 307.571 86.1779C307.517 86.1237 307.487 86.0502 307.487 85.9735V85.4821C307.486 85.4454 307.494 85.409 307.509 85.3754C307.518 85.3536 307.531 85.3333 307.546 85.315C307.554 85.3051 307.563 85.2958 307.573 85.2872C307.6 85.2626 307.632 85.244 307.667 85.2328C307.702 85.2216 307.739 85.2179 307.776 85.222H307.949C308.114 85.2268 308.276 85.1749 308.407 85.075C308.539 84.9751 308.632 84.8332 308.672 84.6728C308.932 83.871 309.049 83.0296 309.018 82.1871V79.0365C309.026 78.965 309.059 78.8987 309.113 78.8506C309.166 78.8025 309.236 78.776 309.308 78.7764ZM321.014 78.7763H320.436C320.361 78.7499 320.28 78.7499 320.205 78.7763L316.765 83.9502V78.9498C316.765 78.8731 316.735 78.7996 316.681 78.7454C316.626 78.6912 316.553 78.6607 316.476 78.6607H315.927C315.85 78.6607 315.777 78.6912 315.723 78.7454C315.668 78.7996 315.638 78.8731 315.638 78.9498V85.8578C315.638 85.9345 315.668 86.008 315.723 86.0622C315.777 86.1164 315.85 86.1469 315.927 86.1469H316.592C316.644 86.1458 316.694 86.1321 316.74 86.1069C316.785 86.0817 316.824 86.0458 316.852 86.0023L320.291 80.8285V85.8578C320.291 85.9297 320.318 85.9992 320.366 86.0526C320.414 86.1061 320.48 86.1397 320.552 86.1469H321.13C321.206 86.1469 321.28 86.1164 321.334 86.0622C321.388 86.008 321.419 85.9345 321.419 85.8578V78.9498C321.406 78.9098 321.385 78.8729 321.357 78.8418C321.329 78.8107 321.295 78.786 321.256 78.7695C321.218 78.7531 321.176 78.7451 321.135 78.7463C321.093 78.7475 321.052 78.7577 321.014 78.7763ZM328.153 78.7764H328.615C328.69 78.7829 328.76 78.8154 328.812 78.8683C328.865 78.9212 328.898 78.991 328.904 79.0654V85.9735C328.898 86.048 328.865 86.1177 328.812 86.1706C328.76 86.2235 328.69 86.256 328.615 86.2625H328.037C327.963 86.256 327.893 86.2235 327.84 86.1706C327.787 86.1177 327.755 86.048 327.748 85.9735V83.0831H324.395V85.9735C324.395 86.0502 324.365 86.1237 324.311 86.1779C324.256 86.2321 324.183 86.2625 324.106 86.2625H323.557C323.48 86.2625 323.407 86.2321 323.353 86.1779C323.299 86.1237 323.268 86.0502 323.268 85.9735V79.0654C323.268 78.9888 323.299 78.9153 323.353 78.8611C323.407 78.8069 323.48 78.7764 323.557 78.7764H324.106C324.183 78.7764 324.256 78.8069 324.311 78.8611C324.365 78.9153 324.395 78.9888 324.395 79.0654V81.9558H327.864V79.0654C327.87 78.991 327.903 78.9212 327.956 78.8683C328.009 78.8154 328.078 78.7829 328.153 78.7764ZM336.275 78.7763H335.697C335.622 78.7499 335.541 78.7499 335.466 78.7763L332.026 83.9502V78.9498C332.02 78.8753 331.987 78.8055 331.934 78.7526C331.882 78.6998 331.812 78.6673 331.737 78.6607H331.044C330.969 78.6673 330.899 78.6998 330.847 78.7526C330.794 78.8055 330.761 78.8753 330.755 78.9498V85.8578C330.761 85.9323 330.794 86.0021 330.847 86.055C330.899 86.1078 330.969 86.1404 331.044 86.1469H331.622C331.669 86.1437 331.715 86.1288 331.755 86.1036C331.796 86.0784 331.829 86.0436 331.853 86.0023L335.293 80.8285V85.8578C335.293 85.9345 335.323 86.008 335.377 86.0622C335.431 86.1164 335.505 86.1469 335.582 86.1469H336.16C336.231 86.1397 336.298 86.1061 336.346 86.0526C336.394 85.9992 336.42 85.9297 336.42 85.8578V78.9498C336.411 78.9214 336.398 78.8946 336.382 78.8702C336.377 78.8627 336.371 78.8554 336.365 78.8484C336.34 78.8186 336.31 78.7941 336.275 78.7763ZM343.675 79.2677L340.987 82.4183L344.079 85.6555C344.102 85.7003 344.114 85.7498 344.114 85.8C344.114 85.8281 344.11 85.856 344.103 85.8829C344.097 85.9042 344.089 85.9248 344.079 85.9446C344.059 85.9988 344.023 86.0464 343.977 86.082C343.932 86.1177 343.877 86.1401 343.819 86.1469H343.125C343.094 86.1622 343.059 86.1702 343.024 86.1702C342.989 86.1702 342.955 86.1622 342.923 86.1469L340.033 82.9385H339.715V85.8289C339.708 85.9034 339.676 85.9732 339.623 86.0261C339.57 86.0789 339.5 86.1115 339.426 86.118H338.848C338.773 86.1115 338.703 86.0789 338.651 86.0261C338.598 85.9732 338.565 85.9034 338.559 85.8289V78.9209C338.565 78.8464 338.598 78.7766 338.651 78.7237C338.703 78.6709 338.773 78.6383 338.848 78.6318H339.426C339.5 78.6383 339.57 78.6709 339.623 78.7237C339.676 78.7766 339.708 78.8464 339.715 78.9209V81.8113H339.917L342.547 78.7763C342.579 78.761 342.613 78.7531 342.648 78.7531C342.684 78.7531 342.718 78.761 342.75 78.7763H343.414C343.473 78.7795 343.53 78.8006 343.576 78.8368C343.623 78.873 343.657 78.9225 343.675 78.9787C343.703 79.0215 343.718 79.0718 343.718 79.1232C343.718 79.1747 343.703 79.2249 343.675 79.2677ZM347.924 78.7764H347.403C347.341 78.7778 347.28 78.7978 347.228 78.8338C347.177 78.8698 347.137 78.9202 347.114 78.9787L344.6 85.8868C344.574 85.9251 344.56 85.9705 344.56 86.0169C344.56 86.0632 344.574 86.1086 344.6 86.1469C344.674 86.1734 344.756 86.1734 344.831 86.1469H345.409C345.468 86.1437 345.524 86.1226 345.571 86.0864C345.617 86.0503 345.651 86.0008 345.669 85.9446L346.305 84.2104H348.935L349.571 85.9446C349.589 86.0008 349.623 86.0503 349.669 86.0864C349.716 86.1226 349.772 86.1437 349.831 86.1469H350.409C350.445 86.1647 350.485 86.174 350.525 86.174C350.565 86.174 350.605 86.1647 350.641 86.1469C350.661 86.1066 350.671 86.062 350.671 86.0169C350.671 85.9717 350.661 85.9271 350.641 85.8868L348.097 78.9787C348.086 78.9336 348.065 78.8916 348.035 78.8564C348.005 78.8212 347.967 78.7937 347.924 78.7764ZM348.588 83.2565H346.71L347.663 80.6552L348.588 83.2565Z" fill="#027A3C"/>
</svg>
