<svg width="257" height="82" viewBox="0 0 257 82" fill="none" xmlns="http://www.w3.org/2000/svg">
<path fill-rule="evenodd" clip-rule="evenodd" d="M43.2106 80.5574L0.327149 23.5954C0.190667 23.4416 0.090124 23.2598 0.0327121 23.063C-0.0109142 22.8766 -0.0109142 22.6827 0.0327121 22.4963C0.050414 22.3084 0.109544 22.1267 0.205912 21.964C0.259292 21.8605 0.323126 21.7627 0.396429 21.672L0.517666 21.5346L19.3787 3.34868L19.5866 3.17696C19.6934 3.1082 19.8102 3.05609 19.933 3.02241C20.0456 2.96559 20.1703 2.93615 20.2967 2.93654L47.679 0.137385L49.1685 0H50.658L78.0403 3.02241C78.1662 3.02647 78.2899 3.05566 78.4041 3.10826C78.5214 3.14202 78.6325 3.19421 78.7331 3.26283L78.9583 3.43455L97.7154 21.4488L97.8367 21.5862C97.9211 21.672 97.9912 21.7705 98.0445 21.8781C98.133 22.0442 98.1917 22.2244 98.2177 22.4105C98.2525 22.5978 98.2525 22.7898 98.2177 22.9771C98.1763 23.1698 98.0936 23.3513 97.9752 23.5095L55.0745 80.4715C54.8428 80.7273 54.539 80.9082 54.2024 80.9909C53.8658 81.0736 53.512 81.0542 53.1867 80.9352L52.8922 80.7635C52.6824 80.5894 52.5214 80.3646 52.4246 80.1109C52.3058 79.8471 52.2695 79.5539 52.3207 79.2694L58.0362 48.6504L51.1083 39.7034C50.9898 39.5517 50.907 39.3757 50.8658 39.1882C50.8316 38.9836 50.8316 38.7747 50.8658 38.57L54.6762 11.0936C54.7127 10.7995 54.8397 10.5237 55.0399 10.3037C55.2154 10.0765 55.4573 9.90863 55.7326 9.82282L70.4024 5.15183L50.5714 3.07393L49.1685 2.93654L47.7656 3.07393L27.9346 5.15183L42.6563 9.82282C42.9342 9.91306 43.1805 10.0798 43.3664 10.3037C43.5381 10.5639 43.6284 10.8685 43.6262 11.1795L47.4192 38.6559C47.4705 38.8588 47.4705 39.0712 47.4192 39.2741C47.3781 39.4616 47.2953 39.6376 47.1768 39.7893L40.2489 48.7363L45.9817 79.3553C46.0328 79.6398 45.9966 79.9329 45.8778 80.1968C45.7807 80.4549 45.6127 80.6809 45.3928 80.8493C45.0626 81.0928 44.6495 81.1985 44.2417 81.1439C43.834 81.0894 43.4639 80.8789 43.2106 80.5574ZM59.6642 26.4804L56.8411 18.0829L54.7628 33.0747L59.6642 26.4804ZM59.4217 31.9757L54.3471 38.8448L58.4865 44.2198L59.4217 31.9757ZM61.1017 49.3889L56.616 73.4307L83.4441 37.7801L61.1017 49.3889ZM62.8337 28.129L61.4828 45.7139L86.8214 32.6282L84.2061 25.7591L62.8337 28.129ZM87.4622 25.2955L89.1942 30.1382L93.4375 24.6086L87.4622 25.2955ZM86.2498 22.3589L93.3336 21.5518L81.7294 10.338L86.2498 22.3589ZM64.7215 24.8318L83.0804 22.7196L77.4168 7.65905L64.7215 24.8318ZM58.1574 12.3472L61.8811 23.458L73.7451 7.38429L58.1574 12.3472ZM14.8756 37.7801L41.7211 73.4307L37.218 49.3545L14.8756 37.7801ZM14.1136 25.7591L11.4983 32.6282L36.8542 45.7997L35.5033 28.2148L14.1136 25.7591ZM39.9025 44.2198L43.9899 38.8791L38.9499 31.9757L39.9025 44.2198ZM38.6728 26.5147L43.557 33.1091L41.4786 18.1173L38.6728 26.5147ZM36.4386 23.4408L40.093 12.3644L24.54 7.36711L36.4386 23.4408ZM33.5462 24.8318L20.8509 7.65905L15.1874 22.7196L33.5462 24.8318ZM12.0525 22.3246L16.5903 10.3037L4.98612 21.5175L12.0525 22.3246ZM9.21212 30.1038L10.9441 25.2611L5.03809 24.5742L9.21212 30.1038ZM135.258 50.4793C135.068 50.5799 134.856 50.6315 134.64 50.6294L133.652 50.5882C133.38 50.5891 133.114 50.5068 132.89 50.3524C132.665 50.198 132.494 49.9787 132.397 49.724L130.093 43.3245H119.989L117.582 49.7652C117.485 50.0199 117.314 50.2391 117.089 50.3935C116.865 50.548 116.599 50.6303 116.327 50.6294H115.236C115.023 50.6303 114.813 50.5803 114.623 50.4837C114.434 50.387 114.27 50.2465 114.145 50.0738C114.024 49.8947 113.947 49.69 113.918 49.4758C113.89 49.2616 113.911 49.0437 113.981 48.8392L123.117 24.373C123.216 24.1199 123.388 23.9023 123.612 23.7482C123.836 23.5942 124.101 23.5108 124.372 23.5088H125.483C125.755 23.5108 126.02 23.5942 126.244 23.7482C126.467 23.9023 126.64 24.1199 126.739 24.373L135.895 48.8392C135.967 49.04 135.989 49.255 135.96 49.4662C135.932 49.6774 135.853 49.8786 135.731 50.0533C135.611 50.2323 135.449 50.3788 135.258 50.4793ZM124.928 29.8465L121.224 39.7441H128.673L124.928 29.8465ZM165.711 50.0533C165.833 49.8786 165.912 49.6773 165.941 49.4662C165.969 49.255 165.947 49.04 165.876 48.8392L156.74 24.373C156.641 24.1199 156.468 23.9023 156.245 23.7482C156.021 23.5942 155.756 23.5108 155.484 23.5088H154.373C154.102 23.5108 153.837 23.5942 153.613 23.7482C153.389 23.9023 153.217 24.1199 153.118 24.373L143.982 48.8392C143.912 49.0437 143.891 49.2616 143.919 49.4758C143.948 49.69 144.025 49.8947 144.146 50.0738C144.271 50.2465 144.435 50.387 144.624 50.4837C144.814 50.5803 145.024 50.6303 145.237 50.6294H146.225C146.497 50.6303 146.763 50.548 146.987 50.3935C147.212 50.2391 147.383 50.0199 147.48 49.7652L154.929 29.7436L162.275 49.724C162.371 49.9787 162.543 50.1979 162.767 50.3524C162.992 50.5068 163.258 50.5891 163.53 50.5882H164.518C164.746 50.6129 164.977 50.5763 165.187 50.4823C165.397 50.3883 165.578 50.2402 165.711 50.0533ZM196.042 49.292V33.1184L188.655 49.8476C188.545 50.082 188.371 50.2802 188.152 50.4188C187.933 50.5573 187.679 50.6304 187.42 50.6295H186.7C186.444 50.629 186.194 50.5551 185.979 50.4165C185.763 50.2779 185.592 50.0804 185.486 49.8476L177.811 32.6245V49.292C177.811 49.4676 177.776 49.6416 177.709 49.8038C177.642 49.9661 177.543 50.1135 177.419 50.2378C177.295 50.3619 177.147 50.4605 176.985 50.5277C176.823 50.5949 176.649 50.6295 176.473 50.6295H175.568C175.392 50.6295 175.218 50.5949 175.056 50.5277C174.894 50.4605 174.746 50.3619 174.622 50.2378C174.498 50.1135 174.399 49.9661 174.332 49.8038C174.265 49.6416 174.23 49.4676 174.23 49.292V24.8464C174.23 24.4917 174.371 24.1515 174.622 23.9006C174.873 23.6498 175.213 23.5089 175.568 23.5089H176.823C177.084 23.5098 177.34 23.5859 177.559 23.7283C177.778 23.8706 177.951 24.0731 178.058 24.3114L187.009 44.6621L196.042 24.3114C196.141 24.0715 196.31 23.8668 196.526 23.7237C196.742 23.5806 196.997 23.5058 197.256 23.5089H198.285C198.461 23.5089 198.635 23.5435 198.797 23.6107C198.959 23.6779 199.107 23.7764 199.231 23.9006C199.355 24.0248 199.454 24.1723 199.521 24.3345C199.588 24.4968 199.623 24.6708 199.623 24.8464V49.292C199.623 49.4676 199.588 49.6416 199.521 49.8038C199.454 49.9661 199.355 50.1135 199.231 50.2378C199.107 50.3619 198.959 50.4605 198.797 50.5277C198.635 50.5949 198.461 50.6295 198.285 50.6295H197.38C197.204 50.6295 197.03 50.5949 196.868 50.5277C196.706 50.4605 196.558 50.3619 196.434 50.2378C196.31 50.1135 196.211 49.9661 196.144 49.8038C196.077 49.6416 196.042 49.4676 196.042 49.292ZM231.558 50.0533C231.682 49.8791 231.76 49.6767 231.785 49.4646C231.811 49.2525 231.782 49.0374 231.702 48.8392L222.546 24.373C222.449 24.1183 222.278 23.8991 222.053 23.7447C221.829 23.5902 221.563 23.5079 221.29 23.5088H220.2C219.928 23.5079 219.661 23.5902 219.437 23.7447C219.213 23.8991 219.041 24.1183 218.945 24.373L209.808 48.8392C209.726 49.039 209.695 49.2562 209.718 49.471C209.741 49.6859 209.817 49.8916 209.94 50.0695C210.062 50.2474 210.228 50.3918 210.42 50.4896C210.613 50.5874 210.827 50.6355 211.043 50.6294H212.051C212.321 50.629 212.584 50.5459 212.805 50.3914C213.025 50.2368 213.193 50.0182 213.286 49.7652L215.714 43.3245H225.797L228.204 49.7652C228.303 50.0182 228.476 50.2359 228.699 50.3899C228.923 50.544 229.188 50.6274 229.46 50.6294H230.447C230.665 50.6295 230.88 50.5773 231.073 50.477C231.267 50.3767 231.433 50.2314 231.558 50.0533ZM217.052 39.7647L220.755 29.8671L224.459 39.7647H217.052ZM253.617 36.369C254.21 36.748 254.744 37.2126 255.201 37.7477C256.376 39.0824 257.014 40.8054 256.991 42.5833C257.045 43.7093 256.844 44.8328 256.402 45.8698C255.96 46.9068 255.289 47.8304 254.44 48.5713C252.645 49.9993 250.394 50.7302 248.102 50.629H240.88C240.704 50.629 240.53 50.5944 240.368 50.5272C240.205 50.4599 240.058 50.3614 239.934 50.2372C239.81 50.113 239.711 49.9656 239.644 49.8033C239.577 49.641 239.542 49.4671 239.542 49.2915V48.3861C239.547 48.033 239.69 47.6959 239.94 47.4462C240.189 47.1965 240.526 47.0539 240.88 47.0486H248.102C249.533 47.1433 250.95 46.7196 252.094 45.8551C252.54 45.4437 252.889 44.9389 253.116 44.3768C253.344 43.8148 253.445 43.2094 253.411 42.6039C253.434 42.0569 253.326 41.5124 253.097 41.0151C252.868 40.5179 252.524 40.0821 252.094 39.7437C250.939 38.9026 249.528 38.488 248.102 38.5708H240.88C240.526 38.5655 240.189 38.4229 239.94 38.1732C239.69 37.9235 239.547 37.5864 239.542 37.2333V36.3073C239.547 35.9562 239.691 35.6212 239.941 35.3748C240.191 35.1284 240.528 34.9903 240.88 34.9904H247.053C248.451 35.0698 249.837 34.6944 251.003 33.9204C251.402 33.5602 251.711 33.1126 251.907 32.6128C252.104 32.113 252.182 31.5745 252.135 31.0396C252.179 30.4932 252.087 29.9445 251.868 29.442C251.649 28.9395 251.31 28.4988 250.88 28.1588C249.531 27.3469 247.964 26.9731 246.394 27.0888H240.9C240.545 27.0888 240.205 26.9478 239.954 26.697C239.703 26.4462 239.563 26.106 239.563 25.7513V24.8459C239.563 24.6702 239.597 24.4963 239.664 24.334C239.732 24.1717 239.83 24.0243 239.954 23.9001C240.079 23.7759 240.226 23.6774 240.388 23.6102C240.551 23.543 240.724 23.5084 240.9 23.5084H246.394C248.769 23.384 251.12 24.026 253.102 25.3397C253.978 26.0125 254.676 26.8892 255.135 27.8934C255.594 28.8977 255.8 29.999 255.736 31.1013C255.779 32.6151 255.347 34.1044 254.502 35.3608C254.24 35.7248 253.944 36.0625 253.617 36.369ZM124.372 57.1724C124.479 57.041 124.614 56.9357 124.767 56.8644C124.92 56.793 125.088 56.7577 125.257 56.7609C125.413 56.7477 125.57 56.7664 125.719 56.8159C125.867 56.8655 126.004 56.9448 126.121 57.049C126.219 57.1496 126.294 57.269 126.344 57.4C126.393 57.5309 126.416 57.6705 126.409 57.8103C126.406 57.8382 126.409 57.8664 126.418 57.8928C126.427 57.9193 126.443 57.9434 126.462 57.9632C126.482 57.983 126.506 57.998 126.533 58.0072C126.559 58.0164 126.587 58.0194 126.615 58.0161H126.986C127.033 58.0136 127.078 57.9964 127.115 57.9669C127.152 57.9373 127.178 57.897 127.191 57.8515C127.212 57.6053 127.175 57.3577 127.082 57.1287C126.989 56.8998 126.843 56.6962 126.656 56.5346C126.265 56.2091 125.766 56.0404 125.257 56.0613C124.976 56.0515 124.697 56.1057 124.44 56.2198C124.184 56.3339 123.956 56.5048 123.775 56.7197C123.392 57.1884 123.195 57.7816 123.22 58.3865V59.189C123.195 59.7939 123.392 60.3871 123.775 60.8558C123.956 61.0707 124.184 61.2416 124.44 61.3557C124.697 61.4698 124.976 61.524 125.257 61.5142C125.766 61.5351 126.265 61.3664 126.656 61.041C126.842 60.8783 126.987 60.6745 127.08 60.4459C127.173 60.2172 127.211 59.97 127.191 59.724C127.178 59.6807 127.15 59.643 127.113 59.617C127.076 59.5909 127.031 59.5779 126.986 59.58H126.615C126.589 59.5771 126.563 59.5797 126.538 59.5877C126.513 59.5957 126.49 59.6089 126.471 59.6264C126.451 59.6439 126.436 59.6653 126.425 59.6892C126.415 59.7131 126.409 59.739 126.409 59.7652C126.42 59.9117 126.4 60.0588 126.351 60.197C126.301 60.3352 126.223 60.4615 126.121 60.5677C125.877 60.763 125.569 60.8586 125.257 60.8352C125.088 60.8384 124.92 60.8031 124.767 60.7317C124.614 60.6604 124.479 60.555 124.372 60.4236C124.132 60.0808 124.009 59.6693 124.022 59.2508V58.4482C123.985 57.9951 124.109 57.5434 124.372 57.1724ZM128.035 56.0811H131.842C131.895 56.0857 131.944 56.1089 131.982 56.1465C132.02 56.1841 132.043 56.2338 132.047 56.2868V56.6366C132.042 56.6876 132.018 56.7348 131.98 56.769C131.942 56.8033 131.893 56.8221 131.842 56.8218H130.36V61.2048C130.36 61.256 130.342 61.3054 130.307 61.3434C130.273 61.3815 130.226 61.4054 130.175 61.4105H129.763C129.71 61.4059 129.661 61.3827 129.623 61.3451C129.585 61.3074 129.562 61.2578 129.558 61.2048V56.8218H128.035C128.009 56.8247 127.983 56.8221 127.958 56.8141C127.933 56.8061 127.91 56.793 127.89 56.7755C127.871 56.758 127.856 56.7365 127.845 56.7126C127.834 56.6887 127.829 56.6628 127.829 56.6366V56.2868C127.829 56.2323 127.851 56.1799 127.889 56.1413C127.928 56.1027 127.98 56.0811 128.035 56.0811ZM134.846 56.0196C134.559 56.008 134.273 56.0612 134.009 56.1752C133.746 56.2892 133.511 56.4611 133.323 56.6781C132.94 57.1467 132.742 57.7399 132.768 58.3448V59.1473C132.738 59.7528 132.936 60.3473 133.323 60.8141C133.52 61.0261 133.759 61.1943 134.025 61.3077C134.291 61.4212 134.577 61.4774 134.866 61.4725C135.157 61.4872 135.447 61.4355 135.714 61.3214C135.982 61.2074 136.219 61.0338 136.41 60.8141C136.811 60.3546 137.018 59.7567 136.986 59.1473V58.3448C137.014 57.736 136.808 57.1397 136.41 56.6781C136.216 56.4567 135.975 56.2823 135.704 56.1682C135.433 56.0541 135.139 56.0033 134.846 56.0196ZM136.183 59.1473C136.203 59.5666 136.08 59.9802 135.834 60.3202C135.713 60.4557 135.563 60.5629 135.396 60.634C135.229 60.7052 135.048 60.7385 134.866 60.7318C134.688 60.7399 134.51 60.707 134.346 60.6357C134.181 60.5644 134.036 60.4564 133.92 60.3202C133.674 59.9802 133.55 59.5666 133.57 59.1473V58.3448C133.55 57.9255 133.674 57.5119 133.92 57.1719C134.034 57.0398 134.177 56.9358 134.337 56.868C134.498 56.8002 134.672 56.7704 134.846 56.7809C135.028 56.7662 135.212 56.796 135.38 56.8676C135.549 56.9393 135.697 57.0508 135.813 57.1925C136.078 57.5156 136.211 57.9276 136.183 58.3448V59.1473ZM142.583 56.0814H143.077C143.107 56.0839 143.135 56.0924 143.162 56.1062C143.188 56.1201 143.212 56.139 143.231 56.162C143.25 56.1849 143.265 56.2114 143.273 56.24C143.282 56.2685 143.285 56.2985 143.283 56.3283V61.2462C143.278 61.2992 143.255 61.3489 143.217 61.3865C143.179 61.4242 143.13 61.4473 143.077 61.452H142.665C142.612 61.4473 142.563 61.4242 142.525 61.3865C142.487 61.3489 142.464 61.2992 142.459 61.2462V58.0362L141.06 61.3285C141.044 61.3647 141.019 61.3955 140.986 61.4174C140.953 61.4393 140.914 61.4513 140.875 61.452H140.587C140.548 61.4491 140.511 61.4362 140.478 61.4146C140.446 61.393 140.419 61.3633 140.402 61.3285L138.961 57.9539V61.2051C138.962 61.2562 138.943 61.3057 138.909 61.3437C138.874 61.3818 138.827 61.4057 138.776 61.4108H138.365C138.312 61.4062 138.262 61.383 138.224 61.3454C138.187 61.3077 138.163 61.2581 138.159 61.2051V56.2871C138.163 56.2341 138.187 56.1844 138.224 56.1468C138.262 56.1092 138.312 56.086 138.365 56.0814H138.9C138.94 56.0791 138.979 56.0899 139.013 56.1122C139.046 56.1344 139.071 56.1669 139.085 56.2048L140.731 60.1145L142.398 56.2048C142.411 56.1669 142.436 56.1344 142.47 56.1122C142.503 56.0899 142.543 56.0791 142.583 56.0814ZM146.575 56.0811H146.184C146.143 56.0858 146.104 56.1018 146.071 56.1272C146.038 56.1526 146.013 56.1865 145.998 56.2251L144.188 61.143C144.173 61.1718 144.166 61.2035 144.166 61.2356C144.166 61.2678 144.173 61.2995 144.188 61.3282C144.213 61.3409 144.241 61.3475 144.27 61.3475C144.298 61.3475 144.327 61.3409 144.352 61.3282H144.764C144.806 61.3259 144.846 61.3109 144.879 61.2852C144.912 61.2594 144.936 61.2242 144.949 61.1842L145.402 59.9496H147.274L147.727 61.1842C147.739 61.2242 147.764 61.2594 147.797 61.2852C147.83 61.3109 147.87 61.3259 147.912 61.3282H148.324C148.377 61.347 148.435 61.347 148.488 61.3282C148.503 61.2995 148.51 61.2678 148.51 61.2356C148.51 61.2035 148.503 61.1718 148.488 61.143L146.698 56.2251C146.691 56.193 146.675 56.1631 146.654 56.138C146.632 56.1129 146.605 56.0934 146.575 56.0811ZM145.71 59.2705L146.389 57.4186L147.048 59.2705H145.71ZM148.777 56.0811H152.584C152.638 56.0811 152.69 56.1027 152.729 56.1413C152.768 56.1799 152.789 56.2323 152.789 56.2868V56.6366C152.79 56.6628 152.784 56.6887 152.774 56.7126C152.763 56.7365 152.747 56.758 152.728 56.7755C152.709 56.793 152.686 56.8061 152.661 56.8141C152.636 56.8221 152.61 56.8247 152.584 56.8218H151.123V61.2048C151.118 61.2578 151.095 61.3074 151.057 61.3451C151.02 61.3827 150.97 61.4059 150.917 61.4105H150.505C150.454 61.4054 150.407 61.3815 150.373 61.3434C150.339 61.3054 150.32 61.256 150.32 61.2048V56.8218H148.777C148.766 56.8218 148.755 56.8208 148.744 56.8189C148.731 56.8165 148.718 56.8128 148.706 56.8077C148.683 56.7984 148.663 56.7848 148.646 56.7676C148.629 56.7504 148.615 56.73 148.606 56.7075C148.596 56.685 148.592 56.661 148.592 56.6366V56.2868C148.591 56.2356 148.61 56.1862 148.644 56.1482C148.679 56.1101 148.726 56.0862 148.777 56.0811ZM155.526 56.0196C155.238 56.0034 154.951 56.0545 154.687 56.1688C154.422 56.2831 154.188 56.4574 154.003 56.678C153.605 57.1397 153.399 57.736 153.427 58.3448V59.1473C153.405 59.7551 153.611 60.3493 154.003 60.814C154.191 61.031 154.426 61.2028 154.689 61.3168C154.953 61.4308 155.239 61.484 155.526 61.4725C155.818 61.4802 156.109 61.4255 156.379 61.312C156.648 61.1984 156.891 61.0287 157.09 60.814C157.482 60.3493 157.687 59.7551 157.666 59.1473V58.3448C157.688 57.7332 157.474 57.1366 157.069 56.678C156.88 56.457 156.642 56.2827 156.374 56.1685C156.107 56.0543 155.816 56.0033 155.526 56.0196ZM156.843 59.1473C156.873 59.5678 156.749 59.9849 156.493 60.3202C156.374 60.458 156.225 60.5668 156.057 60.6381C155.889 60.7095 155.708 60.7415 155.526 60.7317C155.347 60.7399 155.169 60.707 155.005 60.6356C154.841 60.5643 154.695 60.4564 154.579 60.3202C154.333 59.9801 154.21 59.5666 154.229 59.1473V58.3448C154.21 57.9255 154.333 57.5119 154.579 57.1719C154.704 57.0443 154.853 56.943 155.017 56.8738C155.181 56.8046 155.358 56.7689 155.536 56.7689C155.714 56.7689 155.891 56.8046 156.055 56.8738C156.22 56.943 156.368 57.0443 156.493 57.1719C156.742 57.5025 156.866 57.9108 156.843 58.3242V59.1473ZM159.641 56.0811H162.543C162.599 56.0808 162.654 56.1018 162.696 56.1399C162.738 56.178 162.764 56.2304 162.769 56.2868V61.2048C162.765 61.2578 162.741 61.3075 162.704 61.3451C162.666 61.3827 162.616 61.4059 162.563 61.4105H162.152C162.101 61.4054 162.054 61.3815 162.019 61.3435C161.985 61.3054 161.966 61.256 161.967 61.2048V56.8218H160.238V58.5297C160.263 59.2658 160.144 59.9998 159.888 60.6903C159.784 60.9201 159.612 61.1123 159.394 61.2411C159.177 61.3698 158.926 61.429 158.674 61.4105H158.551C158.496 61.4105 158.444 61.3889 158.405 61.3503C158.367 61.3117 158.345 61.2593 158.345 61.2048V60.855C158.345 60.8288 158.35 60.8029 158.361 60.779C158.371 60.7551 158.387 60.7336 158.406 60.7161C158.426 60.6987 158.449 60.6855 158.474 60.6775C158.499 60.6695 158.525 60.6669 158.551 60.6698H158.674C158.792 60.6732 158.907 60.6363 159.001 60.5651C159.094 60.494 159.161 60.3929 159.189 60.2788C159.374 59.7079 159.458 59.109 159.436 58.5092V56.2662C159.441 56.2153 159.465 56.1681 159.503 56.1339C159.541 56.0997 159.59 56.0808 159.641 56.0811ZM166.02 56.0196C165.733 56.008 165.447 56.0612 165.184 56.1752C164.92 56.2892 164.686 56.4611 164.498 56.6781C164.114 57.1467 163.917 57.7399 163.942 58.3448V59.1473C163.913 59.7528 164.111 60.3473 164.498 60.8141C164.692 61.0235 164.927 61.1902 165.19 61.3036C165.452 61.4169 165.735 61.4745 166.02 61.4725C166.314 61.4889 166.607 61.438 166.878 61.3239C167.149 61.2098 167.391 61.0355 167.584 60.8141C167.976 60.3493 168.182 59.7552 168.16 59.1473V58.3448C168.178 57.7375 167.973 57.1447 167.584 56.6781C167.391 56.4567 167.149 56.2823 166.878 56.1682C166.607 56.0541 166.314 56.0033 166.02 56.0196ZM167.358 59.1473C167.38 59.5702 167.249 59.987 166.987 60.3202C166.868 60.4581 166.719 60.5668 166.552 60.6382C166.384 60.7095 166.202 60.7415 166.02 60.7318C165.845 60.7383 165.67 60.7046 165.51 60.6332C165.349 60.5619 165.207 60.4548 165.094 60.3202C164.848 59.9802 164.725 59.5666 164.744 59.1473V58.3448C164.714 57.9243 164.838 57.5071 165.094 57.1719C165.206 57.0372 165.348 56.9314 165.51 56.8634C165.671 56.7953 165.846 56.7671 166.02 56.7809C166.203 56.7662 166.386 56.796 166.554 56.8676C166.723 56.9393 166.871 57.0508 166.987 57.1925C167.253 57.5156 167.385 57.9276 167.358 58.3448V59.1473ZM169.539 56.0811H172.481C172.536 56.0811 172.588 56.1027 172.627 56.1413C172.665 56.1799 172.687 56.2323 172.687 56.2868V56.6366C172.687 56.6628 172.682 56.6887 172.671 56.7126C172.664 56.7284 172.655 56.743 172.644 56.7562C172.639 56.7631 172.632 56.7695 172.626 56.7755C172.606 56.793 172.583 56.8061 172.559 56.8141C172.534 56.8221 172.507 56.8247 172.481 56.8218H170.136V61.2048C170.136 61.2593 170.114 61.3117 170.075 61.3503C170.037 61.3889 169.984 61.4105 169.93 61.4105H169.539C169.484 61.4105 169.432 61.3889 169.393 61.3503C169.355 61.3117 169.333 61.2593 169.333 61.2048V56.2868C169.333 56.2323 169.355 56.1799 169.393 56.1413C169.432 56.1027 169.484 56.0811 169.539 56.0811ZM177.543 56.0813H177.132C177.079 56.0625 177.021 56.0625 176.967 56.0813L174.519 59.7646V56.2048C174.514 56.1518 174.491 56.1021 174.453 56.0645C174.416 56.0268 174.366 56.0037 174.313 55.999H173.942C173.889 56.0037 173.84 56.0268 173.802 56.0645C173.764 56.1021 173.741 56.1518 173.737 56.2048V61.1227C173.741 61.1757 173.764 61.2254 173.802 61.2631C173.84 61.3007 173.889 61.3238 173.942 61.3285H174.354C174.388 61.3262 174.421 61.3156 174.449 61.2977C174.478 61.2797 174.502 61.255 174.519 61.2256L176.967 57.5423V61.1227C176.967 61.1773 176.989 61.2296 177.028 61.2682C177.066 61.3068 177.118 61.3285 177.173 61.3285H177.585C177.636 61.3234 177.683 61.2994 177.717 61.2614C177.751 61.2233 177.77 61.1739 177.77 61.1227V56.2048C177.752 56.1615 177.72 56.1257 177.678 56.1032C177.637 56.0807 177.59 56.073 177.543 56.0813ZM182.173 56.0821H182.585C182.63 56.0754 182.677 56.0827 182.718 56.1031C182.759 56.1234 182.794 56.1559 182.816 56.1961C182.838 56.2364 182.848 56.2825 182.843 56.3283C182.839 56.3741 182.82 56.4175 182.791 56.4526V61.3705C182.786 61.4235 182.763 61.4732 182.725 61.5108C182.688 61.5484 182.638 61.5716 182.585 61.5762H182.173C182.12 61.5716 182.071 61.5484 182.033 61.5108C181.995 61.4732 181.972 61.4235 181.968 61.3705V59.3128H181.535H180.836C180.351 59.3469 179.87 59.2084 179.478 58.9218C179.307 58.7505 179.176 58.5437 179.094 58.3161C179.012 58.0885 178.982 57.8457 179.004 57.6049V56.2468C179.004 56.1956 179.023 56.1461 179.057 56.1081C179.091 56.07 179.139 56.0461 179.19 56.041H179.601C179.654 56.0457 179.704 56.0688 179.741 56.1064C179.779 56.1441 179.802 56.1938 179.807 56.2468V57.6049C179.784 57.8781 179.865 58.1499 180.033 58.3662C180.272 58.518 180.553 58.5901 180.836 58.572H181.474L181.968 58.4691V56.2879C181.972 56.2349 181.995 56.1852 182.033 56.1476C182.071 56.11 182.12 56.0868 182.173 56.0821ZM187.338 60.6698H184.992V59.0236H187.05C187.077 59.0269 187.106 59.0238 187.132 59.0147C187.159 59.0055 187.183 58.9904 187.202 58.9706C187.222 58.9508 187.237 58.9268 187.247 58.9003C187.256 58.8739 187.259 58.8456 187.255 58.8178V58.4886C187.259 58.4608 187.256 58.4326 187.247 58.4061C187.237 58.3796 187.222 58.3556 187.202 58.3358C187.183 58.3159 187.159 58.3009 187.132 58.2917C187.106 58.2825 187.077 58.2795 187.05 58.2828H184.992V56.8218H187.317C187.343 56.8247 187.369 56.8221 187.394 56.8141C187.419 56.8061 187.442 56.793 187.462 56.7755C187.481 56.758 187.497 56.7365 187.507 56.7126C187.518 56.6887 187.523 56.6628 187.523 56.6366V56.2868C187.523 56.2323 187.501 56.1799 187.463 56.1413C187.424 56.1027 187.372 56.0811 187.317 56.0811H184.375C184.324 56.0862 184.277 56.1101 184.242 56.1482C184.208 56.1862 184.189 56.2356 184.189 56.2868V61.2048C184.189 61.256 184.208 61.3054 184.242 61.3434C184.277 61.3815 184.324 61.4054 184.375 61.4105H187.338C187.391 61.4059 187.44 61.3827 187.478 61.3451C187.516 61.3074 187.539 61.2578 187.544 61.2048V60.855C187.538 60.804 187.514 60.7568 187.476 60.7226C187.438 60.6883 187.389 60.6695 187.338 60.6698ZM189.914 56.8644C189.761 56.9357 189.626 57.041 189.519 57.1724C189.256 57.5434 189.132 57.9951 189.169 58.4482V59.2508C189.156 59.6693 189.279 60.0808 189.519 60.4236C189.626 60.555 189.761 60.6604 189.914 60.7317C190.067 60.8031 190.235 60.8384 190.404 60.8352C190.715 60.8586 191.024 60.763 191.268 60.5677C191.373 60.4639 191.453 60.338 191.503 60.1991C191.553 60.0602 191.571 59.912 191.556 59.7652C191.561 59.7142 191.585 59.6671 191.623 59.6328C191.661 59.5986 191.711 59.5797 191.762 59.58H192.132C192.179 59.5737 192.225 59.5851 192.263 59.6118C192.302 59.6385 192.328 59.6785 192.338 59.724C192.358 59.97 192.32 60.2172 192.227 60.4459C192.134 60.6745 191.989 60.8783 191.803 61.041C191.411 61.3664 190.913 61.5351 190.404 61.5142C190.123 61.524 189.844 61.4698 189.587 61.3557C189.331 61.2416 189.103 61.0707 188.922 60.8558C188.539 60.3871 188.341 59.7939 188.367 59.189V58.3865C188.341 57.7816 188.539 57.1884 188.922 56.7197C189.103 56.5048 189.331 56.3339 189.587 56.2198C189.844 56.1057 190.123 56.0515 190.404 56.0613C190.913 56.0404 191.411 56.2091 191.803 56.5346C191.99 56.6962 192.136 56.8998 192.229 57.1287C192.322 57.3577 192.359 57.6053 192.338 57.8515C192.325 57.897 192.299 57.9373 192.262 57.9669C192.225 57.9964 192.18 58.0136 192.132 58.0161H191.762C191.707 58.0161 191.655 57.9945 191.617 57.9559C191.578 57.9173 191.556 57.8649 191.556 57.8103C191.563 57.6705 191.54 57.5309 191.491 57.4C191.441 57.269 191.365 57.1496 191.268 57.049C191.151 56.9448 191.014 56.8655 190.866 56.8159C190.717 56.7664 190.56 56.7477 190.404 56.7609C190.235 56.7577 190.067 56.793 189.914 56.8644ZM195.301 58.6738L197.235 56.4309C197.252 56.3991 197.26 56.3638 197.26 56.3281C197.26 56.2923 197.252 56.257 197.235 56.2252C197.223 56.1852 197.198 56.1499 197.165 56.1242C197.132 56.0984 197.092 56.0834 197.05 56.0811H196.577C196.551 56.0684 196.523 56.0618 196.495 56.0618C196.466 56.0618 196.438 56.0684 196.412 56.0811L194.519 58.324H194.293V56.2663C194.288 56.2133 194.265 56.1636 194.227 56.126C194.19 56.0883 194.14 56.0652 194.087 56.0605H193.676C193.625 56.0657 193.577 56.0896 193.543 56.1276C193.509 56.1657 193.49 56.2151 193.49 56.2663V61.1843C193.49 61.2354 193.509 61.2849 193.543 61.3229C193.577 61.361 193.625 61.3849 193.676 61.39H194.087C194.14 61.3854 194.19 61.3622 194.227 61.3246C194.265 61.2869 194.288 61.2373 194.293 61.1843V59.1265H194.519L196.577 61.4106C196.6 61.4202 196.624 61.4252 196.649 61.4252C196.674 61.4252 196.698 61.4202 196.721 61.4106H197.215C197.256 61.4058 197.295 61.3898 197.328 61.3644C197.36 61.3391 197.385 61.3052 197.4 61.2666V61.0608L195.301 58.6738ZM199.869 56.0811H200.24C200.277 56.0908 200.31 56.1089 200.339 56.1339C200.368 56.1588 200.39 56.1901 200.404 56.2251L202.195 61.143C202.215 61.2031 202.215 61.2682 202.195 61.3282C202.141 61.347 202.083 61.347 202.03 61.3282H201.598C201.556 61.3259 201.516 61.3109 201.483 61.2852C201.45 61.2594 201.425 61.2242 201.413 61.1842L200.96 59.9496H199.088L198.635 61.1842C198.622 61.2242 198.598 61.2594 198.565 61.2852C198.532 61.3109 198.492 61.3259 198.45 61.3282H198.038C197.985 61.347 197.927 61.347 197.874 61.3282C197.859 61.2995 197.852 61.2678 197.852 61.2356C197.852 61.2035 197.859 61.1718 197.874 61.143L199.684 56.2251C199.697 56.1851 199.721 56.1498 199.754 56.1241C199.787 56.0984 199.828 56.0833 199.869 56.0811ZM200.055 57.4186L199.396 59.2705H200.713L200.055 57.4186ZM206.31 56.0815H204.808C204.328 56.0582 203.854 56.2038 203.47 56.4931C203.297 56.642 203.16 56.8291 203.071 57.0397C202.981 57.2503 202.942 57.4788 202.956 57.7071C202.941 58.0273 203.043 58.3419 203.244 58.5919C203.404 58.7965 203.618 58.9531 203.861 59.0446L202.791 61.1023C202.77 61.1283 202.758 61.1611 202.758 61.1949C202.758 61.2288 202.77 61.2616 202.791 61.2875C202.794 61.2922 202.798 61.2967 202.801 61.3012C202.804 61.3051 202.807 61.3089 202.81 61.3126C202.814 61.3172 202.818 61.3217 202.823 61.326C202.837 61.34 202.853 61.3521 202.871 61.362C202.903 61.3799 202.94 61.3897 202.976 61.3904H203.409C203.448 61.3898 203.486 61.3778 203.519 61.3559C203.552 61.334 203.578 61.3031 203.594 61.267L204.602 59.2092H205.713V61.1435C205.713 61.1947 205.732 61.2441 205.766 61.2822C205.8 61.3202 205.847 61.3441 205.898 61.3493H206.31C206.363 61.3446 206.413 61.3214 206.45 61.2838C206.488 61.2462 206.511 61.1965 206.516 61.1435V56.2256C206.499 56.1839 206.471 56.148 206.435 56.1224C206.398 56.0968 206.355 56.0825 206.31 56.0815ZM205.713 58.5096H204.808C204.548 58.5242 204.292 58.4437 204.088 58.2833C204.012 58.2039 203.953 58.1102 203.914 58.0077C203.875 57.9053 203.857 57.7961 203.861 57.6865C203.855 57.5718 203.873 57.457 203.916 57.3503C203.959 57.2436 204.024 57.1477 204.108 57.0692C204.334 56.8871 204.621 56.7987 204.911 56.8223H205.816L205.713 58.5096ZM218.183 56.4322L216.249 58.6751L218.389 60.9797C218.412 61.0089 218.425 61.0452 218.425 61.0826C218.425 61.12 218.412 61.1563 218.389 61.1855C218.374 61.2242 218.349 61.258 218.316 61.2834C218.283 61.3088 218.244 61.3248 218.203 61.3296H217.709C217.701 61.3332 217.692 61.3362 217.683 61.3385C217.674 61.3408 217.665 61.3424 217.656 61.3432L217.645 61.3439L217.637 61.3441C217.613 61.3441 217.588 61.3392 217.565 61.3296L215.508 59.0455H215.281V61.1032C215.277 61.1562 215.254 61.2059 215.216 61.2436C215.178 61.2812 215.129 61.3043 215.076 61.309H214.664C214.613 61.3039 214.566 61.2799 214.532 61.2419C214.497 61.2038 214.479 61.1544 214.479 61.1032V56.1853C214.479 56.1341 214.497 56.0846 214.532 56.0466C214.566 56.0085 214.613 55.9846 214.664 55.9795H215.076C215.129 55.9841 215.178 56.0073 215.216 56.0449C215.254 56.0826 215.277 56.1323 215.281 56.1853V58.243H215.508L217.38 56.0824C217.406 56.0697 217.434 56.0631 217.463 56.0631C217.491 56.0631 217.519 56.0697 217.545 56.0824H217.998C218.039 56.0847 218.08 56.0997 218.113 56.1254C218.146 56.1512 218.17 56.1864 218.183 56.2264C218.199 56.2583 218.208 56.2936 218.208 56.3293C218.208 56.3651 218.199 56.4003 218.183 56.4322ZM223.101 56.0811H220.2C220.148 56.0808 220.099 56.0997 220.061 56.1339C220.023 56.1681 219.999 56.2153 219.994 56.2662V58.5092C220.016 59.109 219.932 59.7079 219.747 60.2788C219.719 60.3929 219.652 60.494 219.559 60.5651C219.465 60.6363 219.35 60.6732 219.233 60.6698H219.109C219.083 60.6669 219.057 60.6695 219.032 60.6775C219.007 60.6855 218.984 60.6987 218.965 60.7161C218.945 60.7336 218.93 60.7551 218.919 60.779C218.909 60.8029 218.903 60.8288 218.903 60.855V61.2048C218.903 61.2593 218.925 61.3117 218.964 61.3503C219.002 61.3889 219.055 61.4105 219.109 61.4105H219.212C219.464 61.429 219.715 61.3698 219.932 61.2411C220.149 61.1123 220.322 60.9201 220.426 60.6903C220.682 59.9998 220.801 59.2658 220.776 58.5297V56.8218H222.504V61.2048C222.504 61.256 222.523 61.3054 222.557 61.3435C222.591 61.3815 222.639 61.4054 222.69 61.4105H223.101C223.154 61.4059 223.204 61.3827 223.241 61.3451C223.279 61.3075 223.302 61.2578 223.307 61.2048V56.2868C223.302 56.2338 223.279 56.1841 223.241 56.1465C223.204 56.1089 223.154 56.0857 223.101 56.0811ZM228.122 56.0813H228.534C228.56 56.0681 228.59 56.0608 228.619 56.0599C228.633 56.0596 228.646 56.0605 228.659 56.0627C228.675 56.0654 228.691 56.07 228.706 56.0765C228.734 56.0882 228.758 56.1058 228.778 56.1279C228.798 56.1501 228.813 56.1763 228.822 56.2048V61.1227C228.822 61.1773 228.8 61.2296 228.762 61.2682C228.723 61.3068 228.671 61.3285 228.616 61.3285H228.204C228.154 61.3234 228.106 61.2994 228.072 61.2614C228.038 61.2233 228.019 61.1739 228.019 61.1227V57.5423L225.571 61.2256C225.55 61.2565 225.523 61.2821 225.491 61.3C225.458 61.318 225.422 61.3277 225.385 61.3285H224.912C224.858 61.3285 224.805 61.3068 224.767 61.2682C224.728 61.2296 224.706 61.1773 224.706 61.1227V56.2048C224.706 56.1502 224.728 56.0979 224.767 56.0593C224.805 56.0207 224.858 55.999 224.912 55.999H225.303C225.358 55.999 225.41 56.0207 225.449 56.0593C225.487 56.0979 225.509 56.1502 225.509 56.2048V59.7646L227.958 56.0813C228.011 56.0625 228.069 56.0625 228.122 56.0813ZM233.945 56.0811H233.616C233.563 56.0857 233.513 56.1089 233.476 56.1465C233.438 56.1841 233.415 56.2338 233.41 56.2868V58.3445H230.941V56.2868C230.941 56.2323 230.919 56.1799 230.881 56.1413C230.842 56.1027 230.79 56.0811 230.735 56.0811H230.344C230.29 56.0811 230.237 56.1027 230.199 56.1413C230.16 56.1799 230.138 56.2323 230.138 56.2868V61.2048C230.138 61.2593 230.16 61.3117 230.199 61.3503C230.237 61.3889 230.29 61.4105 230.344 61.4105H230.735C230.79 61.4105 230.842 61.3889 230.881 61.3503C230.919 61.3117 230.941 61.2593 230.941 61.2048V59.1471H233.328V61.2048C233.332 61.2578 233.356 61.3074 233.393 61.3451C233.431 61.3827 233.481 61.4059 233.534 61.4105H233.945C233.998 61.4059 234.048 61.3827 234.085 61.3451C234.123 61.3074 234.146 61.2578 234.151 61.2048V56.2868C234.146 56.2338 234.123 56.1841 234.085 56.1465C234.048 56.1089 233.998 56.0857 233.945 56.0811ZM238.987 56.0813H239.398C239.423 56.0939 239.445 56.1114 239.462 56.1326C239.48 56.1538 239.493 56.1783 239.501 56.2048V61.1227C239.502 61.1739 239.483 61.2233 239.448 61.2614C239.414 61.2994 239.367 61.3234 239.316 61.3285H238.905C238.85 61.3285 238.798 61.3068 238.759 61.2682C238.72 61.2296 238.699 61.1773 238.699 61.1227V57.5423L236.25 61.2256C236.233 61.255 236.209 61.2797 236.181 61.2977C236.152 61.3156 236.119 61.3262 236.085 61.3285H235.674C235.621 61.3238 235.571 61.3007 235.534 61.2631C235.496 61.2254 235.473 61.1757 235.468 61.1227V56.2048C235.473 56.1518 235.496 56.1021 235.534 56.0645C235.571 56.0268 235.621 56.0037 235.674 55.999H236.168C236.221 56.0037 236.27 56.0268 236.308 56.0645C236.346 56.1021 236.369 56.1518 236.374 56.2048V59.7646L238.822 56.0813C238.875 56.0625 238.934 56.0625 238.987 56.0813ZM242.752 58.6751L244.666 56.4322C244.686 56.4017 244.697 56.366 244.697 56.3293C244.697 56.2927 244.686 56.2569 244.666 56.2264C244.654 56.1864 244.629 56.1512 244.596 56.1254C244.563 56.0997 244.523 56.0847 244.481 56.0824H244.008C243.985 56.0715 243.96 56.0658 243.936 56.0658C243.911 56.0658 243.886 56.0715 243.864 56.0824L241.991 58.243H241.847V56.1853C241.842 56.1323 241.819 56.0826 241.782 56.0449C241.744 56.0073 241.694 55.9841 241.641 55.9795H241.23C241.177 55.9841 241.127 56.0073 241.089 56.0449C241.052 56.0826 241.029 56.1323 241.024 56.1853V61.1032C241.029 61.1562 241.052 61.2059 241.089 61.2436C241.127 61.2812 241.177 61.3043 241.23 61.309H241.641C241.694 61.3043 241.744 61.2812 241.782 61.2436C241.819 61.2059 241.842 61.1562 241.847 61.1032V59.0455H242.073L244.131 61.3296C244.153 61.3405 244.178 61.3461 244.203 61.3461C244.216 61.3461 244.23 61.3445 244.243 61.3413C244.254 61.3385 244.265 61.3346 244.275 61.3296H244.769C244.81 61.3248 244.849 61.3088 244.882 61.2834C244.914 61.258 244.939 61.2242 244.954 61.1855C244.97 61.1537 244.979 61.1184 244.979 61.0826C244.979 61.0469 244.97 61.0116 244.954 60.9797L242.752 58.6751ZM247.321 56.0811H247.691C247.722 56.0934 247.749 56.1129 247.77 56.138C247.792 56.1631 247.807 56.193 247.814 56.2251L249.625 61.143C249.64 61.1718 249.647 61.2035 249.647 61.2356C249.647 61.2678 249.64 61.2995 249.625 61.3282C249.6 61.3409 249.571 61.3475 249.543 61.3475C249.514 61.3475 249.486 61.3409 249.461 61.3282H249.049C249.007 61.3259 248.967 61.3109 248.934 61.2852C248.901 61.2594 248.876 61.2242 248.864 61.1842L248.411 59.9496H246.539L246.086 61.1842C246.073 61.2242 246.049 61.2594 246.016 61.2852C245.983 61.3109 245.943 61.3259 245.901 61.3282H245.489C245.436 61.347 245.378 61.347 245.325 61.3282C245.306 61.3009 245.296 61.2687 245.296 61.2356C245.296 61.2026 245.306 61.1703 245.325 61.143L247.115 56.2251C247.131 56.1835 247.159 56.1476 247.196 56.1219C247.232 56.0963 247.276 56.0821 247.321 56.0811ZM247.506 57.4186L246.827 59.2705H248.164L247.506 57.4186Z" fill="#F7FBF9"/>
</svg>
