<svg width="41" height="40" viewBox="0 0 41 40" fill="none" xmlns="http://www.w3.org/2000/svg">
<path d="M0.729991 19.1966C0.729991 14.6522 0.731423 11.3126 1.07392 8.75323C1.4138 6.21327 2.07849 4.54316 3.33219 3.2787C4.58313 2.01705 6.24691 1.35262 8.7883 1.01565C11.3158 0.68051 14.607 0.680554 19.0676 0.680612L19.246 0.680614H20.8457C25.39 0.680614 28.7297 0.682046 31.2891 1.02454C33.829 1.36443 35.4991 2.02911 36.7635 3.2828C38.0252 4.53375 38.6896 6.19753 39.0266 8.73892C39.3617 11.2666 39.3617 14.5581 39.3616 19.0192V19.1966V20.7963C39.3616 25.3407 39.3602 28.6803 39.0177 31.2397C38.6778 33.7797 38.0131 35.4498 36.7594 36.7142C35.5085 37.9758 33.8447 38.6402 31.3033 38.9772C28.7756 39.3124 25.4841 39.3123 21.023 39.3123H20.8457H19.246C14.7016 39.3123 11.362 39.3108 8.80261 38.9683C6.26265 38.6284 4.59253 37.9638 3.32808 36.7101C2.06642 35.4591 1.402 33.7953 1.06502 31.2539C0.729888 28.7264 0.729931 25.4352 0.72999 20.9746L0.729991 20.7963V19.1966Z" stroke="white" stroke-width="1.36121"/>
<path d="M19.8322 20.5671C22.6564 20.5671 24.9588 18.2578 24.9588 15.4251C24.9588 12.5924 22.6564 10.2832 19.8322 10.2832C16.9773 10.2832 14.6749 12.5924 14.6749 15.4251C14.6749 18.2578 16.9773 20.5671 19.8322 20.5671ZM19.8322 13.3006C20.9987 13.3006 21.9504 14.2551 21.9504 15.4251C21.9504 16.5952 20.9987 17.5496 19.8322 17.5496C18.6657 17.5496 17.714 16.5952 17.714 15.4251C17.6833 14.2551 18.635 13.3006 19.8322 13.3006Z" fill="white"/>
<path d="M21.8799 24.4759C22.9147 24.237 23.9192 23.8488 24.8322 23.2816C25.5323 22.8636 25.7454 21.9381 25.2889 21.2514C24.8628 20.5647 23.9192 20.3557 23.2191 20.8035C21.1493 22.0874 18.4404 22.0874 16.3706 20.8035C15.6706 20.3856 14.7574 20.5647 14.3009 21.2514C13.9052 21.9381 14.1182 22.8338 14.8183 23.2517C15.7314 23.819 16.7359 24.2071 17.7708 24.446L14.9401 27.2226C14.3617 27.7899 14.3617 28.7154 14.9401 29.2827C15.2444 29.5811 15.6097 29.7006 16.0054 29.7006C16.4011 29.7006 16.7663 29.5513 17.0707 29.2827L19.871 26.5359L22.6712 29.2827C23.2495 29.8499 24.1931 29.8499 24.7714 29.2827C25.3497 28.7154 25.3497 27.7899 24.7714 27.2226L21.8799 24.4759Z" fill="white"/>
</svg>
