<svg width="34" height="34" viewBox="0 0 34 34" fill="none" xmlns="http://www.w3.org/2000/svg">
<rect width="34" height="34" rx="5" fill="#BD1818"/>
<path d="M11 13.0822L17 19M17 19L23 13.0822M17 19L17 7" stroke="white" stroke-width="2" stroke-miterlimit="10" stroke-linecap="square"/>
<path d="M8.58887 28.4727C8.58887 28.3086 8.64453 28.1709 8.75586 28.0596C8.86719 27.9453 9.01807 27.8882 9.2085 27.8882C9.40186 27.8882 9.55273 27.9453 9.66113 28.0596C9.77246 28.1709 9.82812 28.3086 9.82812 28.4727C9.82812 28.6367 9.77246 28.7744 9.66113 28.8857C9.55273 28.9971 9.40186 29.0527 9.2085 29.0527C9.01807 29.0527 8.86719 28.9971 8.75586 28.8857C8.64453 28.7744 8.58887 28.6367 8.58887 28.4727ZM12.1133 25.1592V30.8281H11.0542V24.2451H12.0298L12.1133 25.1592ZM15.2114 26.5786V26.6709C15.2114 27.0166 15.1704 27.3374 15.0884 27.6333C15.0093 27.9263 14.8906 28.1826 14.7324 28.4023C14.5771 28.6191 14.3853 28.7876 14.1567 28.9077C13.9282 29.0278 13.6646 29.0879 13.3657 29.0879C13.0698 29.0879 12.8105 29.0337 12.5879 28.9253C12.3682 28.814 12.1821 28.6572 12.0298 28.4551C11.8774 28.2529 11.7544 28.0156 11.6606 27.7432C11.5698 27.4678 11.5054 27.166 11.4673 26.8379V26.4819C11.5054 26.1333 11.5698 25.8169 11.6606 25.5327C11.7544 25.2485 11.8774 25.0039 12.0298 24.7988C12.1821 24.5938 12.3682 24.4355 12.5879 24.3242C12.8076 24.2129 13.064 24.1572 13.3569 24.1572C13.6558 24.1572 13.9209 24.2158 14.1523 24.333C14.3838 24.4473 14.5786 24.6113 14.7368 24.8252C14.895 25.0361 15.0137 25.291 15.0928 25.5898C15.1719 25.8857 15.2114 26.2153 15.2114 26.5786ZM14.1523 26.6709V26.5786C14.1523 26.3589 14.1318 26.1553 14.0908 25.9678C14.0498 25.7773 13.9854 25.6104 13.8975 25.4668C13.8096 25.3232 13.6968 25.2119 13.5591 25.1328C13.4243 25.0508 13.2617 25.0098 13.0713 25.0098C12.8838 25.0098 12.7227 25.042 12.5879 25.1064C12.4531 25.168 12.3403 25.2544 12.2495 25.3657C12.1587 25.4771 12.0884 25.6074 12.0386 25.7568C11.9888 25.9033 11.9536 26.063 11.9331 26.2358V27.0884C11.9683 27.2993 12.0283 27.4927 12.1133 27.6685C12.1982 27.8442 12.3184 27.9849 12.4736 28.0903C12.6318 28.1929 12.834 28.2441 13.0801 28.2441C13.2705 28.2441 13.4331 28.2031 13.5679 28.1211C13.7026 28.0391 13.8125 27.9263 13.8975 27.7827C13.9854 27.6362 14.0498 27.4678 14.0908 27.2773C14.1318 27.0869 14.1523 26.8848 14.1523 26.6709ZM19.0127 28.0156V22.25H20.0762V29H19.1138L19.0127 28.0156ZM15.9189 26.6753V26.583C15.9189 26.2227 15.9614 25.8945 16.0464 25.5986C16.1313 25.2998 16.2544 25.0435 16.4155 24.8296C16.5767 24.6128 16.7729 24.4473 17.0044 24.333C17.2358 24.2158 17.4966 24.1572 17.7866 24.1572C18.0737 24.1572 18.3257 24.2129 18.5425 24.3242C18.7593 24.4355 18.9438 24.5952 19.0962 24.8032C19.2485 25.0083 19.3701 25.2544 19.4609 25.5415C19.5518 25.8257 19.6162 26.1421 19.6543 26.4907V26.7852C19.6162 27.125 19.5518 27.4355 19.4609 27.7168C19.3701 27.998 19.2485 28.2412 19.0962 28.4463C18.9438 28.6514 18.7578 28.8096 18.5381 28.9209C18.3213 29.0322 18.0679 29.0879 17.7778 29.0879C17.4907 29.0879 17.2314 29.0278 17 28.9077C16.7715 28.7876 16.5767 28.6191 16.4155 28.4023C16.2544 28.1855 16.1313 27.9307 16.0464 27.6377C15.9614 27.3418 15.9189 27.021 15.9189 26.6753ZM16.978 26.583V26.6753C16.978 26.8921 16.9971 27.0942 17.0352 27.2817C17.0762 27.4692 17.1392 27.6348 17.2241 27.7783C17.3091 27.9189 17.4189 28.0303 17.5537 28.1123C17.6914 28.1914 17.8555 28.231 18.0459 28.231C18.2861 28.231 18.4839 28.1782 18.6392 28.0728C18.7944 27.9673 18.916 27.8252 19.0039 27.6465C19.0947 27.4648 19.1562 27.2627 19.1885 27.04V26.2446C19.1709 26.0718 19.1343 25.9106 19.0786 25.7612C19.0259 25.6118 18.9541 25.4814 18.8633 25.3701C18.7725 25.2559 18.6597 25.168 18.5249 25.1064C18.3931 25.042 18.2363 25.0098 18.0547 25.0098C17.8613 25.0098 17.6973 25.0508 17.5625 25.1328C17.4277 25.2148 17.3164 25.3276 17.2285 25.4712C17.1436 25.6147 17.0806 25.7817 17.0396 25.9722C16.9985 26.1626 16.978 26.3662 16.978 26.583ZM22.6162 29H21.5571V23.7881C21.5571 23.4336 21.623 23.1362 21.7549 22.896C21.8896 22.6528 22.0815 22.4697 22.3306 22.3467C22.5796 22.2207 22.874 22.1577 23.2139 22.1577C23.3193 22.1577 23.4233 22.165 23.5259 22.1797C23.6284 22.1914 23.728 22.2104 23.8247 22.2368L23.7983 23.0542C23.7397 23.0396 23.6753 23.0293 23.605 23.0234C23.5376 23.0176 23.4644 23.0146 23.3853 23.0146C23.2241 23.0146 23.085 23.0454 22.9678 23.1069C22.8535 23.1655 22.7656 23.252 22.7041 23.3662C22.6455 23.4805 22.6162 23.6211 22.6162 23.7881V29ZM23.5962 24.2451V25.0186H20.8276V24.2451H23.5962Z" fill="#F7FBF9"/>
</svg>
