<svg width="79" height="89" viewBox="0 0 79 89" fill="none" xmlns="http://www.w3.org/2000/svg">
<path d="M2 18.8103C2.43103 13.2069 7.17241 2 22.6897 2C33.7664 2 36.8307 4.95192 40.7931 8.9292C43.3793 4.58621 48.5517 2 55.0172 2C69.2414 2 77 12.3448 77 18.8103V30.4483C77 42.0862 69.2414 51.1379 55.0172 51.1379H49.8448C49.8448 75.7069 45.9655 87.3448 36.9138 87.3448C27.8621 87.3448 25.2759 73.1207 25.2759 51.1379H22.6897C9.75862 51.1379 2 42.0862 2 31.7414V18.8103Z" fill="white"/>
<path d="M2 18.8103L0.710705 18.7112C0.708167 18.7442 0.706897 18.7772 0.706897 18.8103H2ZM54.5079 19.9989C55.1643 20.2802 55.9245 19.9761 56.2058 19.3197C56.4871 18.6633 56.183 17.9031 55.5266 17.6218L54.5079 19.9989ZM40.7931 8.9292L39.877 9.84184V9.84184L40.7931 8.9292ZM7.17241 31.7414C7.17241 32.4555 7.75136 33.0345 8.46552 33.0345C9.17968 33.0345 9.75862 32.4555 9.75862 31.7414H7.17241ZM16.8958 10.9418C17.5492 10.6535 17.8453 9.89021 17.5571 9.23678C17.2689 8.58336 16.5055 8.28729 15.8521 8.57549L16.8958 10.9418ZM19.2437 7.51179C18.5448 7.65858 18.0972 8.34415 18.244 9.04307C18.3908 9.74198 19.0763 10.1896 19.7753 10.0428L19.2437 7.51179ZM21.5569 9.74863C22.2656 9.66005 22.7682 9.01377 22.6797 8.30513C22.5911 7.59648 21.9448 7.09382 21.2362 7.1824L21.5569 9.74863ZM22.6897 0.706897C14.5833 0.706897 9.16516 3.6503 5.73001 7.43478C2.33347 11.1767 0.945266 15.6619 0.710705 18.7112L3.28929 18.9095C3.48577 16.3554 4.68377 12.4353 7.64499 9.17298C10.5676 5.95315 15.2788 3.2931 22.6897 3.2931V0.706897ZM0.706897 18.8103V31.7414H3.2931V18.8103H0.706897ZM0.706897 31.7414C0.706897 42.8004 9.04446 52.431 22.6897 52.431V49.8448C10.4728 49.8448 3.2931 41.372 3.2931 31.7414H0.706897ZM55.0172 52.431C62.4113 52.431 68.2569 50.0718 72.257 46.0717C76.2525 42.0762 78.2931 36.5568 78.2931 30.4483H75.7069C75.7069 35.9777 73.8681 40.8031 70.4283 44.243C66.9931 47.6782 61.8474 49.8448 55.0172 49.8448V52.431ZM78.2931 30.4483V18.8103H75.7069V30.4483H78.2931ZM78.2931 18.8103C78.2931 15.1212 76.1232 10.5944 72.2146 7.02567C68.2643 3.41888 62.4595 0.706897 55.0172 0.706897V3.2931C61.7991 3.2931 66.9857 5.75353 70.4708 8.93554C73.9975 12.1556 75.7069 16.034 75.7069 18.8103H78.2931ZM55.5266 17.6218C47.9877 14.3908 44.644 10.9624 41.7092 8.01655L39.877 9.84184C42.8946 12.8707 46.5164 16.574 54.5079 19.9989L55.5266 17.6218ZM41.7092 8.01655C39.7347 6.03461 37.8339 4.14467 34.9562 2.80139C32.0775 1.45762 28.3348 0.706897 22.6897 0.706897V3.2931C28.1212 3.2931 31.449 4.01834 33.8623 5.14485C36.2766 6.27185 37.8892 7.84651 39.877 9.84184L41.7092 8.01655ZM55.0172 0.706897C48.2229 0.706897 42.5598 3.43506 39.6821 8.26759L41.9041 9.59081C44.1988 5.73735 48.8806 3.2931 55.0172 3.2931V0.706897ZM49.8448 52.431H55.0172V49.8448H49.8448V52.431ZM36.9138 88.6379C39.4843 88.6379 41.7356 87.8001 43.6187 86.1031C45.4718 84.4329 46.9012 81.9927 47.9937 78.8834C50.1714 72.6854 51.1379 63.4491 51.1379 51.1379H48.5517C48.5517 63.3957 47.5786 72.2629 45.5537 78.0261C44.5449 80.8974 43.3073 82.9022 41.8873 84.1819C40.4971 85.4348 38.8692 86.0517 36.9138 86.0517V88.6379ZM22.6897 52.431H25.2759V49.8448H22.6897V52.431ZM25.2759 52.431H49.8448V49.8448H25.2759V52.431ZM23.9828 51.1379C23.9828 62.1431 24.626 71.3483 26.4559 77.8359C27.3712 81.081 28.6135 83.7603 30.3172 85.6458C32.0599 87.5743 34.2594 88.6379 36.9138 88.6379V86.0517C35.0424 86.0517 33.5241 85.3373 32.2361 83.9119C30.9091 82.4433 29.8077 80.1927 28.945 77.1339C27.2188 71.0138 26.569 62.1155 26.569 51.1379H23.9828ZM9.75862 31.7414C9.75862 25.4564 10.1895 20.8224 11.3209 17.4563C12.4265 14.1667 14.1804 12.1394 16.8958 10.9418L15.8521 8.57549C12.3686 10.112 10.1682 12.7681 8.86942 16.6323C7.59635 20.42 7.17241 25.4104 7.17241 31.7414H9.75862ZM19.7753 10.0428C20.3353 9.92515 20.9285 9.82719 21.5569 9.74863L21.2362 7.1824C20.5442 7.26889 19.8803 7.3781 19.2437 7.51179L19.7753 10.0428Z" fill="#027A3C"/>
<rect x="20.7026" y="66.6704" width="34.8432" height="5.17241" rx="2.58621" transform="rotate(-19.8339 20.7026 66.6704)" fill="white" stroke="#027A3C" stroke-width="2.58621"/>
<rect x="22.6897" y="78.6113" width="31.26" height="5.17241" rx="2.58621" transform="rotate(-19.8339 22.6897 78.6113)" fill="white" stroke="#027A3C" stroke-width="2.58621"/>
</svg>
