<svg width="284" height="131" viewBox="0 0 284 131" fill="none" xmlns="http://www.w3.org/2000/svg">
<path d="M1.06696 56.9715C28.8195 53.2212 53.7762 47.588 68.5517 39.5401C75.9303 35.5211 80.8848 30.8383 82.2736 25.3806C83.6721 19.885 81.4115 13.8065 74.8569 7.12587L74.1431 7.82621C80.5885 14.3955 82.5779 20.1296 81.3045 25.134C80.0214 30.1762 75.3822 34.681 68.0733 38.662C53.4738 46.614 28.6805 52.2309 0.933041 55.9805L1.06696 56.9715ZM74.8569 7.12587C71.5658 3.77148 68.3821 1.78108 65.3059 0.952243C62.2197 0.120731 59.2806 0.469125 56.5124 1.72376C51.013 4.21616 46.197 10.2793 42.0627 17.7335C33.7787 32.6699 28.0143 53.6062 25.0184 64.3416L25.9816 64.6104C28.9857 53.8459 34.7213 33.0321 42.9373 18.2186C47.053 10.7977 51.737 4.98593 56.9251 2.63458C59.5006 1.46733 62.2022 1.15167 65.0457 1.91781C67.8992 2.68663 70.9342 4.5556 74.1431 7.82621L74.8569 7.12587ZM25.0184 64.3416C23.4918 69.8121 23.5013 77.6406 24.4485 85.97C25.3974 94.314 27.2944 103.218 29.5835 110.869C31.8669 118.502 34.5591 124.951 37.1248 128.34C37.7692 129.192 38.4223 129.873 39.0788 130.33C39.7357 130.789 40.431 131.047 41.1386 130.982C41.8544 130.916 42.4895 130.528 43.0366 129.882C43.5786 129.243 44.0548 128.328 44.4717 127.142L43.5283 126.81C43.1327 127.936 42.7065 128.725 42.2737 129.236C41.8459 129.741 41.4337 129.95 41.0469 129.986C40.652 130.022 40.1896 129.886 39.6509 129.51C39.1119 129.134 38.5316 128.542 37.9221 127.737C35.4721 124.501 32.8206 118.2 30.5415 110.583C28.2681 102.984 26.3838 94.1381 25.4421 85.857C24.4987 77.5615 24.5082 69.89 25.9816 64.6104L25.0184 64.3416ZM44.4717 127.142C50.9369 108.741 61.8747 95.8074 74.8831 80.2974L74.1169 79.6548C61.1253 95.1448 50.0631 108.211 43.5283 126.81L44.4717 127.142ZM74.8831 80.2974C78.1036 76.4575 81.0133 74.237 83.418 73.1925C85.824 72.1474 87.6636 72.2992 88.8498 73.081C90.0348 73.862 90.7123 75.3667 90.5946 77.3448C90.4771 79.3212 89.5602 81.7254 87.6096 84.1637L88.3904 84.7884C90.4398 82.2268 91.4604 79.6309 91.5929 77.4042C91.7252 75.1792 90.9652 73.2776 89.4002 72.2461C87.8364 71.2155 85.6135 71.1485 83.0195 72.2753C80.4242 73.4026 77.3964 75.7446 74.1169 79.6548L74.8831 80.2974ZM87.6096 84.1637C87.1047 84.7948 86.7413 85.2994 86.5153 85.6851C86.4032 85.8764 86.3134 86.0576 86.2605 86.2227C86.2152 86.3641 86.159 86.6062 86.268 86.8415C86.4071 87.1417 86.6956 87.214 86.8809 87.2171C87.0563 87.2201 87.2373 87.1711 87.3956 87.1146C87.7232 86.9978 88.1428 86.7782 88.6234 86.4914C90.5536 85.3396 93.9067 82.8348 97.6204 79.9325C101.343 77.0229 105.456 73.6921 108.917 70.8715C112.384 68.0464 115.188 65.7411 116.307 64.8707L115.693 64.0814C114.562 64.961 111.741 67.2807 108.286 70.0962C104.825 72.9163 100.719 76.2417 97.0046 79.1446C93.2808 82.0548 89.9777 84.5188 88.111 85.6326C87.6424 85.9123 87.2915 86.0901 87.0597 86.1727C86.9384 86.216 86.8925 86.2172 86.8979 86.2173C86.9132 86.2175 87.0886 86.2338 87.1754 86.4212C87.2321 86.5437 87.1845 86.6162 87.2129 86.5277C87.2337 86.4629 87.2825 86.3537 87.3781 86.1906C87.5673 85.8676 87.8953 85.4074 88.3904 84.7884L87.6096 84.1637ZM116.307 64.8707C116.509 64.7136 116.695 64.4853 116.868 64.2267C117.045 63.9626 117.225 63.6395 117.409 63.2686C117.775 62.5268 118.168 61.5634 118.575 60.4325C119.39 58.1688 120.275 55.196 121.132 51.8988C122.847 45.3053 124.462 37.3755 125.184 31.1588C125.544 28.0568 125.687 25.3491 125.497 23.4402C125.402 22.4941 125.222 21.6864 124.905 21.1208C124.744 20.8326 124.532 20.5805 124.253 20.4165C123.965 20.2474 123.64 20.194 123.304 20.248C122.67 20.3496 122.005 20.8276 121.305 21.5602C120.589 22.3107 119.766 23.4037 118.826 24.8725C116.944 27.8124 114.55 32.3202 111.547 38.7649L112.453 39.1873C115.45 32.757 117.822 28.296 119.668 25.4117C120.592 23.9684 121.375 22.9354 122.028 22.2508C122.699 21.5484 123.17 21.2822 123.462 21.2354C123.588 21.2152 123.674 21.2365 123.747 21.2791C123.828 21.3269 123.929 21.4235 124.033 21.6092C124.246 21.9914 124.411 22.6319 124.501 23.5393C124.681 25.3374 124.549 27.9578 124.191 31.0434C123.475 37.2017 121.871 45.0844 120.165 51.6471C119.311 54.928 118.435 57.8692 117.634 60.0939C117.233 61.2071 116.855 62.1313 116.512 62.8256C116.341 63.1727 116.181 63.4547 116.037 63.6709C115.889 63.8926 115.772 64.0197 115.693 64.0814L116.307 64.8707ZM111.547 38.7649C99.5454 64.5179 88.5163 93.5762 86.005 111.218C85.3771 115.629 85.2744 119.371 85.8459 122.186C86.4174 125 87.6939 127.004 89.9138 127.696C92.0835 128.372 94.9743 127.727 98.6214 125.747C102.289 123.755 106.823 120.358 112.336 115.346L111.664 114.606C106.177 119.594 101.711 122.931 98.1442 124.868C94.5569 126.815 91.979 127.292 90.2112 126.741C88.4936 126.206 87.3638 124.636 86.8259 121.987C86.2881 119.338 86.3729 115.729 86.995 111.359C89.4837 93.876 100.455 64.9342 112.453 39.1873L111.547 38.7649ZM112.336 115.346C134.355 95.3286 151.244 76.6882 160.871 66.0617C163.278 63.4038 165.227 61.2522 166.69 59.7042C167.421 58.9299 168.026 58.3121 168.502 57.8598C168.994 57.3927 169.307 57.1434 169.467 57.0593C169.503 57.0405 169.503 57.0451 169.478 57.0501C169.454 57.0547 169.348 57.0706 169.228 56.9995C169.097 56.9225 169.055 56.8061 169.044 56.7554C169.034 56.712 169.041 56.6957 169.037 56.7291C169.015 56.8845 168.885 57.2506 168.575 57.8986C167.973 59.153 166.819 61.222 165.068 64.2241L165.932 64.728C167.681 61.73 168.855 59.6272 169.476 58.3308C169.777 57.7035 169.982 57.1995 170.027 56.8641C170.04 56.7748 170.047 56.6595 170.02 56.5404C169.993 56.4141 169.917 56.2454 169.737 56.1389C169.567 56.0384 169.394 56.0477 169.288 56.0682C169.18 56.0892 169.081 56.1323 169.002 56.174C168.701 56.3321 168.293 56.6786 167.813 57.1347C167.317 57.6057 166.698 58.2389 165.963 59.0175C164.491 60.5749 162.534 62.7358 160.129 65.3904C150.506 76.0139 133.645 94.6235 111.664 114.606L112.336 115.346ZM165.068 64.2241C161.623 70.1302 155.537 75.5796 148.783 80.1237C142.037 84.6629 134.666 88.2706 128.699 90.5079C125.715 91.627 123.096 92.3981 121.092 92.7737C120.088 92.9618 119.255 93.0474 118.616 93.0338C117.951 93.0196 117.593 92.8992 117.44 92.7752C117.379 92.7261 117.357 92.682 117.348 92.633C117.336 92.5736 117.338 92.4646 117.403 92.2867C117.539 91.9194 117.898 91.3926 118.581 90.6924C119.935 89.3042 122.404 87.3912 126.271 84.8962L125.729 84.0559C121.846 86.561 119.3 88.523 117.865 89.9941C117.153 90.7236 116.674 91.3726 116.465 91.9409C116.358 92.2308 116.31 92.5295 116.365 92.8194C116.422 93.1198 116.582 93.3667 116.81 93.552C117.235 93.8967 117.885 94.0185 118.594 94.0336C119.329 94.0493 120.236 93.9513 121.276 93.7566C123.357 93.3666 126.035 92.5751 129.051 91.4442C135.084 89.1816 142.526 85.5392 149.342 80.9534C156.15 76.3725 162.377 70.8219 165.932 64.728L165.068 64.2241ZM126.271 84.8962C133.997 79.9116 139.659 77.3521 144.609 76.2453C149.549 75.1407 153.819 75.4738 158.789 76.3436C168.764 78.0893 181.457 81.9794 207.529 80.4752L207.471 79.4769C181.543 80.9728 168.986 77.1128 158.961 75.3586C153.931 74.4783 149.514 74.1239 144.391 75.2694C139.278 76.4125 133.503 79.0405 125.729 84.0559L126.271 84.8962ZM207.529 80.4752C259.632 77.4693 278.788 59.9252 283.4 53.7761L282.6 53.1761C278.212 59.027 259.368 76.4828 207.471 79.4769L207.529 80.4752Z" fill="#54544F"/>
</svg>
