<svg width="41" height="40" viewBox="0 0 41 40" fill="none" xmlns="http://www.w3.org/2000/svg">
<path d="M28.4913 14.2318C28.4445 14.8994 28.057 17.2359 27.6728 19.7642L26.4667 27.2498C26.4667 27.2498 26.3698 28.3471 25.5513 28.5387C24.7327 28.7304 23.383 27.8712 23.1424 27.6795C22.9486 27.5374 19.5275 25.3892 18.2746 24.3415C17.9372 24.054 17.5529 23.4822 18.3214 22.8146C20.0553 21.2415 22.1301 19.285 23.383 18.0456C23.9609 17.4739 24.5389 16.1387 22.1301 17.7581L15.3345 22.2892C15.3345 22.2892 14.5628 22.7651 13.1161 22.3354C11.6695 21.9058 9.98228 21.334 9.98228 21.334C9.98228 21.334 8.8263 20.6202 10.8008 19.8567L22.0332 15.2794C23.1424 14.8035 26.901 13.2767 26.901 13.2767C26.901 13.2767 28.635 12.6091 28.4913 14.2318Z" fill="white"/>
<path d="M1.18537 19.1966C1.18537 14.6522 1.18681 11.3126 1.5293 8.75323C1.86919 6.21327 2.53387 4.54316 3.78757 3.2787C5.03851 2.01705 6.70229 1.35262 9.24368 1.01565C11.7712 0.68051 15.0623 0.680554 19.523 0.680612L19.7013 0.680614H21.3011C25.8454 0.680614 29.1851 0.682046 31.7445 1.02454C34.2844 1.36443 35.9545 2.02911 37.2189 3.2828C38.4805 4.53375 39.145 6.19753 39.4819 8.73892C39.8171 11.2666 39.8171 14.5581 39.817 19.0192V19.1966V20.7963C39.817 25.3407 39.8156 28.6803 39.4731 31.2397C39.1332 33.7797 38.4685 35.4498 37.2148 36.7142C35.9639 37.9758 34.3001 38.6402 31.7587 38.9772C29.2309 39.3124 25.9395 39.3123 21.4784 39.3123H21.3011H19.7013C15.157 39.3123 11.8174 39.3108 9.25799 38.9683C6.71803 38.6284 5.04792 37.9638 3.78347 36.7101C2.52181 35.4591 1.85738 33.7953 1.52041 31.2539C1.18527 28.7264 1.18531 25.4352 1.18537 20.9746L1.18537 20.7963V19.1966Z" stroke="white" stroke-width="1.36121"/>
</svg>
