<svg width="56" height="56" viewBox="0 0 56 56" fill="none" xmlns="http://www.w3.org/2000/svg">
<path d="M42.8256 13.8486L13.1512 26.0472L20.2049 30.3891M42.8256 13.8486L33.5827 39.4864C30.9072 38.4526 25.556 36.0129 25.556 34.5242M42.8256 13.8486C37.0691 20.1202 25.556 33.0356 25.556 34.5242M42.8256 13.8486C35.7718 18.4662 21.3724 28.2389 20.2049 30.3891M25.556 34.5242C24.1479 36.1783 21.398 40.0239 21.6643 42.1742L20.2049 30.3891" stroke="white" stroke-width="1.34884" stroke-linecap="round" stroke-linejoin="round"/>
<path d="M42.8256 13.8486L13.1512 26.0472L20.2049 30.3891M42.8256 13.8486L33.5827 39.4864C30.9072 38.4526 25.556 36.0129 25.556 34.5242M42.8256 13.8486C37.0691 20.1202 25.556 33.0356 25.556 34.5242M42.8256 13.8486C35.7718 18.4662 21.3724 28.2389 20.2049 30.3891M25.556 34.5242C24.1479 36.1783 21.398 40.0239 21.6643 42.1742L20.2049 30.3891" stroke="white" stroke-width="1.34884" stroke-linecap="round" stroke-linejoin="round"/>
<rect x="0.337209" y="0.360647" width="55.3023" height="55.3023" rx="3.7093" stroke="white" stroke-width="0.674419"/>
</svg>
