<svg width="41" height="40" viewBox="0 0 41 40" fill="none" xmlns="http://www.w3.org/2000/svg">
<path d="M0.957707 19.1966C0.957707 14.6526 0.959152 11.3132 1.30305 8.75532C1.64431 6.21705 2.31153 4.55064 3.56964 3.29254C4.82774 2.03443 6.49415 1.36721 9.03242 1.02595C11.5903 0.682053 14.9297 0.680607 19.4737 0.680607H21.0734C25.6173 0.680607 28.9568 0.682053 31.5146 1.02595C34.0529 1.36721 35.7193 2.03443 36.9775 3.29254C38.2355 4.55064 38.9028 6.21705 39.244 8.75532C39.5879 11.3132 39.5894 14.6526 39.5894 19.1966V20.7963C39.5894 25.3402 39.5879 28.6797 39.244 31.2375C38.9028 33.7758 38.2355 35.4422 36.9774 36.7004C35.7193 37.9584 34.0529 38.6257 31.5146 38.9669C28.9568 39.3108 25.6173 39.3123 21.0734 39.3123H19.4737C14.9297 39.3123 11.5903 39.3108 9.03242 38.9669C6.49415 38.6257 4.82774 37.9584 3.56963 36.7004C2.31153 35.4422 1.64431 33.7758 1.30305 31.2375C0.959152 28.6797 0.957707 25.3402 0.957707 20.7963V19.1966Z" stroke="white" stroke-width="1.36121"/>
<path d="M21.8965 27.4238C14.2837 27.4238 9.94155 22.2767 9.76062 13.7119H13.574C13.6992 19.9982 16.5105 22.661 18.7373 23.21V13.7119H22.3281V19.1335C24.527 18.9002 26.837 16.4296 27.6164 13.7119H31.2072C30.6087 17.061 28.1036 19.5316 26.3222 20.5472C28.1036 21.3708 30.9568 23.5257 32.0424 27.4238H28.0897C27.2407 24.8159 25.1255 22.7982 22.3281 22.5237V27.4238H21.8965Z" fill="white"/>
</svg>
