<svg width="57" height="56" viewBox="0 0 57 56" fill="none" xmlns="http://www.w3.org/2000/svg">
<path fill-rule="evenodd" clip-rule="evenodd" d="M37.3011 18.9223C36.1164 17.7371 34.709 16.7979 33.1598 16.1587C31.6107 15.5196 29.9505 15.1932 28.2747 15.1983C21.2419 15.1983 15.5168 20.8948 15.5139 27.8978C15.5108 30.1277 16.0986 32.3187 17.2175 34.2476L15.407 40.8261L22.1715 39.0602C24.0439 40.0746 26.14 40.6055 28.2695 40.6048H28.2747C35.3069 40.6048 41.0314 34.9077 41.0348 27.9053C41.0391 26.2352 40.7112 24.5809 40.0702 23.0388C39.4292 21.4966 38.4879 20.0973 37.3011 18.9223ZM28.2747 38.4613H28.2701C26.3717 38.4619 24.5078 37.9538 22.8722 36.99L22.4849 36.7612L18.4709 37.8092L19.5423 33.9141L19.29 33.5136C18.2285 31.833 17.6661 29.8856 17.6683 27.8978C17.6683 22.0783 22.4283 17.3435 28.2787 17.3435C31.0852 17.3385 33.7787 18.4484 35.7669 20.4292C37.755 22.41 38.875 25.0994 38.8805 27.9058C38.8782 33.7259 34.1205 38.4613 28.2747 38.4613ZM34.0919 30.5561C33.7732 30.3971 32.2041 29.6294 31.9135 29.5236C31.6229 29.4178 31.4084 29.3646 31.1961 29.6826C30.9839 30.0007 30.3724 30.7123 30.1865 30.9268C30.0005 31.1413 29.8146 31.1648 29.496 31.0058C29.1774 30.8467 28.1494 30.5121 26.9315 29.4309C25.9836 28.5894 25.3441 27.5506 25.1581 27.2331C24.9722 26.9156 25.1381 26.7434 25.2977 26.5855C25.4413 26.4431 25.6164 26.2148 25.776 26.0295C25.9356 25.8442 25.9888 25.7114 26.0946 25.4998C26.2004 25.2881 26.1478 25.1028 26.0683 24.9443C25.9888 24.7859 25.3509 23.2236 25.0855 22.588C24.8264 21.9691 24.5638 22.0532 24.3681 22.0435C24.1822 22.0343 23.9677 22.032 23.7566 22.032C23.5952 22.0362 23.4365 22.0736 23.2902 22.1419C23.144 22.2102 23.0134 22.308 22.9066 22.429C22.6142 22.7471 21.7905 23.5159 21.7905 25.0765C21.7905 26.637 22.9346 28.1472 23.0925 28.3589C23.2504 28.5705 25.3406 31.7757 28.539 33.1504C29.1329 33.4047 29.7397 33.6277 30.3569 33.8185C31.1206 34.0599 31.8157 34.0262 32.3648 33.9444C32.9775 33.8534 34.2526 33.1767 34.5175 32.4353C34.7823 31.6939 34.7829 31.059 34.7034 30.9268C34.6239 30.7947 34.4111 30.7146 34.0919 30.5561Z" fill="white"/>
<rect x="0.569753" y="0.360647" width="55.3023" height="55.3023" rx="3.7093" stroke="white" stroke-width="0.674419"/>
</svg>
