<svg width="41" height="40" viewBox="0 0 41 40" fill="none" xmlns="http://www.w3.org/2000/svg">
<path d="M1.4131 19.1966C1.4131 14.6522 1.41453 11.3126 1.75702 8.75323C2.09691 6.21327 2.76159 4.54316 4.0153 3.2787C5.26623 2.01705 6.93001 1.35262 9.4714 1.01565C11.9989 0.68051 15.2901 0.680554 19.7507 0.680612L19.9291 0.680614H21.5288C26.0731 0.680614 29.4128 0.682046 31.9722 1.02454C34.5121 1.36443 36.1822 2.02911 37.4466 3.2828C38.7083 4.53375 39.3727 6.19753 39.7097 8.73892C40.0448 11.2666 40.0448 14.5581 40.0447 19.0192V19.1966V20.7963C40.0447 25.3407 40.0433 28.6803 39.7008 31.2397C39.3609 33.7797 38.6962 35.4498 37.4425 36.7142C36.1916 37.9758 34.5278 38.6402 31.9864 38.9772C29.4587 39.3124 26.1672 39.3123 21.7061 39.3123H21.5288H19.9291C15.3847 39.3123 12.0451 39.3108 9.48571 38.9683C6.94576 38.6284 5.27564 37.9638 4.01119 36.7101C2.74953 35.4591 2.0851 33.7953 1.74813 31.2539C1.41299 28.7264 1.41304 25.4352 1.4131 20.9746L1.4131 20.7963V19.1966Z" stroke="white" stroke-width="1.36121"/>
<path fill-rule="evenodd" clip-rule="evenodd" d="M21.195 9.71289C15.7733 9.71289 11.3772 14.1994 11.3772 19.7326C11.3772 21.6247 11.8916 23.394 12.7869 24.9043L11.0164 30.2806L16.4515 28.5044C17.8578 29.2988 19.4746 29.7522 21.195 29.7522C26.6167 29.7522 31.0129 25.2657 31.0129 19.736C31.0129 14.1994 26.6167 9.71289 21.195 9.71289ZM21.195 28.1567C19.5181 28.1567 17.958 27.6453 16.6552 26.7623L13.4851 27.7987L14.5173 24.6725C13.5285 23.285 12.9472 21.5769 12.9472 19.7326C12.9472 15.0892 16.6486 11.3118 21.2017 11.3118C25.7515 11.3118 29.4562 15.0892 29.4562 19.7326C29.4495 24.3759 25.7448 28.1567 21.195 28.1567ZM26.1524 22.0406C26.2125 22.1429 26.2125 22.6338 26.0121 23.2065C25.8116 23.7793 24.8295 24.3316 24.3886 24.3725C23.9476 24.4134 23.9476 24.7407 21.5024 23.7588C19.0571 22.777 17.5138 20.2167 17.3935 20.053C17.2732 19.8894 16.4114 18.7234 16.4114 17.5132C16.4114 16.3063 17.0327 15.7097 17.2532 15.4642C17.4737 15.2188 17.7342 15.1574 17.8946 15.1574C18.0549 15.1574 18.2153 15.1779 18.3556 15.1779C18.4959 15.1779 18.6963 15.096 18.8967 15.587C19.0972 16.0779 19.5782 17.2882 19.6383 17.4109C19.6985 17.5336 19.7386 17.6768 19.6584 17.8404C19.5782 18.0041 19.5381 18.1064 19.4179 18.2496C19.2976 18.3927 19.164 18.57 19.0571 18.6791C18.9368 18.8018 18.8099 18.9348 18.9502 19.1803C19.0905 19.4257 19.5749 20.2303 20.2897 20.8815C21.2084 21.7167 21.9834 21.9758 22.2239 22.0985C22.4644 22.2213 22.6047 22.2008 22.745 22.0372C22.8853 21.8735 23.3463 21.3212 23.5067 21.0758C23.667 20.8303 23.8274 20.8712 24.0478 20.953C24.2683 21.0349 25.4509 21.6281 25.6914 21.7508C25.9319 21.8769 26.0922 21.9383 26.1524 22.0406Z" fill="white"/>
</svg>
