<svg width="34" height="34" viewBox="0 0 34 34" fill="none" xmlns="http://www.w3.org/2000/svg">
<rect width="34" height="34" rx="5" fill="#185ABD"/>
<path d="M11 13.0822L17 19M17 19L23 13.0822M17 19L17 7" stroke="white" stroke-width="2" stroke-miterlimit="10" stroke-linecap="square"/>
<path d="M5.58887 28.4727C5.58887 28.3086 5.64453 28.1709 5.75586 28.0596C5.86719 27.9453 6.01807 27.8882 6.2085 27.8882C6.40186 27.8882 6.55273 27.9453 6.66113 28.0596C6.77246 28.1709 6.82812 28.3086 6.82812 28.4727C6.82812 28.6367 6.77246 28.7744 6.66113 28.8857C6.55273 28.9971 6.40186 29.0527 6.2085 29.0527C6.01807 29.0527 5.86719 28.9971 5.75586 28.8857C5.64453 28.7744 5.58887 28.6367 5.58887 28.4727ZM10.9502 28.0156V22.25H12.0137V29H11.0513L10.9502 28.0156ZM7.85645 26.6753V26.583C7.85645 26.2227 7.89893 25.8945 7.98389 25.5986C8.06885 25.2998 8.19189 25.0435 8.35303 24.8296C8.51416 24.6128 8.71045 24.4473 8.94189 24.333C9.17334 24.2158 9.43408 24.1572 9.72412 24.1572C10.0112 24.1572 10.2632 24.2129 10.48 24.3242C10.6968 24.4355 10.8813 24.5952 11.0337 24.8032C11.186 25.0083 11.3076 25.2544 11.3984 25.5415C11.4893 25.8257 11.5537 26.1421 11.5918 26.4907V26.7852C11.5537 27.125 11.4893 27.4355 11.3984 27.7168C11.3076 27.998 11.186 28.2412 11.0337 28.4463C10.8813 28.6514 10.6953 28.8096 10.4756 28.9209C10.2588 29.0322 10.0054 29.0879 9.71533 29.0879C9.42822 29.0879 9.16895 29.0278 8.9375 28.9077C8.70898 28.7876 8.51416 28.6191 8.35303 28.4023C8.19189 28.1855 8.06885 27.9307 7.98389 27.6377C7.89893 27.3418 7.85645 27.021 7.85645 26.6753ZM8.91553 26.583V26.6753C8.91553 26.8921 8.93457 27.0942 8.97266 27.2817C9.01367 27.4692 9.07666 27.6348 9.16162 27.7783C9.24658 27.9189 9.35645 28.0303 9.49121 28.1123C9.62891 28.1914 9.79297 28.231 9.9834 28.231C10.2236 28.231 10.4214 28.1782 10.5767 28.0728C10.7319 27.9673 10.8535 27.8252 10.9414 27.6465C11.0322 27.4648 11.0938 27.2627 11.126 27.04V26.2446C11.1084 26.0718 11.0718 25.9106 11.0161 25.7612C10.9634 25.6118 10.8916 25.4814 10.8008 25.3701C10.71 25.2559 10.5972 25.168 10.4624 25.1064C10.3306 25.042 10.1738 25.0098 9.99219 25.0098C9.79883 25.0098 9.63477 25.0508 9.5 25.1328C9.36523 25.2148 9.25391 25.3276 9.16602 25.4712C9.08105 25.6147 9.01807 25.7817 8.97705 25.9722C8.93604 26.1626 8.91553 26.3662 8.91553 26.583ZM12.9189 26.6753V26.5742C12.9189 26.2314 12.9688 25.9136 13.0684 25.6206C13.168 25.3247 13.3115 25.0684 13.499 24.8516C13.6895 24.6318 13.9209 24.4619 14.1934 24.3418C14.4688 24.2188 14.7793 24.1572 15.125 24.1572C15.4736 24.1572 15.7842 24.2188 16.0566 24.3418C16.332 24.4619 16.5649 24.6318 16.7554 24.8516C16.9458 25.0684 17.0908 25.3247 17.1904 25.6206C17.29 25.9136 17.3398 26.2314 17.3398 26.5742V26.6753C17.3398 27.0181 17.29 27.3359 17.1904 27.6289C17.0908 27.9219 16.9458 28.1782 16.7554 28.3979C16.5649 28.6147 16.3335 28.7847 16.061 28.9077C15.7886 29.0278 15.4795 29.0879 15.1338 29.0879C14.7852 29.0879 14.4731 29.0278 14.1978 28.9077C13.9253 28.7847 13.6938 28.6147 13.5034 28.3979C13.313 28.1782 13.168 27.9219 13.0684 27.6289C12.9688 27.3359 12.9189 27.0181 12.9189 26.6753ZM13.978 26.5742V26.6753C13.978 26.8892 14 27.0913 14.0439 27.2817C14.0879 27.4722 14.1567 27.6392 14.2505 27.7827C14.3442 27.9263 14.4644 28.0391 14.6108 28.1211C14.7573 28.2031 14.9316 28.2441 15.1338 28.2441C15.3301 28.2441 15.5 28.2031 15.6436 28.1211C15.79 28.0391 15.9102 27.9263 16.0039 27.7827C16.0977 27.6392 16.1665 27.4722 16.2104 27.2817C16.2573 27.0913 16.2808 26.8892 16.2808 26.6753V26.5742C16.2808 26.3633 16.2573 26.1641 16.2104 25.9766C16.1665 25.7861 16.0962 25.6177 15.9995 25.4712C15.9058 25.3247 15.7856 25.2104 15.6392 25.1284C15.4956 25.0435 15.3242 25.001 15.125 25.001C14.9258 25.001 14.7529 25.0435 14.6064 25.1284C14.4629 25.2104 14.3442 25.3247 14.2505 25.4712C14.1567 25.6177 14.0879 25.7861 14.0439 25.9766C14 26.1641 13.978 26.3633 13.978 26.5742ZM20.1699 28.2441C20.3428 28.2441 20.498 28.2104 20.6357 28.1431C20.7764 28.0728 20.8892 27.9761 20.9741 27.853C21.062 27.73 21.1104 27.5879 21.1191 27.4268H22.1167C22.1108 27.7344 22.02 28.0142 21.8442 28.2661C21.6685 28.5181 21.4355 28.7188 21.1455 28.8682C20.8555 29.0146 20.5347 29.0879 20.1831 29.0879C19.8198 29.0879 19.5034 29.0264 19.2339 28.9033C18.9644 28.7773 18.7402 28.6045 18.5615 28.3848C18.3828 28.165 18.248 27.9116 18.1572 27.6245C18.0693 27.3374 18.0254 27.0298 18.0254 26.7017V26.5479C18.0254 26.2197 18.0693 25.9121 18.1572 25.625C18.248 25.335 18.3828 25.0801 18.5615 24.8604C18.7402 24.6406 18.9644 24.4692 19.2339 24.3462C19.5034 24.2202 19.8184 24.1572 20.1787 24.1572C20.5596 24.1572 20.8936 24.2334 21.1807 24.3857C21.4678 24.5352 21.6934 24.7446 21.8574 25.0142C22.0244 25.2808 22.1108 25.5913 22.1167 25.9458H21.1191C21.1104 25.77 21.0664 25.6118 20.9873 25.4712C20.9111 25.3276 20.8027 25.2134 20.6621 25.1284C20.5244 25.0435 20.3589 25.001 20.1655 25.001C19.9517 25.001 19.7744 25.0449 19.6338 25.1328C19.4932 25.2178 19.3833 25.335 19.3042 25.4844C19.2251 25.6309 19.168 25.7964 19.1328 25.981C19.1006 26.1626 19.0845 26.3516 19.0845 26.5479V26.7017C19.0845 26.8979 19.1006 27.0884 19.1328 27.2729C19.165 27.4575 19.2207 27.623 19.2998 27.7695C19.3818 27.9131 19.4932 28.0288 19.6338 28.1167C19.7744 28.2017 19.9531 28.2441 20.1699 28.2441ZM23.7383 24.2451L24.6436 25.8228L25.5664 24.2451H26.731L25.2896 26.5786L26.7881 29H25.6235L24.6567 27.3564L23.6899 29H22.521L24.0151 26.5786L22.5781 24.2451H23.7383Z" fill="#F7FBF9"/>
</svg>
